<svg width="707" height="590" viewBox="0 0 707 590" fill="none" xmlns="http://www.w3.org/2000/svg">
<path opacity="0.278209" d="M371.104 165.66C331.563 173.358 291.275 169.322 252.404 163.716C213.534 158.11 174.647 150.929 134.668 152.43C108.95 153.398 80.6345 159.245 63.8365 177.008C47.668 194.112 46.5647 217.473 47.9417 238.558C48.9783 254.437 51.2237 270.858 61.3695 283.626C68.4135 292.47 78.7751 298.883 86.806 307.061C114.739 335.528 109.852 379.706 95.326 417.144C88.5427 434.703 79.902 451.95 75.6787 469.95C71.4554 487.95 72.0469 507.312 82.8107 522.189C93.4879 536.937 112.762 545.414 132.565 549.933C172.791 559.113 216.584 554.292 258.813 547.535C352.29 532.554 444.184 508.489 535.829 484.481C569.743 475.586 603.801 466.645 636.179 453.613C654.153 446.38 672.336 437.286 683.282 422.932C697.184 404.71 695.874 379.592 680.221 364.362C653.98 338.85 598.829 343.74 577.897 314.688C566.374 298.699 569.456 277.212 576.467 258.295C591.51 217.711 623.224 177.839 615.974 137.095C610.997 109.113 585.924 85.725 554.03 79.3066C520.592 72.5777 479.023 83.9928 461.933 111.854C444.349 140.542 406.017 158.865 371.104 165.66Z" fill="#C4C1FF"/>
<path d="M386.732 71.935C386.732 71.935 383.357 61.0584 383.654 59.6334C383.835 58.7568 385.937 53.3631 386.644 51.5943C386.906 50.936 387.172 50.2662 387.236 49.5579C387.301 48.8334 387.151 48.1053 386.973 47.3975C386.48 45.4329 385.765 43.5287 385.052 41.6303C384.862 41.1256 384.671 40.6173 384.387 40.1584C384.043 39.6027 383.573 39.1355 383.106 38.6771C380.437 36.0574 377.687 33.5209 374.86 31.0714C374.711 30.9423 374.548 30.8068 374.352 30.786C373.884 30.7355 372.289 33.8751 372.244 34.6006C372.057 37.6282 372.715 40.7126 374.123 43.423C374.404 43.9626 374.717 44.4969 374.851 45.0886C375.204 46.6584 374.239 48.1646 373.755 49.6896C373.318 51.0678 372.867 52.5412 372.681 53.9766C372.34 56.6079 374.639 58.3959 374.981 58.8803C375.17 59.1485 375.228 59.4834 375.284 59.8048C375.656 61.9021 376.345 69.748 376.345 69.748" fill="#FCD2B1"/>
<path d="M430.791 92.948C427.782 95.0032 427.439 99.8772 427.278 103.187C427.083 107.173 427.643 111.16 428.434 115.059C428.984 117.772 429.704 120.581 431.539 122.655C432.476 123.714 433.655 124.523 434.822 125.321C435.484 125.774 436.16 126.233 436.93 126.454C437.701 126.673 438.595 126.617 439.216 126.11C440.12 125.369 440.135 124.016 440.077 122.848C439.693 115.235 439.462 107.487 441.4 100.114" fill="#0B4870"/>
<path d="M410.572 509.618C410.572 509.618 410.508 516.799 411.016 519.347C411.524 521.895 419.737 521.074 420.525 519.623C421.313 518.172 420.331 506.304 420.331 506.304" fill="#FCD2B1"/>
<path d="M422.903 522.074C423.127 524.766 423.112 529.851 423.112 529.851L414.691 531.881L413.619 530.45C413.619 530.45 411.266 532.46 408.671 533.147C406.744 533.657 402.717 534.047 400.729 533.913C393.771 533.447 388.972 531.279 388.733 530.261C387.736 526.008 396.982 526.542 398.864 526.385C404.266 525.934 407.906 522.057 408.96 519.296C409.724 517.293 409.274 516.839 410.422 517.106C410.422 517.106 411.446 517.232 412.217 518.369C413.4 520.113 415.456 521.176 417.546 520.639C418.742 520.331 419.921 519.781 420.726 518.818C420.726 518.818 422.678 519.382 422.903 522.074Z" fill="#0B4870"/>
<path d="M426.653 421.481C425.855 408.863 436.046 391.978 436.046 391.978C436.046 391.978 408.529 376.861 408.115 372.158C408.115 372.158 404.348 398.12 402.996 407.281C400.648 423.192 408.586 513.95 408.586 513.95C408.586 513.95 414.345 515.548 421.994 514.136C421.994 514.136 423.423 479.08 429.156 455.333C431.873 444.073 427.603 424.601 426.653 421.481Z" fill="#0E538C"/>
<path d="M428.862 276.017C418.532 299.069 407.314 373.456 404.624 399.134C403.484 410.022 412.552 422.783 423.112 412.938C435.718 401.185 453.452 347.342 459.788 337.838C466.124 328.333 489.833 319.62 473.641 271.396" fill="#0E538C"/>
<path d="M475.248 510.068C475.248 510.068 476.178 520.193 476.544 522.766C476.909 525.338 485.156 524.976 486.023 523.572C486.891 522.167 486.572 510.262 486.572 510.262" fill="#FCD2B1"/>
<path d="M488.353 525.706C488.534 528.402 488.079 532.842 488.079 532.842L478.59 533.48L478.016 531.927C478.016 531.927 475.046 533.718 472.629 533.88L464.619 534.418C458.757 534.812 455.378 534.29 455.159 533.268C454.251 528.997 461.268 528.723 463.092 528.6C468.328 528.248 473.833 525.416 474.89 522.675C475.657 520.686 475.228 520.224 476.335 520.513C476.335 520.513 477.325 520.657 478.056 521.807C479.178 523.572 481.154 524.673 483.185 524.173C484.347 523.888 485.496 523.359 486.288 522.411C486.289 522.411 488.172 523.01 488.353 525.706Z" fill="#0B4870"/>
<path d="M454.621 419.992C456.37 428.963 479.804 425.612 479.298 417.667C478.579 406.372 486.494 391.774 489.529 338.012C489.876 331.87 496.03 330.968 498.453 314.264C500.844 297.53 490.933 279.009 490.933 279.009L454.876 273.848C454.876 273.848 441.019 305.114 443.885 336.29C446.751 367.466 452.548 409.428 454.621 419.992Z" fill="#0E538C"/>
<path d="M479.236 415.781C479.236 415.781 487.433 432.02 488.395 443.758C489.803 460.933 488.063 517.461 488.063 517.461C488.063 517.461 479.195 519.387 474.461 517.991C474.461 517.991 453.647 417.698 452.883 406.913C452.12 396.129 479.236 415.781 479.236 415.781Z" fill="#0E538C"/>
<path d="M414.9 167.31C418.975 162.635 431.912 154.929 449.202 155.475C461.115 155.851 493.558 157.817 497.183 165.786C499.036 169.86 501.026 211.578 498.312 225.962C496.272 236.778 491.053 263.572 491.053 270.039C491.053 276.505 494.526 279.277 492.905 281.155C489.275 285.36 464.451 287.127 452.797 287.127C442.423 287.127 424.768 284.361 423.872 281.038C422.542 276.105 425.896 276.29 426.351 271.118C426.805 265.948 429.249 231.843 426.212 226.886C421.391 219.019 416.603 198.297 416.232 192.368C415.862 186.439 410.824 171.985 414.9 167.31Z" fill="#1A71FF"/>
<path d="M445.416 143.084C445.416 143.084 445.3 157.472 444.72 158.053C444.623 158.15 444.464 158.268 444.265 158.397C442.43 159.591 441.606 161.849 442.126 163.975C442.998 167.544 444.515 172.128 446.457 171.552C448.626 170.909 459.207 165.705 465.515 162.563C467.197 161.725 467.807 159.821 467.368 157.995C467.354 157.937 467.347 157.879 467.347 157.821C467.347 156.66 470.131 134.034 470.131 134.034" fill="#FCD2B1"/>
<path d="M444.077 90.2058C441.47 91.9303 433.407 92.8563 432.354 96.6667C431.301 100.477 431.967 108.626 431.872 110.966C431.684 115.625 432.131 120.389 432.411 125.035C432.775 131.09 433.711 142.091 440.695 144.954C442.702 145.776 443.547 145.989 445.602 145.702C448.335 145.319 451.077 145.001 453.809 144.614C458.043 144.014 462.747 143.391 466.293 140.793C471.03 137.321 471.535 129.069 471.266 123.666L469.723 92.7188L444.077 90.2058Z" fill="#FFE3CA"/>
<path d="M443.652 184.831C444.274 172.79 402.78 125.573 403.285 123.524C403.79 121.475 384.668 61.345 384.668 61.345L373.801 62.1866C373.801 62.1866 377.354 113.034 382.206 130.03C385.621 141.995 412.246 177.241 412.246 177.241C412.246 177.241 443.03 196.872 443.652 184.831Z" fill="#1A71FF"/>
<path d="M472.013 264.487L534.599 276.301C536.306 276.623 537.374 278.333 536.915 280.007L528.53 323.297C528.12 324.79 526.634 325.718 525.113 325.431L462.527 313.617C460.821 313.295 459.753 311.585 460.212 309.911L468.596 266.621C469.006 265.128 470.493 264.2 472.013 264.487Z" fill="#0B4870"/>
<path d="M472.752 267.811L532.675 279.122L524.374 322.107L464.451 310.795L472.752 267.811Z" fill="#F7F7F7"/>
<path d="M471.16 308.543L477.707 271.951" stroke="#D3D3D3" stroke-width="0.5282" stroke-miterlimit="10" stroke-linecap="round" stroke-linejoin="round"/>
<path d="M476.812 309.639L483.358 273.047" stroke="#D3D3D3" stroke-width="0.5282" stroke-miterlimit="10" stroke-linecap="round" stroke-linejoin="round"/>
<path d="M484.945 311.304L491.491 274.713" stroke="#D3D3D3" stroke-width="0.5282" stroke-miterlimit="10" stroke-linecap="round" stroke-linejoin="round"/>
<path d="M493.077 312.969L499.623 276.378" stroke="#D3D3D3" stroke-width="0.5282" stroke-miterlimit="10" stroke-linecap="round" stroke-linejoin="round"/>
<path d="M501.208 314.635L508.548 278.043" stroke="#D3D3D3" stroke-width="0.5282" stroke-miterlimit="10" stroke-linecap="round" stroke-linejoin="round"/>
<path d="M509.341 316.301L516.68 279.709" stroke="#D3D3D3" stroke-width="0.5282" stroke-miterlimit="10" stroke-linecap="round" stroke-linejoin="round"/>
<path d="M517.473 317.966L525.113 281.375" stroke="#D3D3D3" stroke-width="0.5282" stroke-miterlimit="10" stroke-linecap="round" stroke-linejoin="round"/>
<path d="M505.194 295.955C505.194 295.955 502.719 301.004 501.393 303.568C500.529 305.241 493.954 310.84 491.318 315.301C490.046 317.453 488.926 319.884 489.25 322.364C489.575 324.844 491.905 327.193 494.35 326.668C495.046 326.519 495.843 326.178 496.406 326.615C496.691 326.836 496.817 327.2 496.992 327.515C497.533 328.485 498.698 329.066 499.797 328.915C500.897 328.764 501.862 327.89 502.121 326.81C503.801 328.381 506.726 328.349 508.372 326.742C507.393 325.934 506.662 324.688 506.863 323.434C507.056 322.226 508.029 321.324 508.775 320.354C510.09 318.646 510.795 316.478 510.737 314.323C510.696 312.787 510.282 311.285 510.112 309.757C509.765 306.623 510.486 303.38 512.128 300.688" fill="#FCD2B1"/>
<path d="M486.342 194.834C488.233 201.577 517.041 245.921 517.041 245.921L501.619 302.13L510.411 307.632C510.411 307.632 537.83 262.073 537.915 249.208C537.999 236.343 517.857 189.178 503.132 169.893C498.444 163.755 489.049 160.656 489.049 160.656" fill="#1A71FF"/>
<path d="M472.574 117.78C470.427 117.321 468.681 116.664 468.078 118.775C467.757 119.894 467.797 121.281 466.841 121.945C465.887 122.606 464.482 122.018 463.869 121.033C463.256 120.049 463.218 118.825 463.197 117.666C463.154 115.1 463.109 112.534 463.066 109.969C463.022 107.456 462.899 104.721 461.267 102.81C460.442 101.846 459.306 101.196 458.132 100.713C454.307 99.1381 450.012 99.1792 445.905 99.661C441.797 100.143 437.724 101.04 433.589 101.095C431.85 101.118 430.077 100.984 428.467 100.331C425.866 99.2766 423.92 96.911 423.012 94.2548C422.104 91.5985 422.159 88.6824 422.77 85.9428C423.354 86.7652 424.033 87.5209 424.788 88.1902C424.853 86.811 425.2 85.4459 425.803 84.2032C428.984 90.0839 454.615 79.3209 461.671 80.0506C466.562 80.5558 470.5 80.6428 472.647 87.5923C472.918 88.0011 473.396 88.2136 473.843 88.4162C478.763 90.6423 481.79 94.323 484.33 100.433C487.437 107.908 485.708 117.68 483.416 125.443C482.84 127.394 482.599 128.724 481.447 130.401C480.295 132.078 477.804 133.535 475.786 133.798C473.769 134.061 470.083 135.457 469.41 133.537C468.929 132.163 471.071 128.722 471.522 127.339" fill="#0B4870"/>
<path d="M468.07 127.294C468.07 127.294 468.184 128.682 469.32 129.429C470.317 130.084 471.704 129.484 472.581 128.843C475.079 127.017 476.109 123.656 475.708 120.669C475.235 117.149 472.361 114.42 469.61 116.282C468.001 117.372 467.556 119.752 468.183 121.591" fill="#FFE3CA"/>
<path d="M461.792 297.058L467.209 298.341L471.12 278.088L465.688 276.94L461.792 297.058Z" fill="#0B4870"/>
<path d="M458.18 290.827C459.457 291.068 464.386 292 464.386 292L466.217 282.314L460.01 281.141C457.336 280.635 454.758 282.393 454.252 285.068C453.746 287.743 455.504 290.321 458.18 290.827ZM458.644 288.712C457.143 288.429 456.156 286.982 456.44 285.481C456.723 283.981 458.17 282.994 459.67 283.278C461.171 283.561 462.158 285.008 461.874 286.508C461.59 288.009 460.144 288.996 458.644 288.712Z" fill="#0B4870"/>
<path d="M349.737 40.1912C350.197 36.3235 341.294 33.7063 340.4 36.9037C340.305 37.2464 339.534 38.1881 339.325 39.6266C339.147 40.8532 338.611 42.2829 338.455 43.5167C338.314 44.6376 338.582 49.8829 335.965 50.4433C331.954 51.3027 334.496 44.324 331.668 42.7584C330.78 42.2672 329.837 47.6777 329.77 50.7381C329.704 53.7975 329.687 55.3308 329.974 57.1324C330.225 58.935 331.222 61.4844 331.082 62.5761C330.857 64.3334 328.804 67.9433 328.804 67.9433L338.936 70.2495C338.936 70.2495 341.331 64.6808 342.555 63.3855C345.632 60.3167 347.557 56.7943 348.689 52.5339C349.399 49.8652 349.642 47.0792 349.846 44.3334C349.846 44.3329 349.69 40.5902 349.737 40.1912Z" fill="#FCD2B1"/>
<path d="M254.467 124.888C254.467 124.888 286.599 124.604 304.043 105.053C317.96 85.5532 331.405 63.9797 332.408 61.9777C335.147 63.0245 341.032 65.7172 341.032 65.7172C341.032 65.7172 322.647 106.855 315.485 116.251C308.323 125.646 294.235 141.034 264.458 148.673C250.194 132.297 254.467 124.888 254.467 124.888Z" fill="#FCD2B1"/>
<path d="M275.407 508.457C275.407 508.457 277.256 512.675 277.163 515.506C277.07 518.337 268.089 518.916 266.983 517.495C265.878 516.075 264.821 503.135 264.821 503.135" fill="#FCD2B1"/>
<path d="M264.71 520.083C264.832 523.026 265.848 527.785 265.848 527.785L276.207 527.358L276.646 525.608C276.646 525.608 280.076 527.2 282.715 527.091L291.459 526.731C297.86 526.467 301.461 525.502 301.577 524.369C302.059 519.634 294.421 520.163 292.43 520.245C286.712 520.48 280.412 518.058 278.944 515.212C277.878 513.146 278.29 512.595 277.123 513.039C277.123 513.039 276.067 513.312 275.41 514.644C274.403 516.69 272.39 518.115 270.13 517.813C268.837 517.64 267.53 517.203 266.559 516.269C266.559 516.269 264.59 517.14 264.71 520.083Z" fill="#0B4870"/>
<path d="M174.215 502.837C174.215 502.837 172.611 510.5 171.476 513.095C170.341 515.691 161.784 512.902 161.283 511.174C160.782 509.445 164.594 497.033 164.594 497.033" fill="#FCD2B1"/>
<path d="M158.214 512.736C157.236 515.514 155.84 520.877 155.84 520.877L163.885 525.237L165.378 524.011C165.378 524.011 167.225 526.75 169.687 528.157C171.515 529.202 175.523 530.675 177.593 531.059C184.835 532.401 190.344 531.38 190.87 530.371C193.072 526.151 183.471 524.277 181.591 523.616C176.193 521.717 173.549 516.67 173.239 513.482C173.014 511.169 173.599 510.809 172.352 510.789C172.352 510.789 171.27 510.652 170.166 511.646C168.472 513.173 166.074 513.752 164.087 512.634C162.951 511.995 161.897 511.105 161.342 509.877C161.343 509.877 159.191 509.957 158.214 512.736Z" fill="#0B4870"/>
<path d="M202.298 299.283C202.298 299.283 186.834 266.154 210.38 240.67C210.38 240.67 231.718 249.186 248.541 249.627C261.788 249.975 268.441 248.33 268.441 248.33C268.441 248.33 272.424 272.74 272.376 311.272L202.298 299.283Z" fill="#FFB27D"/>
<path d="M263.96 512.186C264.386 512.199 264.811 512.182 265.205 512.165C273.946 511.896 278.879 510.661 278.879 510.661L278.776 508.142C276.701 469.574 278.776 406.311 278.866 386.342C278.869 384.944 278.786 383.672 278.588 382.525C276.47 367.995 261.471 370.527 255.683 384.197C254.325 387.383 253.284 390.89 252.528 394.659C251.59 399.195 251.033 404.11 250.791 409.317C249.219 442.749 260.357 487.416 263.96 512.186Z" fill="#FFB27D"/>
<path d="M229.594 313.738C229.671 314.13 229.78 314.551 229.888 314.972C233.948 332.4 246.733 379.431 252.525 394.629L252.527 394.66C253.374 396.782 256.027 398.496 259.37 399.24C267.04 400.991 278.239 397.703 278.586 382.526C278.638 380.852 278.534 379.033 278.301 377.067C276.794 364.822 271.298 297.039 270.483 290.51C269.697 283.978 268.121 274.47 264.612 273.4C247.105 268.134 224.063 289.352 229.594 313.738Z" fill="#FFB27D"/>
<path d="M198.106 385.583C209.34 374.108 225.809 378.643 218.919 396.016C211.549 414.591 188.529 466.269 176.405 502.929L175.562 505.315C175.562 505.315 170.054 504.595 161.125 501.287C166.637 477.588 169.685 437.009 181.987 408.314C185.943 399.088 192.283 391.53 198.106 385.583Z" fill="#FFB27D"/>
<path d="M259.49 274.865C260.642 247.633 227.557 267.049 211.703 276.679C205.03 280.731 202.841 288.381 202.218 295.522C201.589 302.664 195.835 376.158 194.625 389.574C191.894 419.817 217.491 402.287 219.631 393.849C225.029 372.548 258.862 289.704 259.49 274.865Z" fill="#FFB27D"/>
<path d="M254.984 103.14C255.054 105.19 255.133 113.207 250.874 115.121C246.615 117.065 243.883 117.88 244.006 118.538C244.054 118.837 244.475 120.248 244.927 121.63C245.906 124.725 247.39 125.494 247.39 125.494L248.006 135.757L240.353 143.388L237.854 145.875L234.097 142.436L221.852 131.282C221.852 131.282 226.898 125.065 223.414 118.402C222.915 117.463 217.335 111.283 212.884 105.058C210.294 101.398 208.089 97.7517 207.507 95.147C205.91 88.022 204.565 80.5215 208.654 76.0476C212.714 71.5731 240.753 53.1783 246.366 74.7621C246.367 74.7627 254.914 101.089 254.984 103.14Z" fill="#FFE3CA"/>
<path d="M221.816 96.9126C221.816 96.9126 228.551 99.3434 227.858 90.2032C227.821 89.7038 228.178 89.2569 228.706 89.1001C230.677 88.5173 235.025 86.2126 232.811 77.3881C232.626 76.6517 233.165 75.9272 233.994 75.8147C236.854 75.4272 242.761 74.6642 244.072 74.7819C244.072 74.7819 244.721 74.7178 245.692 74.8793C246.008 74.9319 246.282 75.1105 246.426 75.3689C246.882 76.1861 249.493 84.5157 249.493 84.5157C249.493 84.5157 252.606 82.1689 252.273 80.5855C251.94 79.0022 250.472 75.6444 250.64 74.8017C250.808 73.9584 253.203 72.9668 253.221 71.0704C253.26 66.7824 251.586 50.3683 238.567 60.4605C236.865 61.7803 235.354 63.3678 233.845 63.9225C231.876 64.6459 229.652 63.2506 225.366 63.5527C219.379 63.9741 193.647 69.9923 201.885 92.8751C210.123 115.758 223.68 119.023 223.68 119.023C223.68 119.023 219.235 99.8225 221.816 96.9126Z" fill="#0B4870"/>
<path d="M221.816 96.9126C221.816 96.9126 220.542 92.9792 217.252 94.1126C212.836 95.6344 213.234 106.725 222.853 105.264C222.853 105.265 221.566 100.73 221.816 96.9126Z" fill="#FFE3CA"/>
<path d="M283.152 271.396C283.152 271.396 234.571 280.068 190.838 271.952C192.959 258.44 201.255 220.262 201.817 204.85L201.877 203.279C202.224 193.439 202.405 186.412 202.623 186.124C203.062 185.518 201.506 154.117 204.084 141.81C204.557 139.542 205.183 137.934 205.979 137.282C211.099 133.026 217.117 128.567 223.833 125.234C223.833 125.234 239.482 142.068 247.467 123.439C256.253 122.648 260.726 124.421 263.267 133.215C277.333 182.072 283.152 271.396 283.152 271.396Z" fill="#1A71FF"/>
<path d="M254.022 123.555C254.022 123.555 268.575 123.803 283.42 117.223C291.703 126.963 296.711 144.715 296.711 144.715C296.711 144.715 276.684 157.444 262.045 158.668C258.905 137.331 254.022 123.555 254.022 123.555Z" fill="#2A94F4"/>
<path d="M279.826 154.719L281.562 158.157L278.198 156.28L252.134 129.115L253.761 127.554L279.826 154.719Z" fill="#0B4870"/>
<path d="M196.367 186.018C196.367 186.018 203.102 209.254 220.617 220.194C225.719 223.381 232.123 221.6 236.133 217.114C248.123 203.704 260.11 173.495 263.945 162.089C256.915 158.357 254.668 158.939 254.668 158.939C254.668 158.939 237.663 182.547 227.907 198.345L220.62 185.637" fill="#FCD2B1"/>
<path d="M254.168 159.819C254.168 159.819 257.294 154.767 257.441 150.94C257.588 147.112 255.773 140.495 259.492 137.052C260.876 135.77 265.719 133.807 271.171 134.709C279.282 136.052 272.868 150.116 272.499 153.31C271.944 158.111 265.251 160.143 263.795 162.536C262.759 164.238 254.168 159.819 254.168 159.819Z" fill="#FCD2B1"/>
<path d="M209.99 134.071C209.99 134.071 191.941 145.894 191.17 166.021C190.573 181.584 200.864 204.292 200.864 204.292C200.864 204.292 218.72 206.262 228.093 191.667C225.317 184.578 222.888 178.281 217.554 169.912" fill="#2A94F4"/>
<path d="M329.735 10.7344L335.403 70.6834C335.557 72.3177 337.074 73.4719 338.691 73.1854L380.078 65.8469C381.519 65.5917 382.522 64.2729 382.385 62.8162L376.717 2.86721C376.562 1.23283 375.045 0.0786671 373.429 0.365125L332.042 7.70315C330.601 7.95888 329.597 9.27711 329.735 10.7344Z" fill="#FFB27D"/>
<path d="M332.799 11.7193L338.227 69.1173L379.32 61.8303L373.893 4.43286L332.799 11.7193Z" fill="#F7F7F7"/>
<path d="M371.032 9.73499L336.11 15.9272" stroke="#D3D3D3" stroke-width="0.5282" stroke-miterlimit="10" stroke-linecap="round" stroke-linejoin="round"/>
<path d="M371.571 15.1516L336.65 21.3438" stroke="#D3D3D3" stroke-width="0.5282" stroke-miterlimit="10" stroke-linecap="round" stroke-linejoin="round"/>
<path d="M359.066 23.9064L337.243 27.7762" stroke="#D3D3D3" stroke-width="0.5282" stroke-miterlimit="10" stroke-linecap="round" stroke-linejoin="round"/>
<path d="M359.014 28.7324L337.191 32.6022" stroke="#D3D3D3" stroke-width="0.5282" stroke-miterlimit="10" stroke-linecap="round" stroke-linejoin="round"/>
<path d="M358.961 33.5579L337.138 37.4277" stroke="#D3D3D3" stroke-width="0.5282" stroke-miterlimit="10" stroke-linecap="round" stroke-linejoin="round"/>
<path d="M374.497 55.0146L352.673 58.8845" stroke="#D3D3D3" stroke-width="0.5282" stroke-miterlimit="10" stroke-linecap="round" stroke-linejoin="round"/>
<path d="M357.232 249.524C359.846 248.293 361.788 246.014 363.646 243.802C365.48 241.619 367.313 239.437 369.146 237.254C369.87 236.393 370.627 235.451 370.709 234.33C367.635 234.08 365.655 238.072 362.581 238.309C364.013 233.247 366.069 228.363 368.688 223.801C369.327 222.688 370.021 221.389 369.568 220.189C366.246 221.458 363.448 223.82 361.028 226.425C359.328 228.256 357.778 230.228 356.4 232.312C352.344 238.452 349.83 245.498 348.119 252.656" fill="#FCD2B1"/>
<path d="M344.005 301.979L311.055 274.179C311.055 274.179 295.72 294.977 301.497 315.042C304.338 324.908 307.904 329.801 309.452 334.482C310.898 338.856 320.816 400.766 320.076 405.293C319.336 409.819 314.011 422.484 311.979 435.803C309.534 451.821 309.95 504.012 308.054 517.85C306.158 531.688 318.937 534.029 319.64 529.348C325.646 489.333 341.51 426.978 343.73 406.974C345.95 386.968 345.049 350.335 344.005 301.979Z" fill="#FCD2B1"/>
<path d="M321.859 516.496C321.859 516.496 318.791 531.015 319.617 532.866C320.442 534.717 323.41 540.095 326.45 542.039C329.64 544.079 336.704 546.504 337.27 547.388C337.835 548.273 336.109 547.181 335.101 547.972C332.499 550.017 327.552 550.066 324.598 549.579C315.02 547.997 316.222 547.09 310.642 546.411C309.678 546.294 307.893 547.719 305.229 546.355C302.563 544.992 301.269 542.528 301.498 540.209C301.893 536.209 304.139 532.914 305.738 529.955C307.337 526.997 308.463 513.462 308.463 513.462" fill="#FCD2B1"/>
<path d="M337.836 547.609C337.889 546.521 333.731 544.875 331.874 544.02C330.016 543.165 327.07 542.411 328.108 542.973C329.145 543.533 327.228 545.713 325.496 545.522C300.144 542.723 304.641 533.248 304.424 532.303C303.491 532.896 301.32 537.588 300.88 539.063C300.482 540.397 300.255 542.788 300.148 544.224C299.694 550.3 337.381 557.165 337.836 547.609Z" fill="#0B4870"/>
<path d="M388.997 550.449C388.288 549.667 380.656 548.425 377.076 546.93C373.665 545.505 369.533 540.922 368.729 538.978C367.925 537.035 368.109 527.182 368.212 523.046C368.926 494.554 374.191 424.927 374.954 408.252C376.279 379.27 372.516 349.355 361.366 302.829L319.843 270.964C319.843 270.964 308.215 292.581 312.108 313.251C314.366 325.242 324.314 327.087 325.995 331.747C327.677 336.407 352.798 411.552 352.798 411.552C352.798 411.552 347.91 427.796 347.626 445.595C347.384 460.787 354.274 506.617 355.552 524.077C355.703 527.489 356.29 535.656 355.285 538.255C354.053 541.442 350.913 545.183 351.071 549.202C351.162 551.532 351.413 550.969 354.356 551.882C357.298 552.794 360.371 553.881 361.382 553.839C367.236 553.596 368.902 553.667 379.008 553.664C382.125 553.663 386.599 555.895 388.996 553.448C389.924 552.5 389.705 551.231 388.997 550.449Z" fill="#FCD2B1"/>
<path d="M389.866 554.016C390.184 552.644 390.345 550.905 389.613 550.575C388.597 550.116 384.991 548.543 382.953 548.002C380.915 547.46 377.769 547.196 378.919 547.581C380.069 547.966 378.403 550.529 376.585 550.529C353.774 550.529 354.355 541.805 353.998 540.906C353.119 541.645 350.518 546.638 350.272 548.169C350.05 549.552 350.022 551.971 350.246 553.391C350.644 555.925 388.916 558.118 389.866 554.016Z" fill="#0B4870"/>
<path d="M311.923 270.682C309.105 273.777 299.063 290.511 298.955 304.131C298.849 317.752 303.694 326.486 304.129 329.329C307.315 350.136 310.394 375.23 310.394 376.592C310.394 377.954 322.205 385.832 338.089 384.832C367.437 382.984 378.848 375.298 378.848 375.298C378.848 375.298 377.458 324.896 372.934 300.044C370.666 287.589 360.794 267.545 360.794 267.545" fill="#0E538C"/>
<path d="M285.147 216.26C285.147 216.26 289.873 239.745 291.114 243.925C292.354 248.105 298.486 274.641 304.298 274.179C310.111 273.717 341.944 247.141 341.944 247.141L337.435 238.125L309.415 251.483C309.415 251.483 306.883 221.148 304.663 213.923" fill="#FFBE9D"/>
<path d="M304.129 183.707C304.129 183.707 294.838 184.697 290.126 188.302C278.112 197.494 287.409 230.86 287.409 230.86C287.409 230.86 286.817 232.642 294.882 232.189C302.948 231.736 309.415 229.442 309.415 229.442L307.084 202.102" fill="#FFBE55"/>
<path d="M348.538 122.146C354.136 129.406 353.028 139.615 351.647 148.678C350.949 153.26 350.252 157.843 349.553 162.426C349.221 164.603 348.78 166.981 347.084 168.386C345.373 169.802 342.929 169.778 340.709 169.683C340.732 173.475 340.755 177.267 340.777 181.06C334.29 181.217 327.798 181.243 321.309 181.138C321.306 178.482 320.728 175.829 319.626 173.413C316.452 173.351 314.331 170.168 313.088 167.246C311.655 163.877 310.611 160.357 309.603 156.837C308.265 152.165 306.974 147.42 306.852 142.563C306.729 137.705 307.885 132.655 310.97 128.901C313.073 126.341 315.941 124.525 318.879 122.992C322.904 120.892 327.737 119.234 331.888 121.073" fill="#FFE3CA"/>
<path d="M341.824 156.728C341.057 152.915 341.111 150.765 342.359 148.226C342.773 147.384 343.319 146.591 344.065 146.067C345.073 145.359 346.415 145.22 347.532 145.708C348.262 146.026 348.863 146.619 349.275 147.332C350.598 142.211 350.876 136.753 350.493 131.435C349.888 123.001 344.803 116.481 337.38 113.432C323.635 107.785 303.889 113.364 298.306 126.855C294.09 137.045 296.228 151.753 304.298 160.295C311.444 167.857 321.722 168.968 331.207 167.41C336.06 166.614 343.551 167.091 346.062 160.491C346.256 159.981 345.82 159.474 345.304 159.514C343.334 159.665 341.965 157.433 341.824 156.728Z" fill="#0B4870"/>
<path d="M342.879 138.788C343.389 139.589 343.269 140.665 343.748 141.484C344.554 142.86 345.625 143.357 347.071 144.028C349.404 145.109 348.857 148.506 348.791 150.024C350.55 148.855 350.836 145.67 351.261 144.052C351.738 142.235 352.043 140.371 352.572 138.569C353.087 136.816 353.979 135.164 354.144 133.319C354.713 126.946 350.715 119.456 345.883 115.879C342.366 113.274 336.996 113.382 333.022 116.031C331.348 117.146 330.09 118.831 329.349 120.701C329.032 121.504 328.812 122.439 329.207 123.206" fill="#0B4870"/>
<path d="M372.077 175.207L358.71 233.921C358.345 235.522 359.425 237.093 361.05 237.327L402.656 243.301C404.105 243.509 405.47 242.57 405.795 241.144L419.162 182.43C419.526 180.829 418.447 179.258 416.822 179.025L375.216 173.051C373.767 172.842 372.402 173.781 372.077 175.207Z" fill="#0B4870"/>
<path d="M374.679 177.102L361.881 233.317L403.193 239.249L415.991 183.034L374.679 177.102Z" fill="#F7F7F7"/>
<path d="M411.615 187.175L376.508 182.134" stroke="#D3D3D3" stroke-width="0.5282" stroke-miterlimit="10" stroke-linecap="round" stroke-linejoin="round"/>
<path d="M410.432 192.489L375.326 187.448" stroke="#D3D3D3" stroke-width="0.5282" stroke-miterlimit="10" stroke-linecap="round" stroke-linejoin="round"/>
<path d="M395.817 196.893L373.878 193.743" stroke="#D3D3D3" stroke-width="0.5282" stroke-miterlimit="10" stroke-linecap="round" stroke-linejoin="round"/>
<path d="M394.257 201.461L372.319 198.31" stroke="#D3D3D3" stroke-width="0.5282" stroke-miterlimit="10" stroke-linecap="round" stroke-linejoin="round"/>
<path d="M392.698 206.028L370.759 202.877" stroke="#D3D3D3" stroke-width="0.5282" stroke-miterlimit="10" stroke-linecap="round" stroke-linejoin="round"/>
<path d="M400.743 231.267L378.804 228.117" stroke="#D3D3D3" stroke-width="0.5282" stroke-miterlimit="10" stroke-linecap="round" stroke-linejoin="round"/>
<path d="M355.699 221.594C355.699 221.594 374.714 267.546 382.964 267.546C388.965 267.546 403.68 225.126 403.68 225.126L394.382 220.725L384.014 238.491L373.516 205.356" fill="#FFE3CA"/>
<path d="M392.536 223.886C392.536 223.886 395.619 219.033 395.393 215.591C395.307 214.278 394.528 208.031 395.179 206.803C395.831 205.575 397.394 201.556 398.287 200.774C399.18 199.993 402.483 198.736 403.291 199.294C404.099 199.853 405.239 198.136 406.443 197.508C414.241 193.443 419.688 209.972 411.454 216.522C409.968 217.704 408.716 220.293 406.268 221.774C405.059 222.505 404.397 223.782 403.243 225.95" fill="#FFE3CA"/>
<path d="M365.269 265.225C364.384 263.915 362.341 262.35 361.608 260.909C359.849 257.452 358.311 242.895 358.916 239.175C359.565 235.189 363.092 233.045 364.684 224.172C366.735 212.742 362.048 203.859 359.429 200.054C355.726 194.673 357.921 194.704 356.654 188.113C356.426 186.925 356.158 185.658 355.346 184.831C354.546 184.014 349.026 181.491 347.941 181.324C337.647 179.729 331.597 180.974 321.191 181.429C316.043 181.654 310.903 182.256 305.848 183.371C300.255 184.604 295.382 186.088 294.231 193.679C292.452 205.42 293.948 217.289 297.517 228.424C299.883 235.805 314.008 261.339 310.508 266.28C309.708 267.41 307.706 269.555 307.464 270.964C306.578 276.125 318.238 277.939 323.229 278.349C330.832 278.974 339.556 278.554 347.178 278.199C352.952 277.929 365.581 275.913 366.479 268.778C366.655 267.377 365.962 266.248 365.269 265.225Z" fill="#FFB27D"/>
<path d="M338.21 180.615C343.162 180.872 357.579 178.343 365.59 186.722C372.301 193.742 376.147 212.146 378.848 219.61C372.125 226.464 365.647 231.991 355.46 229.766C355.076 229.48 350.021 213.573 346.342 212.157" fill="#FFB27D"/>
<path d="M345.304 159.514C345.304 159.514 362.38 181.201 352.766 205.356C341.005 234.906 339.959 236.472 352.766 253.89C365.573 271.308 354.211 292.693 335.831 298.236C317.45 303.779 270.251 301.106 273.104 259.725C274.271 242.804 285.649 240.178 280.981 223.256C276.313 206.335 275.305 195.832 283.978 177.743C292.652 159.655 283.603 109.78 329.993 111.524C329.993 111.523 321.518 164.916 345.304 159.514Z" fill="#0B4870"/>
</svg>
