<svg width="175" height="154" viewBox="0 0 175 154" fill="none" xmlns="http://www.w3.org/2000/svg">
<path d="M151.636 43.2407C148.714 42.9822 146.643 45.2774 143.666 45.6268C142.453 45.7678 141.195 45.702 140.063 46.2049C138.306 46.9882 137.268 48.9309 136.793 50.8157C136.459 52.1379 136.281 53.595 135.347 54.5992C134.502 55.5063 133.244 55.815 132.214 56.4793C129.331 58.3468 128.782 62.2964 128.312 65.353C128.084 66.832 127.952 68.3533 128.333 69.7837C128.356 69.8698 128.864 71.1169 128.864 71.1169L136.566 61.6885C141.589 55.5392 146.543 49.3116 151.645 43.236L151.636 43.2407Z" fill="#0E538C"/>
<path d="M151.636 43.2408C151.548 43.3489 151.913 45.2039 151.882 45.5909C151.807 46.6444 151.413 47.6502 150.754 48.4752C150.039 49.3995 149.187 50.396 149.239 51.5365C149.284 52.4969 149.975 53.2599 150.19 54.1858C150.491 55.4861 149.809 56.8711 149.009 58.0007C147.511 60.1173 145.554 61.7482 143.331 62.9828C141.26 64.1312 140.638 65.5835 139.386 67.581C137.904 69.9468 135.756 70.2679 133.384 70.8852C132.301 71.1672 131.357 71.4962 130.219 71.4022C130.135 71.4022 128.859 71.1249 128.859 71.1249L151.636 43.2408Z" fill="#0B4870"/>
<path d="M128.745 71.2565C128.711 71.2251 128.69 71.1818 128.688 71.1356C128.685 71.0895 128.701 71.0441 128.731 71.009L151.507 43.1218C151.521 43.1037 151.538 43.0885 151.558 43.0771C151.578 43.0658 151.6 43.0584 151.622 43.0555C151.645 43.0526 151.668 43.0542 151.69 43.0602C151.712 43.0662 151.732 43.0765 151.75 43.0905C151.784 43.1219 151.805 43.1652 151.807 43.2114C151.81 43.2575 151.794 43.3029 151.764 43.338L128.988 71.2252C128.974 71.2433 128.957 71.2585 128.937 71.2699C128.917 71.2812 128.895 71.2886 128.873 71.2915C128.85 71.2944 128.827 71.2928 128.805 71.2868C128.783 71.2808 128.763 71.2705 128.745 71.2565Z" fill="#F5FAFA"/>
<path d="M134.611 64.0781C134.6 64.0682 134.591 64.0572 134.582 64.0452C134.557 64.0056 134.548 63.9581 134.557 63.9122C134.566 63.8662 134.592 63.8253 134.629 63.7976C134.925 63.5767 141.943 58.4067 146.243 59.2981C146.266 59.3018 146.287 59.3105 146.306 59.3234C146.325 59.3363 146.341 59.3533 146.353 59.373C146.364 59.3927 146.372 59.4147 146.374 59.4375C146.376 59.4603 146.373 59.4833 146.366 59.5049C146.355 59.5506 146.327 59.5905 146.288 59.6164C146.249 59.6424 146.202 59.6523 146.156 59.6443C142.004 58.7827 134.891 64.0311 134.821 64.0781C134.791 64.1017 134.754 64.1146 134.716 64.1146C134.677 64.1146 134.64 64.1017 134.611 64.0781Z" fill="#F5FAFA"/>
<path d="M141.443 55.7116C141.416 55.6885 141.398 55.6577 141.389 55.6235C141.381 55.5892 141.383 55.5533 141.396 55.5204C141.416 55.464 143.42 49.8803 140.953 47.8139C140.919 47.7825 140.898 47.7391 140.896 47.6929C140.893 47.6468 140.908 47.6014 140.938 47.5663C140.952 47.5483 140.969 47.5332 140.989 47.5218C141.008 47.5104 141.03 47.5031 141.053 47.5002C141.075 47.4973 141.098 47.4988 141.12 47.5048C141.141 47.5108 141.162 47.5211 141.18 47.535C143.827 49.7566 141.806 55.3873 141.717 55.6254C141.702 55.6696 141.671 55.7063 141.629 55.7279C141.588 55.7495 141.54 55.7543 141.495 55.7414C141.476 55.7345 141.458 55.7245 141.443 55.7116Z" fill="#F5FAFA"/>
<path d="M172.275 58.6367C171.461 61.2076 170.082 64.8251 167.701 66.1928C166.565 66.8461 165.241 67.3177 164.245 68.2483C163.096 69.3215 162.927 70.7394 161.981 71.9003C158.142 76.6129 152.961 71.7593 149.215 75.0259C148.297 75.8249 147.678 76.9607 146.771 77.7754C145.609 78.8204 144.077 79.2325 142.656 79.2121C140.055 79.1745 137.449 78.2846 135.242 77.1378C133.747 76.3544 132.141 76.1288 130.882 74.8927C130.819 74.83 129.942 73.7255 129.942 73.7271L172.275 58.6367Z" fill="#2A94F4"/>
<path d="M172.274 58.6367C171.451 58.9187 169.622 56.9728 168.998 56.5906C167.496 55.6662 165.672 54.9596 163.84 54.8515C162.617 54.7795 161.268 55.1194 160.279 56.0501C159.911 56.3979 159.587 56.8334 159.145 57.0433C158.493 57.3567 157.777 57.1029 157.265 56.6924C155.385 55.1978 153.721 54.098 151.086 55.6521C149.101 56.8224 146.486 59.0362 144.99 60.8144C144.459 61.4411 143.948 62.1617 143.234 62.508C142.587 62.8213 141.885 62.7837 141.197 62.837C137.227 63.1503 132.295 66.7835 130.819 70.8428C130.769 70.9822 129.879 73.7443 129.932 73.7271L172.274 58.6367Z" fill="#2A94F4"/>
<path d="M129.722 73.8022C129.727 73.8299 129.738 73.8561 129.754 73.879C129.771 73.9019 129.792 73.9208 129.816 73.9345C129.841 73.9482 129.868 73.9562 129.896 73.958C129.924 73.9598 129.952 73.9553 129.978 73.9448L172.319 58.8528C172.377 58.8311 172.425 58.7902 172.455 58.737C172.485 58.6838 172.496 58.6217 172.485 58.5614C172.481 58.5338 172.47 58.5075 172.454 58.4847C172.437 58.4618 172.416 58.4428 172.392 58.4291C172.367 58.4155 172.34 58.4074 172.312 58.4057C172.284 58.4039 172.256 58.4084 172.23 58.4188L129.89 73.5108C129.832 73.532 129.784 73.5728 129.753 73.626C129.723 73.6793 129.712 73.7417 129.722 73.8022Z" fill="#F5FAFA"/>
<path d="M140.627 69.9168C140.63 69.9354 140.636 69.9534 140.645 69.9701C140.659 69.9949 140.678 70.0164 140.7 70.0333C140.723 70.0502 140.749 70.0619 140.776 70.0677C140.804 70.0735 140.832 70.0733 140.86 70.067C140.887 70.0607 140.913 70.0484 140.935 70.0312C141.335 69.7633 150.727 63.4276 152.148 57.5383C152.157 57.5112 152.16 57.4824 152.156 57.4541C152.153 57.4257 152.143 57.3984 152.129 57.3741C152.114 57.3497 152.094 57.3288 152.07 57.3128C152.046 57.2968 152.02 57.2861 151.992 57.2814C151.931 57.2768 151.871 57.2944 151.822 57.3311C151.774 57.3677 151.74 57.4208 151.728 57.4804C150.356 63.1659 140.833 69.5862 140.738 69.6505C140.696 69.6794 140.663 69.7199 140.643 69.7672C140.623 69.8144 140.617 69.8664 140.627 69.9168Z" fill="#F5FAFA"/>
<path d="M153.326 65.3893C153.334 65.4322 153.356 65.4713 153.388 65.4999C153.421 65.5285 153.463 65.5447 153.507 65.546C153.577 65.546 160.641 65.7622 161.497 69.9108C161.501 69.9384 161.512 69.9646 161.528 69.9875C161.545 70.0104 161.566 70.0293 161.59 70.0428C161.615 70.0564 161.642 70.0642 161.67 70.0658C161.698 70.0673 161.726 70.0625 161.752 70.0518C161.81 70.0304 161.858 69.9895 161.888 69.9363C161.919 69.8831 161.93 69.8209 161.92 69.7604C161.008 65.3109 153.879 65.0932 153.575 65.0869C153.515 65.0888 153.456 65.1124 153.412 65.1535C153.367 65.1946 153.338 65.2505 153.331 65.311C153.325 65.3366 153.323 65.3631 153.326 65.3893Z" fill="#F5FAFA"/>
<path d="M136.008 71.9502C136.015 71.9931 136.037 72.0322 136.07 72.0608C136.103 72.0894 136.145 72.1057 136.188 72.1069C136.259 72.1069 143.323 72.3231 144.178 76.4717C144.183 76.4993 144.194 76.5256 144.21 76.5484C144.226 76.5713 144.248 76.5902 144.272 76.6038C144.297 76.6173 144.324 76.6251 144.352 76.6267C144.38 76.6282 144.408 76.6235 144.434 76.6127C144.491 76.5916 144.54 76.5508 144.571 76.4975C144.601 76.4442 144.612 76.3818 144.601 76.3213C143.69 71.8719 136.561 71.6541 136.259 71.6478C136.198 71.6496 136.139 71.6732 136.094 71.7143C136.049 71.7554 136.02 71.8113 136.013 71.8719C136.007 71.8975 136.005 71.924 136.008 71.9502Z" fill="#F5FAFA"/>
<path d="M167.687 84.6285C166.424 81.9808 163.391 81.362 161.591 78.9759C160.854 77.9998 160.275 76.8828 159.263 76.1558C157.704 75.0341 155.502 75.1265 153.632 75.6717C152.324 76.054 150.968 76.6384 149.637 76.3407C148.427 76.0728 147.523 75.1437 146.427 74.5938C143.357 73.0522 139.673 74.5766 136.799 75.7203C135.408 76.2733 134.029 76.9298 132.989 77.9826C132.926 78.0453 132.11 79.1153 132.109 79.1153L144.136 80.9797C151.984 82.1955 159.861 83.3125 167.685 84.6332L167.687 84.6285Z" fill="#FFCA12"/>
<path d="M167.688 84.6282C167.55 84.6062 166.136 85.8612 165.788 86.0382C164.841 86.5069 163.774 86.6774 162.728 86.527C161.569 86.3797 160.278 86.1479 159.322 86.7714C158.517 87.2962 158.21 88.2786 157.52 88.9319C156.551 89.85 155.014 89.9643 153.632 89.8468C151.048 89.6275 148.65 88.7674 146.461 87.4764C144.424 86.2716 142.858 86.4706 140.497 86.4032C137.706 86.3249 136.342 84.636 134.607 82.9032C133.824 82.1121 133.053 81.465 132.558 80.4357C132.521 80.3605 132.11 79.1228 132.109 79.1228L167.688 84.6282Z" fill="#FFCA12"/>
<path d="M131.932 79.0886C131.941 79.0431 131.967 79.003 132.006 78.9769C132.044 78.9508 132.091 78.9408 132.137 78.9491L167.715 84.4624C167.738 84.4643 167.761 84.4709 167.781 84.4818C167.802 84.4928 167.82 84.5078 167.835 84.5259C167.85 84.5441 167.86 84.565 167.867 84.5875C167.873 84.61 167.875 84.6335 167.872 84.6566C167.862 84.7018 167.835 84.7416 167.797 84.7673C167.759 84.7931 167.712 84.8028 167.666 84.7945L132.08 79.275C132.036 79.2695 131.996 79.2469 131.968 79.2121C131.94 79.1773 131.927 79.1329 131.932 79.0886Z" fill="#F5FAFA"/>
<path d="M141.094 80.508C141.097 80.4937 141.101 80.4796 141.106 80.4657C141.128 80.4241 141.164 80.3922 141.209 80.3768C141.253 80.3613 141.301 80.3634 141.344 80.3827C141.684 80.5268 149.698 83.9563 151.108 88.1159C151.115 88.1374 151.117 88.1601 151.115 88.1826C151.113 88.205 151.106 88.2267 151.095 88.2464C151.084 88.2661 151.069 88.2833 151.051 88.297C151.033 88.3107 151.012 88.3205 150.99 88.3259C150.946 88.3396 150.897 88.3357 150.856 88.3151C150.814 88.2944 150.781 88.2585 150.765 88.2146C149.403 84.1992 141.28 80.7243 141.199 80.6945C141.162 80.6808 141.131 80.6545 141.112 80.6204C141.093 80.5863 141.086 80.5465 141.094 80.508Z" fill="#F5FAFA"/>
<path d="M151.766 82.1607C151.772 82.1261 151.79 82.0943 151.815 82.0696C151.84 82.045 151.872 82.0286 151.907 82.0228C151.966 82.0134 157.793 80.9136 158.33 77.7379C158.34 77.6926 158.367 77.6528 158.405 77.6268C158.443 77.6007 158.49 77.5906 158.536 77.5985C158.559 77.6004 158.581 77.607 158.602 77.618C158.623 77.6289 158.641 77.6439 158.656 77.6621C158.67 77.6802 158.681 77.7012 158.687 77.7236C158.694 77.7461 158.695 77.7696 158.692 77.7928C158.117 81.2003 152.237 82.308 151.988 82.3534C151.943 82.3633 151.895 82.3549 151.855 82.33C151.816 82.3051 151.788 82.2657 151.777 82.2202C151.769 82.2013 151.766 82.1811 151.766 82.1607Z" fill="#F5FAFA"/>
<path d="M137.086 70.8929C137.086 83.569 132.246 93.845 126.276 93.845C120.305 93.845 115.466 83.569 115.466 70.8929C115.466 58.2168 121.558 44.8074 127.529 44.8074C133.5 44.8074 137.086 58.2168 137.086 70.8929Z" fill="white"/>
<path d="M138.784 79.2872C138.71 76.9894 138.571 74.6832 138.366 72.3687C137.216 59.5218 133.909 46.6498 127.484 35.7707C127.008 34.9675 126.517 34.1768 126.009 33.3987C121.673 26.7778 115.376 21.3774 108.071 19.9564C101.994 18.7752 95.7941 20.4813 90.3671 23.5175C84.9118 26.5726 80.7632 31.2053 75.7968 35.003C62.1681 45.4341 43.4868 45.6158 30.3939 56.8506C17.547 67.8786 13.0161 88.5292 18.3883 105.446C20.9389 113.524 24.8118 120.349 29.7719 125.813H114.53V128.986C127.247 120.2 132.196 109.031 134.303 103.635C137.276 96.0384 139.044 87.4858 138.784 79.2872Z" fill="#CCE9FF"/>
<path d="M92.9051 81.9975C93.126 82.7009 93.4158 83.4216 93.9892 83.9104C94.8306 84.6295 96.0635 84.6844 97.19 84.6938C98.4904 84.7126 99.9145 84.6938 100.906 83.8869C101.467 83.4326 101.812 82.7793 102.062 82.1165C102.489 80.9701 102.674 79.7478 102.606 78.5264C102.537 77.305 102.217 76.1109 101.664 75.0194C101.478 74.6093 101.206 74.2438 100.867 73.9478C100.397 73.5781 99.7876 73.4324 99.186 73.3775C97.6498 73.2413 96.1132 73.6337 94.8306 74.4899C93.6273 75.3046 92.6482 76.5861 92.2878 77.9679C91.9651 79.2182 92.5338 80.8146 92.9051 81.9975Z" fill="#0B4870"/>
<path d="M101.397 91.3387C100.759 91.768 98.8899 91.5032 98.2726 91.8573C97.6553 92.2113 95.5967 92.3163 94.9935 92.1518C94.9935 89.1015 96.3894 86.0167 96.4161 83.2107C97.6475 85.7911 98.9369 84.3732 100.189 82.6075C100.164 85.3571 101.365 88.586 101.397 91.3387Z" fill="#FFE3CA"/>
<path d="M96.3628 85.3976C96.4728 85.7005 96.6201 85.9883 96.8015 86.2546C97.1348 86.756 97.6394 87.1186 98.2209 87.2746C98.9102 87.4704 99.6106 87.1179 100.129 86.6776C100.298 86.5319 100.461 86.3768 100.621 86.2202C100.38 84.9793 100.178 83.7542 100.189 82.6167C98.9353 84.3824 97.6475 85.8003 96.4161 83.2199C96.4928 83.3766 96.3941 83.7949 96.3785 83.9735C96.355 84.2508 96.3064 84.525 96.2782 84.8023C96.2648 85.0045 96.2936 85.2072 96.3628 85.3976Z" fill="#FCD2B1"/>
<path d="M103.038 74.0623C103.038 73.9448 103.023 73.8273 103.007 73.7098C102.946 73.2398 102.694 72.8857 102.526 72.4439C102.366 72.0184 102.129 71.6263 101.826 71.2877C101.687 71.0795 101.534 70.8811 101.368 70.6939L101.281 70.567C101.024 70.1769 100.811 69.7554 100.497 69.4123C99.6012 68.441 98.1238 68.3156 96.803 68.3736C95.9852 68.4065 95.1549 68.4833 94.3997 68.7966C93.6446 69.11 92.9678 69.6928 92.7124 70.4699C92.6833 70.5621 92.6608 70.6564 92.645 70.7519C90.8637 71.883 89.8626 74.2111 90.3984 76.2729C90.5801 76.9685 90.9138 77.6829 90.7713 78.3754C90.8292 78.7828 90.8715 79.1932 90.9044 79.6037C91.2005 79.9327 91.6737 80.1003 91.9823 79.8074C92.2064 79.5943 92.2252 79.2512 92.2299 78.9426C92.2445 78.0318 92.2581 77.1221 92.2706 76.2134C92.2605 76.0437 92.2905 75.8741 92.3583 75.7183C92.4542 75.5757 92.5791 75.4551 92.7249 75.3642C93.2881 74.9398 93.7472 74.3928 94.0676 73.7646C94.6154 74.2781 95.2526 74.687 95.9476 74.971C97.1775 75.441 98.5327 75.4723 99.8377 75.3204C100.201 75.2803 100.561 75.2175 100.916 75.1323C100.991 76.3962 101.067 77.6594 101.143 78.9222C101.169 79.3922 101.279 79.9625 101.727 80.0941C102.031 80.185 102.365 80.0001 102.545 79.7384C102.706 79.4633 102.805 79.1565 102.836 78.8392C102.937 78.2328 103.018 77.6218 103.065 77.0093C103.09 76.6959 103.122 76.3826 103.131 76.0583C103.14 75.734 103.095 75.4739 103.078 75.1746C103.045 74.8033 103.057 74.432 103.038 74.0623Z" fill="#0B4870"/>
<path d="M102.349 78.8988C102.304 78.6811 102.23 78.4445 102.055 78.3364C101.95 78.28 101.83 78.2596 101.713 78.2784C101.441 78.316 101.193 78.4561 101.021 78.6701C100.993 78.6799 100.967 78.6936 100.944 78.7108C100.961 79.1244 100.956 79.538 100.956 79.9642C100.956 80.782 100.983 81.2677 100.867 82.0823C100.855 82.1622 100.759 82.5931 100.729 82.6651C100.834 82.6551 100.936 82.6254 101.03 82.5774C101.647 82.3455 102.114 81.7361 102.322 81.0483C102.511 80.3454 102.521 79.6062 102.349 78.8988Z" fill="#FFE3CA"/>
<path d="M90.4673 76.2072C90.4673 76.2072 91.3713 78.3379 91.7614 80.1678C92.1515 81.9977 93.1182 86.5568 96.109 85.5791C99.0998 84.6015 100.385 83.7947 100.751 82.8045C101.118 81.8144 101.867 76.3623 99.7124 74.5574C97.5582 72.7526 91.0736 71.7123 90.4673 76.2072Z" fill="#FFE3CA"/>
<path d="M99.3583 71.1013C99.3426 71.0058 99.3201 70.9116 99.291 70.8193C99.0372 70.0359 98.3509 69.4594 97.6036 69.146C96.8563 68.8327 96.0181 68.7544 95.2019 68.723C93.8796 68.6698 92.4022 68.7904 91.506 69.7618C91.1927 70.1049 90.9749 70.5263 90.7227 70.9164L90.635 71.0433C90.4703 71.231 90.3176 71.4288 90.1775 71.6355C89.9597 71.894 89.7325 72.1431 89.5038 72.3922C89.3111 72.6006 89.0542 72.8309 88.78 72.751L88.675 72.3656C88.4902 72.2779 88.3492 72.5552 88.3539 72.7588C88.3648 73.3652 88.6578 73.7678 88.9617 74.2597C89.3986 74.9264 89.7373 75.6525 89.9676 76.4155C90.0616 76.7665 90.1148 77.1519 90.201 77.5247C90.3154 78.0261 90.6271 78.5713 90.8888 79.0006C90.9091 78.6951 91.1896 75.5037 91.1003 75.4818C91.4546 75.5673 91.8141 75.6296 92.1766 75.6682C93.4832 75.8249 94.84 75.7841 96.0667 75.3204C96.7614 75.0358 97.3985 74.627 97.9467 74.114C98.2671 74.7422 98.7263 75.2892 99.2894 75.7136C99.4355 75.8041 99.5606 75.9248 99.656 76.0677C99.7178 76.2253 99.7477 76.3936 99.7437 76.5628C100.021 79.4925 100.895 80.384 101.191 80.0534C101.224 79.6429 101.191 79.1322 101.243 78.7248C101.279 77.9149 101.498 77.3587 101.68 76.6615C102.205 74.6013 101.14 72.2324 99.3583 71.1013Z" fill="#0B4870"/>
<path d="M82.9879 97.4486C82.9879 97.4486 77.4246 108.03 77.7238 109.302C78.0231 110.574 80.9403 111.496 87.1506 110.212C93.361 108.929 94.0441 108.572 94.0441 108.572L93.137 106.692C93.137 106.692 83.5598 108.259 83.7838 107.027C84.0078 105.796 88.3492 100.706 88.3492 100.706L82.9879 97.4486Z" fill="#FFE3CA"/>
<path d="M109.147 108.968C108.812 106.462 108.498 103.919 108.133 101.386C108.008 100.536 107.879 99.6873 107.746 98.8382C107.605 97.9687 107.471 97.0788 107.323 96.1748C106.91 93.6681 106.509 90.5457 105.454 88.2614C105.423 88.1936 105.398 88.1227 105.381 88.0499C105.327 88.0374 101.713 86.7261 100.587 86.6399C100.618 87.4718 101.121 90.7415 98.2773 90.6099C95.9022 90.5002 96.0949 87.9105 96.0479 86.6399C94.5439 86.7762 91.2585 88.0703 91.2475 88.0734C90.447 88.2442 89.9252 92.9521 89.8375 93.5569C89.4255 96.2046 88.9633 98.7975 88.6202 101.447L88.6108 101.524C88.3492 103.56 88.1079 105.597 87.8697 107.643C87.4394 111.326 87.0216 115.01 86.6164 118.696C86.5945 118.889 86.5741 119.08 86.5522 119.271L110.54 119.335C110.073 115.883 109.609 112.428 109.147 108.968Z" fill="#0E538C"/>
<path d="M109.147 108.968C108.812 106.462 108.498 103.919 108.133 101.386C108.008 100.537 107.879 99.6874 107.746 98.8382C107.605 97.9687 107.471 97.0788 107.323 96.1748C106.91 93.6681 106.509 90.5457 105.454 88.2614C105.423 88.1936 105.398 88.1228 105.381 88.0499C105.359 88.0499 104.768 87.8322 103.996 87.5799C104.005 87.6301 104.013 87.6823 104.019 87.7366C104.019 87.7914 104.019 87.945 104.049 87.992C104.04 87.9794 104 87.6692 104.04 87.9152C104.06 88.0374 104.079 88.1596 104.099 88.2802C104.146 88.5549 104.198 88.8281 104.256 89.0996C104.376 89.6746 104.511 90.248 104.646 90.823C104.947 92.0936 105.252 93.3657 105.454 94.6567C105.804 96.8689 106 99.4116 104.785 101.415C103.642 103.295 101.361 104.192 99.3521 104.809C98.4873 105.075 97.6068 105.288 96.7325 105.525C95.3476 105.899 93.9846 106.354 92.6168 106.788C91.0204 107.294 89.4208 107.779 87.8008 108.176C87.3903 111.688 86.9914 115.202 86.6039 118.716C86.5819 118.909 86.5616 119.1 86.5396 119.291L110.527 119.356C110.069 115.89 109.609 112.428 109.147 108.968Z" fill="#0B4870"/>
<path d="M91.2475 88.0797L91.2898 88.0703C90.4031 88.3445 88.7753 89.3754 87.912 89.8626C86.4911 90.6632 85.3035 91.9479 84.3823 93.4911C83.5529 94.9231 82.9086 96.4545 82.4646 98.0486C82.9136 98.8451 83.5371 99.5297 84.2883 100.051C85.3662 100.797 87.5313 101.588 87.746 101.682C88.2254 100.765 88.6703 100.209 88.8599 99.7187C89.1497 97.787 89.5242 95.5153 89.8265 93.5694C89.9284 92.9584 90.447 88.2505 91.2475 88.0797Z" fill="#0E538C"/>
<path d="M94.1585 106.432C94.1585 106.432 106.958 107.186 110.382 107.48C112.251 107.667 111.27 106.589 109.086 101.904C107.076 98.2084 114.041 98.0752 114.041 98.0752C114.041 98.0752 116.794 105.804 117.355 107.771C118.193 110.714 115.65 111.532 115.061 111.532C103.952 111.619 94.3606 108.665 94.3606 108.665C94.3606 108.665 92.5087 106.692 94.1585 106.432Z" fill="#FFE3CA"/>
<path d="M110.681 105.263C111.256 105.009 111.791 104.675 112.273 104.271C113.369 103.331 114.153 102.097 114.936 100.876C114.278 98.9964 113.728 97.45 113.728 97.45C113.728 97.45 106.763 97.5816 108.768 101.277C109.625 103.114 110.295 104.394 110.681 105.263Z" fill="#FCD2B1"/>
<path d="M112.345 93.2857C111.425 91.719 110.236 90.4186 108.815 89.6071C107.875 89.065 105.327 88.0404 105.381 88.0576C105.398 88.1281 106.91 93.6726 107.323 96.1825C107.471 97.0786 107.311 97.4907 107.452 98.3602C107.588 99.2046 109.105 102.548 109.821 103.428C110.778 103.159 112.484 102.072 113.134 101.567C113.753 101.11 114.298 100.559 114.748 99.9347C114.275 98.2913 113.172 94.691 112.345 93.2857Z" fill="#0B4870"/>
<path d="M112.119 100.817C112.98 100.321 113.773 99.7151 114.479 99.0153C114.339 98.5547 114.179 98.0377 114.009 97.4987C112.373 98.9632 110.485 100.118 108.436 100.906C108.647 101.361 108.871 101.815 109.086 102.219C110.194 101.94 111.132 101.408 112.119 100.817Z" fill="#2A94F4"/>
<path d="M100.112 110.089H81.9006C81.8295 110.083 81.7609 110.059 81.7014 110.02C81.6419 109.981 81.5935 109.927 81.5607 109.863L76.2339 98.6628C76.1743 98.539 76.2339 98.4388 76.3592 98.4388H94.5768C94.6479 98.4439 94.7165 98.4672 94.776 98.5065C94.8355 98.5457 94.884 98.5995 94.9168 98.6628L100.244 109.863C100.302 109.982 100.245 110.089 100.112 110.089Z" fill="#F7F7F7"/>
<path d="M89.9394 104.597C90.2527 105.265 89.6918 105.805 88.6766 105.805C87.6614 105.805 86.5819 105.265 86.2639 104.597C85.9458 103.93 86.513 103.389 87.5282 103.389C88.5434 103.389 89.6229 103.93 89.9394 104.597Z" fill="#D3D3D3"/>
<path d="M81.6688 110.089H109.487C109.512 110.089 109.536 110.094 109.559 110.103C109.582 110.113 109.603 110.126 109.62 110.144C109.637 110.161 109.651 110.182 109.661 110.205C109.67 110.228 109.675 110.252 109.675 110.277V110.626C109.675 110.651 109.67 110.675 109.661 110.698C109.651 110.721 109.637 110.742 109.62 110.759C109.603 110.777 109.582 110.79 109.559 110.8C109.536 110.809 109.512 110.814 109.487 110.814H82.1325C82.0079 110.814 81.8883 110.765 81.8002 110.677C81.712 110.588 81.6625 110.469 81.6625 110.344V110.083L81.6688 110.089Z" fill="#F2F0F0"/>
<path d="M109.487 110.089H100.323V110.814H109.487C109.512 110.814 109.536 110.809 109.559 110.8C109.582 110.791 109.602 110.777 109.62 110.759C109.637 110.742 109.651 110.721 109.661 110.698C109.67 110.675 109.675 110.651 109.675 110.626V110.277C109.675 110.252 109.67 110.228 109.661 110.205C109.651 110.182 109.637 110.161 109.62 110.144C109.602 110.127 109.582 110.113 109.559 110.103C109.536 110.094 109.512 110.089 109.487 110.089Z" fill="#F2F0F0"/>
<path d="M98.1629 90.533C98.1629 90.533 100.983 92.1404 101.325 92.2563C101.666 92.3723 102.341 92.2767 102.434 91.5482C102.526 90.8197 103.14 87.3181 103.14 87.3181L100.522 85.6465C100.522 85.6465 100.739 88.1062 100.139 88.9882C99.5385 89.8703 98.1629 90.533 98.1629 90.533Z" fill="#2A94F4"/>
<path d="M98.5452 90.5454C98.5452 90.5454 95.7346 92.1529 95.3852 92.2688C95.0358 92.3847 94.3684 92.2892 94.2744 91.5606C94.1804 90.8321 93.6305 87.2397 93.6305 87.2397L96.0636 85.9299C96.0636 85.9299 95.9664 88.1233 96.5712 89.0101C97.1759 89.8968 98.5452 90.5454 98.5452 90.5454Z" fill="#2A94F4"/>
<path d="M136.121 110.831H22.269V113.076H136.121V110.831Z" fill="#492817"/>
<path d="M125.868 113.074H27.8872V132.578H125.868V113.074Z" fill="#D3D3D3"/>
<path d="M125.868 132.579L29.797 113.077H125.868V132.579Z" fill="#F2F2F2"/>
<path d="M31.3433 132.542C31.077 128.975 30.7511 125.387 30.3595 121.621C30.2028 120.158 30.0461 118.674 29.5213 117.301C27.8935 113.071 22.5714 110.696 18.2928 112.332C14.8053 113.665 12.4067 117.065 11.7502 120.374C10.9669 124.331 10.6175 128.412 10.5423 132.542H31.3433Z" fill="#FFB27D"/>
<path d="M19.5837 132.542C21.5264 127.468 24.4405 122.918 29.5291 120.972C29.7669 120.883 30.0116 120.814 30.2608 120.765C30.126 119.584 29.9474 118.408 29.5166 117.301C27.8888 113.071 22.5667 110.696 18.2881 112.332C14.8053 113.665 12.4067 117.065 11.7502 120.374C10.9669 124.331 10.6175 128.412 10.5423 132.542H19.5837Z" fill="#FFB27D"/>
<path d="M44.5067 105.81C44.4988 105.832 44.4988 105.856 44.5067 105.877C44.5212 105.896 44.5417 105.909 44.5647 105.915C45.1099 106.095 45.6003 106.089 46.169 106.167C46.3883 106.199 46.6735 106.264 46.8912 106.311C47.109 106.358 47.286 106.568 47.4834 106.636C48.1081 106.852 48.7517 107.01 49.4058 107.106C49.7575 107.177 50.1204 107.171 50.4696 107.088C50.6012 107.051 51.9329 106.335 51.9783 106.305C52.2394 106.122 52.4805 105.912 52.6974 105.678C52.7018 105.666 52.7054 105.652 52.7084 105.639C53.6594 108.085 54.1513 107.499 54.1513 107.499C54.1513 107.499 53.4635 104.024 53.3084 103.944C53.1533 103.864 52.3355 103.519 52.3355 103.519L50.4241 103.049C50.3528 103.017 50.2782 102.992 50.2017 102.976C50.1562 102.976 50.1092 102.976 50.0622 102.963H50.0372C49.3447 102.907 48.5786 103.252 47.9033 103.308C46.8942 103.409 45.9172 103.72 45.0347 104.22C44.806 104.356 44.8044 104.619 44.7433 104.861C44.665 105.177 44.5866 105.494 44.5067 105.81Z" fill="#FCD2B1"/>
<path d="M46.0076 103.673C41.9342 104.885 35.0047 106.41 32.1768 103.304C30.9328 101.938 29.0669 98.1117 27.6788 94.3736C27.5018 93.9036 27.1822 92.9056 26.7388 91.6883C26.4129 91.5081 26.087 91.3279 25.7549 91.1603C24.8854 90.7216 23.7965 90.1952 22.7907 90.3957C21.318 90.6903 20.7368 92.1598 20.5488 93.584C22.3505 97.731 26.0322 105.829 27.7305 107.562C28.2827 108.129 28.9164 108.612 29.6105 108.992C31.0785 109.793 32.7612 110.07 34.4187 110C36.1421 109.928 37.8326 109.513 39.4525 108.949C40.9957 108.411 42.4747 108.029 43.9223 107.277C44.5161 106.964 45.5031 106.65 46.0875 106.329C46.1846 105.116 46.2598 104.375 46.0076 103.673Z" fill="#0B4870"/>
<path d="M16.303 109.39C16.361 107.892 16.1761 106.398 15.9897 104.911C15.7108 102.663 15.4132 100.352 14.3118 98.3746C13.5378 96.985 12.1811 90.3704 14.6674 86.966C15.6074 85.6766 21.5953 86.2939 24.8917 87.3968C27.8684 88.3948 27.259 89.0089 29.1218 93.6135C29.8095 94.6302 30.6399 95.9635 31.1099 97.1229C31.8478 98.9371 29.7578 102.719 28.9855 104.016C29.0779 106.866 29.4257 109.331 29.092 113.152C29.0246 113.913 30.9971 122.132 30.6242 122.798C28.4481 126.683 19.1779 123.738 18.3774 120.448C16.2294 123.395 11.227 121.745 11.2426 121.574C11.7252 116.528 16.2169 111.604 16.303 109.39Z" fill="#2A94F4"/>
<path d="M26.2751 91.2351C26.5696 90.9672 26.4631 90.3828 26.4521 90.0413L26.3957 88.2443C26.3816 87.7602 25.2677 87.522 24.8948 87.3967C22.4649 86.5836 18.5779 86.0352 16.3234 86.3204C16.9062 86.6682 17.4201 87.1774 17.9528 87.5518C17.9731 87.5659 17.9872 87.5816 18.0045 87.5957C18.0666 87.6129 18.1254 87.6405 18.1784 87.6771C18.8677 88.1471 19.402 88.7315 20.1744 89.0668C21.1692 89.4992 22.1766 89.9112 23.1511 90.3781C23.6534 90.6068 24.1693 90.8046 24.6958 90.9703C25.0577 91.0909 25.7612 91.4842 26.1341 91.3228C26.1863 91.3029 26.2342 91.2731 26.2751 91.2351Z" fill="#FFE3CA"/>
<path d="M43.8957 108.307C43.8912 108.318 43.8897 108.331 43.8913 108.343C43.8929 108.356 43.8976 108.367 43.905 108.377C43.9123 108.387 43.9221 108.395 43.9333 108.4C43.9446 108.406 43.957 108.408 43.9694 108.407C44.5537 108.525 45.066 108.454 45.6551 108.462C45.8854 108.462 46.1878 108.496 46.4181 108.518C46.6484 108.54 46.8584 108.731 47.0699 108.777C47.7402 108.916 48.422 108.994 49.1066 109.009C49.4792 109.036 49.8533 108.983 50.2033 108.852C50.3333 108.796 51.6133 107.887 51.6587 107.859C51.9078 107.636 52.1321 107.386 52.3277 107.115C52.3284 107.101 52.3284 107.087 52.3277 107.074C53.6234 109.472 54.0511 108.797 54.0511 108.797C54.0511 108.797 52.8948 105.304 52.7256 105.242C52.5564 105.181 51.6665 104.929 51.6665 104.929L49.6377 104.699C49.5595 104.675 49.4792 104.659 49.398 104.652C49.351 104.652 49.3008 104.652 49.2523 104.652H49.2256C48.505 104.683 47.7592 105.136 47.0714 105.278C46.0435 105.512 45.0757 105.958 44.2294 106.587C44.0117 106.757 44.043 107.03 44.0117 107.285L43.8957 108.307Z" fill="#FFE3CA"/>
<path d="M16.2075 87.6565C19.9676 87.2617 24.135 96.878 25.0734 98.6813C26.9864 102.355 29.4038 106.06 30.8608 107.309C34.1759 110.148 41.1258 107.684 45.1679 105.912C45.5172 106.604 45.536 107.376 45.5971 108.639C45.0378 109.053 44.0602 109.499 43.4884 109.893C42.0909 110.855 40.6166 111.439 39.1016 112.191C37.5036 112.974 35.8116 113.628 34.0459 113.914C32.346 114.199 30.5757 114.13 28.9588 113.494C28.1938 113.19 27.4779 112.775 26.8344 112.261C24.301 110.251 17.0723 97.8807 16.314 96.4958C13.6303 91.6077 13.7556 87.915 16.2075 87.6565Z" fill="#0E538C"/>
<path d="M17.3903 76.2167C17.5893 75.5368 17.9763 74.9305 18.3742 74.3461C18.7722 73.7617 19.1685 73.2134 19.7075 72.7888C20.3639 72.2702 21.1739 71.9866 21.9808 71.7704C23.596 71.3396 25.3993 71.1579 26.8673 71.9569C27.22 72.1301 27.5186 72.3967 27.7305 72.7277C27.8624 72.9847 27.9538 73.2606 28.0016 73.5455C28.3791 75.2689 28.6455 77.0377 28.5405 78.8018C28.4355 80.5659 27.942 82.3378 26.9111 83.7729C26.6182 84.1787 26.2719 84.5656 25.8145 84.7677C25.4422 84.91 25.0456 84.9776 24.6473 84.9667C24.5172 84.9667 24.3888 84.9589 24.2603 84.9573C24.135 85.7062 24.0253 86.4786 23.9031 87.3074C24.6598 87.5032 25.4337 87.7382 25.5043 87.8917C25.6688 88.2505 25.8505 89.9801 25.5246 90.4768C23.8984 89.7201 21.3321 88.7033 19.709 88.1722C19.3628 88.0594 19.3456 87.7194 19.2939 87.3591C19.2735 87.2118 19.2939 87.3591 19.9722 87.2024C19.9393 86.4598 19.8265 85.1657 19.7341 83.9437C19.1153 83.6758 18.509 83.3311 18.1674 82.8783C17.8662 82.4422 17.6592 81.9481 17.5595 81.4275C17.3092 80.3156 17.1877 79.1785 17.1976 78.0388C17.1735 77.4253 17.2384 76.8116 17.3903 76.2167Z" fill="#FFE3CA"/>
<path d="M27.8543 70.8522C26.0369 69.6192 23.9376 68.7262 21.7442 68.604C19.5508 68.4818 17.2619 69.1994 15.7406 70.7849C14.2993 72.2873 13.6804 74.6076 14.3807 76.555C14.108 76.5146 13.8321 76.4999 13.5566 76.5111C12.8297 76.5206 12.1157 76.7043 11.4745 77.047C9.89371 77.9368 9.57097 80.337 10.4499 81.9319C10.4499 81.9476 10.4499 81.9632 10.4389 81.9789C9.74644 82.2531 9.20436 82.8672 9.02889 83.9295C8.85185 85.0528 9.41586 86.2983 10.4483 86.7746C10.7896 86.92 11.1577 86.9918 11.5286 86.9853C11.8996 86.9789 12.265 86.8942 12.601 86.737C12.8579 87.8337 13.9123 88.6264 15.0152 88.9116C15.9145 89.1446 16.8617 89.1149 17.7446 88.8259C18.6275 88.537 19.4089 88.0009 19.9963 87.2812C20.5837 86.5615 20.9524 85.6885 21.0587 84.7657C21.1649 83.8428 21.0043 82.9088 20.5958 82.0745C20.2339 81.335 19.6903 80.6989 19.2939 79.9767C18.3539 78.2737 18.9132 77.3133 20.1524 76.8198C20.1611 76.8239 20.1695 76.8286 20.1775 76.8339C20.3561 76.9765 21.3165 78.728 21.2021 78.833C21.4591 78.598 21.4747 78.2063 21.5437 77.8679C21.6721 77.2412 22.0137 76.7148 22.4476 76.2338C23.5647 75.908 24.4029 75.4254 25.6045 74.5105C26.8062 73.5955 28.0752 72.339 27.8543 70.8522Z" fill="#FFB27D"/>
<path d="M65.278 110.567H56.7693V109.89H65.278C65.4237 109.89 68.908 109.788 69.7791 103.936C70.6972 97.7574 74.545 73.2683 74.5842 73.0224L75.2516 73.1273C75.2124 73.3733 71.3662 97.8592 70.4465 104.035C69.4861 110.492 65.4487 110.567 65.278 110.567Z" fill="#CCC6C6"/>
<path d="M55.5472 109.89H47.1106V110.565H55.5472V109.89Z" fill="#CCC6C6"/>
<path d="M70.224 101.522C71.5213 93.0191 74.628 73.2474 74.6625 73.0249L73.9951 72.92C73.9606 73.1362 70.8288 93.0614 69.541 101.522H70.224Z" fill="#0B4870"/>
<path d="M72.6571 98.8068C73.7287 91.9133 74.8975 84.4135 75.9581 77.6329C75.9715 77.5488 75.968 77.463 75.9479 77.3804C75.9278 77.2977 75.8915 77.2199 75.841 77.1514C75.7906 77.0829 75.7271 77.0251 75.6541 76.9813C75.5812 76.9376 75.5003 76.9087 75.4161 76.8965C75.1654 76.862 74.9147 76.8323 74.6625 76.8088C73.5423 83.9749 72.2936 91.965 71.1625 99.258C71.3912 99.2956 71.62 99.3348 71.8487 99.3771C71.9394 99.3941 72.0325 99.3928 72.1227 99.3732C72.2128 99.3536 72.2981 99.3161 72.3735 99.2629C72.4489 99.2097 72.5128 99.142 72.5616 99.0636C72.6103 98.9853 72.6428 98.8979 72.6571 98.8068Z" fill="white"/>
<path d="M62.9702 81.4684H55.2872C53.124 81.4684 51.3704 83.222 51.3704 85.3852V89.1876C51.3704 91.3507 53.124 93.1043 55.2872 93.1043H62.9702C65.1334 93.1043 66.887 91.3507 66.887 89.1876V85.3852C66.887 83.222 65.1334 81.4684 62.9702 81.4684Z" fill="#0B4870"/>
<path d="M57.9521 84.1506L61.7466 86.7716C61.8041 86.8113 61.8513 86.864 61.8846 86.9253C61.9178 86.9867 61.9361 87.0551 61.9379 87.1248C61.9398 87.1946 61.9251 87.2638 61.8951 87.3269C61.8652 87.3899 61.8207 87.445 61.7654 87.4876L57.9678 90.4095C57.9022 90.4597 57.8238 90.4906 57.7416 90.4986C57.6594 90.5067 57.5766 90.4917 57.5025 90.4552C57.4284 90.4187 57.3659 90.3622 57.3222 90.2921C57.2784 90.2221 57.2551 90.1411 57.2549 90.0585V84.514C57.2549 84.433 57.2772 84.3535 57.3192 84.2842C57.3612 84.2149 57.4215 84.1584 57.4933 84.121C57.5652 84.0835 57.646 84.0664 57.7269 84.0717C57.8077 84.0769 57.8856 84.1042 57.9521 84.1506Z" fill="#F2F2F2"/>
<path d="M38.5125 52.8676C37.2184 48.3242 37.8749 43.1259 40.214 39.394C41.0756 38.0169 42.1708 36.8168 43.504 36.1463C44.6681 35.5572 45.959 35.3974 47.2281 35.2501C53.9534 34.4783 60.699 33.9179 67.4651 33.569C68.8359 33.4985 70.293 33.4594 71.5056 34.2882C73.0723 35.3582 73.8055 37.5782 74.2959 39.6416C75.25 43.6601 75.6652 48.2913 73.6692 51.5955C71.4476 55.2803 67.1439 55.9368 63.3133 56.2956L51.2968 57.4126C49.6549 57.5693 47.7106 57.4283 47.1858 59.3318C46.6186 61.3952 49.0172 63.2204 44.7401 61.3685C42 60.1825 39.3491 55.8005 38.5125 52.8676Z" fill="#E28112"/>
<path d="M87.4216 54.7341C87.4216 52.5783 87.4028 50.3802 86.7292 48.331C86.0555 46.2817 84.6016 44.3719 82.5492 43.7108C80.3559 43.0105 78.0857 43.7484 75.9691 44.3578C74.0452 44.9125 72.1385 45.2195 70.1567 45.4671C67.9492 45.7428 65.6133 46.2034 63.8241 47.6056C60.6092 50.1123 60.3241 54.5539 62.0506 58.0179C62.3713 58.7159 62.824 59.3453 63.3839 59.8713C64.4899 60.841 65.9485 60.6906 67.3225 60.7831C69.0595 60.899 70.798 60.9847 72.5381 61.04C75.7529 61.1445 78.9683 61.1445 82.1842 61.04C82.6542 61.9926 83.4798 63.0642 84.8053 63.2882C86.842 63.6313 84.8366 62.7305 84.6188 60.6875C86.889 59.8352 87.4295 57.4805 87.4216 54.7341Z" fill="#2A94F4"/>
<path d="M40.7106 68.5899C40.3389 68.6195 39.9814 68.746 39.6738 68.9569C39.3662 69.1678 39.1193 69.4556 38.9578 69.7918C38.7962 70.1279 38.7256 70.5005 38.7531 70.8724C38.7805 71.2443 38.905 71.6026 39.1142 71.9113L36.3662 73.9292C36.0467 73.6288 35.6425 73.434 35.2085 73.3715C34.7744 73.309 34.3316 73.3817 33.9404 73.5798C33.5491 73.7779 33.2284 74.0917 33.0219 74.4785C32.8153 74.8654 32.733 75.3064 32.7861 75.7417C32.8391 76.1771 33.025 76.5854 33.3184 76.9113C33.6119 77.2372 33.9986 77.4648 34.4259 77.5631C34.8533 77.6614 35.3006 77.6256 35.7069 77.4607C36.1132 77.2957 36.4588 77.0096 36.6967 76.6412L39.3977 77.7567C39.3542 77.9577 39.3404 78.1642 39.357 78.3692C39.396 78.8759 39.6137 79.3522 39.9713 79.7132C40.329 80.0742 40.8032 80.2964 41.3095 80.3401C41.8157 80.3838 42.3211 80.2463 42.7353 79.9519C43.1495 79.6576 43.4457 79.2257 43.571 78.7332C43.6963 78.2408 43.6425 77.7198 43.4193 77.2633C43.1961 76.8069 42.818 76.4445 42.3524 76.241C41.8868 76.0375 41.364 76.006 40.8773 76.1522C40.3907 76.2984 39.9718 76.6127 39.6954 77.0391L36.9929 75.9252C37.0365 75.7236 37.0502 75.5167 37.0336 75.3111C37.0118 75.0482 36.9417 74.7917 36.8268 74.5543L39.6656 72.4706C39.9469 72.6659 40.2709 72.7908 40.6105 72.8346C40.9501 72.8784 41.2952 72.8399 41.6168 72.7224C41.9384 72.6048 42.227 72.4117 42.4583 72.1592C42.6896 71.9068 42.8568 71.6024 42.9458 71.2718C43.0348 70.9411 43.0429 70.594 42.9696 70.2595C42.8963 69.9251 42.7437 69.6131 42.5245 69.35C42.3054 69.087 42.0262 68.8804 41.7105 68.7479C41.3948 68.6153 41.0519 68.5606 40.7106 68.5884V68.5899Z" fill="#2A94F4"/>
<path d="M110.498 43.4098C113.558 43.4098 116.039 40.8685 116.039 37.7337C116.039 34.5988 113.558 32.0575 110.498 32.0575C107.437 32.0575 104.956 34.5988 104.956 37.7337C104.956 40.8685 107.437 43.4098 110.498 43.4098Z" fill="white"/>
<path d="M117.595 32.5573C117.595 31.2193 116.684 30.3013 115.351 30.3013H105.638C105.48 30.2965 105.323 30.3075 105.168 30.3342C104.665 30.4218 104.211 30.6866 103.887 31.0808C103.563 31.4749 103.391 31.9721 103.402 32.4821C103.402 34.652 103.416 36.8203 103.419 38.9902C103.419 40.0618 103.4 41.135 103.4 42.2066C103.4 43.568 104.301 44.4736 105.66 44.4799C106.658 44.4799 107.654 44.4799 108.652 44.4799C108.743 44.4679 108.835 44.4879 108.913 44.5365C108.991 44.5851 109.049 44.6592 109.078 44.7462C109.474 45.6267 109.89 46.4993 110.299 47.3751C110.344 47.4707 110.396 47.5631 110.487 47.7386C110.59 47.5616 110.659 47.4582 110.711 47.3485C111.116 46.4821 111.525 45.6173 111.919 44.7462C111.947 44.6592 112.005 44.5849 112.083 44.5362C112.16 44.4876 112.252 44.4676 112.343 44.4799C113.371 44.4908 114.399 44.4955 115.425 44.4799C116.692 44.4642 117.592 43.5398 117.592 42.2693C117.592 40.9094 117.592 39.5495 117.592 38.1958C117.589 36.3127 117.591 34.4332 117.595 32.5573ZM110.498 41.7131C109.619 41.7128 108.761 41.4521 108.031 40.964C107.301 40.476 106.732 39.7824 106.397 38.9711C106.061 38.1598 105.973 37.2671 106.145 36.4059C106.316 35.5447 106.739 34.7537 107.36 34.1329C107.981 33.5122 108.772 33.0894 109.633 32.9182C110.495 32.7471 111.387 32.8351 112.199 33.1712C113.01 33.5073 113.703 34.0764 114.191 34.8065C114.679 35.5366 114.939 36.395 114.939 37.2731C114.939 37.8563 114.824 38.4338 114.601 38.9725C114.378 39.5113 114.051 40.0009 113.638 40.4132C113.226 40.8255 112.736 41.1525 112.197 41.3756C111.658 41.5986 111.081 41.7133 110.498 41.7131Z" fill="#0B4870"/>
<path d="M108.594 36.8975C108.746 36.8978 108.895 36.853 109.021 36.7688C109.148 36.6846 109.246 36.5647 109.305 36.4243C109.363 36.284 109.378 36.1295 109.349 35.9804C109.319 35.8314 109.246 35.6945 109.138 35.587C109.031 35.4795 108.894 35.4064 108.745 35.3768C108.596 35.3473 108.441 35.3626 108.301 35.4209C108.161 35.4792 108.041 35.5778 107.957 35.7043C107.872 35.8308 107.828 35.9794 107.828 36.1314C107.828 36.3346 107.909 36.5294 108.052 36.6731C108.196 36.8168 108.391 36.8975 108.594 36.8975Z" fill="#0B4870"/>
<path d="M112.497 35.3636C112.345 35.3636 112.196 35.4086 112.07 35.493C111.944 35.5773 111.846 35.6972 111.787 35.8375C111.729 35.9778 111.714 36.1322 111.744 36.2811C111.773 36.43 111.846 36.5668 111.954 36.6741C112.061 36.7815 112.198 36.8546 112.347 36.8842C112.496 36.9139 112.65 36.8987 112.79 36.8405C112.931 36.7824 113.051 36.684 113.135 36.5578C113.219 36.4316 113.264 36.2831 113.264 36.1313C113.264 35.9277 113.183 35.7324 113.039 35.5885C112.896 35.4445 112.7 35.3636 112.497 35.3636Z" fill="#0B4870"/>
<path d="M112.907 38.2603C112.885 38.2472 112.86 38.2387 112.835 38.2352C112.809 38.2318 112.784 38.2334 112.759 38.2401C112.734 38.2469 112.711 38.2585 112.69 38.2743C112.67 38.2901 112.653 38.3099 112.641 38.3323C112.42 38.7196 112.101 39.0416 111.716 39.2655C111.331 39.4895 110.893 39.6075 110.447 39.6075C110.002 39.6075 109.564 39.4895 109.179 39.2655C108.794 39.0416 108.474 38.7196 108.254 38.3323C108.228 38.2885 108.185 38.2568 108.136 38.2439C108.086 38.2311 108.034 38.2381 107.989 38.2634C107.945 38.2888 107.912 38.3305 107.898 38.3797C107.884 38.4289 107.89 38.4816 107.914 38.5266C108.169 38.9738 108.537 39.3455 108.982 39.6041C109.427 39.8627 109.933 39.999 110.447 39.999C110.962 39.999 111.468 39.8627 111.912 39.6041C112.357 39.3455 112.726 38.9738 112.981 38.5266C113.006 38.4815 113.013 38.4281 112.999 38.3782C112.985 38.3283 112.952 38.2859 112.907 38.2603Z" fill="#0B4870"/>
<path d="M126.022 64.8398C126.63 64.3604 126.904 63.7055 126.649 63.1713C126.561 63.0061 126.438 62.8621 126.289 62.7492C126.14 62.6364 125.968 62.5575 125.785 62.518C126.36 61.9978 126.583 61.2568 126.28 60.6176C125.978 59.9783 125.224 59.6149 124.41 59.654C124.491 59.3407 124.468 58.9287 124.132 58.432C122.487 56.8559 119.309 59.0963 119.309 59.0963C119.682 57.4654 118.271 53.7476 116.761 54.3821C115.251 55.0166 116.396 56.8418 116.396 56.8418L114.651 61.6171C114.608 61.7347 114.612 61.8638 114.66 61.979L118.148 70.1368C118.177 70.2074 118.233 70.2635 118.303 70.2929C118.374 70.3223 118.453 70.3225 118.524 70.2935C119.812 69.7608 123.782 68.6202 125.485 67.7319C126.063 67.4295 126.957 66.5381 126.542 65.4774C126.438 65.2169 126.256 64.9944 126.022 64.8398Z" fill="white"/>
<path d="M117.95 71.2592L115.412 72.3261C115.237 72.3997 115.039 72.4007 114.863 72.3291C114.687 72.2575 114.547 72.1189 114.472 71.9439L110.499 62.3541L113.927 61.6805C114.463 61.6554 114.71 61.7008 114.867 62.0627L118.337 70.3223C118.41 70.4979 118.41 70.6952 118.338 70.8708C118.265 71.0464 118.126 71.1861 117.95 71.2592Z" fill="#2A94F4"/>
<path d="M106.187 61.3159C106.546 58.5766 104.617 56.0648 101.877 55.7056C99.138 55.3464 96.6262 57.2759 96.267 60.0152C95.9078 62.7546 97.8373 65.2664 100.577 65.6256C103.316 65.9848 105.828 64.0553 106.187 61.3159Z" fill="#0B4870"/>
<path d="M102.139 58.7372C102.139 58.7372 101.22 58.7372 101.043 59.9561C100.916 58.7341 99.9458 58.7372 99.9458 58.7372C99.9458 58.7372 98.4105 58.7294 98.4105 60.2632C98.4105 61.797 101.052 62.9642 101.052 62.9642C101.052 62.9642 103.676 61.797 103.676 60.2632C103.675 58.5947 102.139 58.7372 102.139 58.7372Z" fill="white"/>
<path d="M126.995 114.861C126.995 114.861 123.54 114.781 123.536 117.825C123.531 120.869 125.757 122.838 125.757 122.838L126.995 114.861Z" fill="#FCD2B1"/>
<path d="M129.063 89.3015C129.063 89.3015 126.609 90.9904 125.746 102.462C124.883 113.933 125.013 123.377 125.179 123.413C125.345 123.449 128.674 124.032 128.674 124.032L131.303 105.998L129.063 89.3015Z" fill="#FCD2B1"/>
<path d="M132.641 86.8298C132.641 86.8298 127.059 88.2053 125.962 96.056L130.819 96.2127L132.641 86.8298Z" fill="#FFB27D"/>
<path d="M132.492 132.543L136.104 120.769L136.019 132.543H147.143C147.909 127.39 148.479 122.732 148.553 119.874C148.811 110.161 144.677 106.59 144.677 106.59H130.349C126.531 109.543 123.894 126.053 123.894 126.053L122.641 132.543H132.492Z" fill="#2A94F4"/>
<path d="M142.48 107.076C142.48 107.076 147.974 108.642 144.214 132.456" stroke="#CCE9FF" stroke-width="0.75" stroke-miterlimit="10"/>
<path d="M136.104 120.769V106.666" stroke="#CCE9FF" stroke-width="0.75" stroke-miterlimit="10"/>
<path d="M133.559 106.666V114.906C133.559 115.59 133.831 116.245 134.314 116.728C134.797 117.211 135.452 117.483 136.135 117.484H136.155" stroke="#CCE9FF" stroke-width="0.75" stroke-miterlimit="10"/>
<path d="M138.496 86.1765C138.496 86.1765 144.279 87.3437 145.894 90.6291L145.303 106.434L130.305 106.692L129.69 89.1454C129.69 89.1454 131.894 86.8863 135.112 85.976L138.496 86.1765Z" fill="#FFB27D"/>
<path d="M143.108 90.6864C142.612 87.0454 151.623 98.2473 145.859 109.512C143.979 112.489 138.966 106.83 138.966 106.83L142.756 104.113L143.108 90.6864Z" fill="#FFE3CA"/>
<path d="M136.657 86.3326C136.657 86.3326 147.739 86.1759 148.145 96.3594L140.967 96.8091L136.657 86.3326Z" fill="#FFB27D"/>
<path d="M143.433 103.001L129.417 101.315L128.499 104.048L141.747 109.567C142.271 109.773 142.837 109.847 143.396 109.782C143.955 109.716 144.49 109.514 144.952 109.192C145.413 108.87 145.789 108.44 146.044 107.938C146.299 107.436 146.426 106.879 146.414 106.316C146.397 105.498 146.086 104.713 145.539 104.105C144.992 103.497 144.244 103.105 143.433 103.001Z" fill="#FFE3CA"/>
<path d="M130.169 101.522L128.84 99.749C128.427 99.1934 127.827 98.8044 127.152 98.6523L125.361 98.2481L127.178 102.201L130.169 101.522Z" fill="#FFE3CA"/>
<path d="M124.047 103.262L127.655 102.022C127.779 101.979 127.845 101.844 127.803 101.72L125.467 94.9215C125.425 94.7971 125.289 94.7309 125.165 94.7737L121.557 96.0131C121.432 96.0559 121.366 96.1914 121.409 96.3157L123.744 103.114C123.787 103.238 123.923 103.304 124.047 103.262Z" fill="#D3D3D3"/>
<path d="M130.169 101.522L127.274 100.171L123.263 100.496C123.218 100.489 123.173 100.493 123.13 100.506C123.086 100.519 123.046 100.541 123.012 100.57C122.979 100.6 122.951 100.637 122.933 100.678C122.915 100.719 122.905 100.764 122.906 100.809C122.986 101.766 123.432 104.298 125.915 104.694C128.988 105.185 130.266 104.24 130.266 104.24L130.169 101.522Z" fill="#FFE3CA"/>
<path d="M131.541 78.0387C131.542 78.4072 131.433 78.7676 131.228 79.0742C131.024 79.3808 130.733 79.6198 130.392 79.7609C130.052 79.9021 129.677 79.9392 129.316 79.8673C128.954 79.7955 128.622 79.6181 128.361 79.3574C128.101 79.0968 127.923 78.7648 127.852 78.4033C127.78 78.0418 127.817 77.6671 127.958 77.3267C128.099 76.9862 128.338 76.6953 128.645 76.4907C128.951 76.2862 129.312 76.1772 129.68 76.1775C130.174 76.1775 130.647 76.3736 130.996 76.7226C131.345 77.0716 131.541 77.5451 131.541 78.0387Z" fill="#FCD2B1"/>
<path d="M128.746 75.9112C129.339 79.8796 131.997 83.1744 136.01 83.1744C137.936 83.1744 139.783 82.4091 141.145 81.047C142.508 79.6849 143.273 77.8375 143.273 75.9112C143.273 73.9848 142.508 72.1374 141.145 70.7753C139.783 69.4132 137.936 68.6479 136.01 68.6479C131.997 68.6479 128.092 71.5416 128.746 75.9112Z" fill="#0B4870"/>
<path d="M138.693 86.0491L138.664 78.6026L133.326 78.6277L133.354 86.0726C133.354 86.4238 133.424 86.7716 133.558 87.0959C133.693 87.4201 133.891 87.7145 134.14 87.962C134.389 88.2096 134.685 88.4054 135.01 88.5382C135.335 88.6711 135.683 88.7383 136.035 88.736C136.386 88.7354 136.734 88.6653 137.058 88.5297C137.382 88.3941 137.676 88.1957 137.923 87.946C138.17 87.6962 138.366 87.4 138.498 87.0745C138.63 86.7489 138.696 86.4005 138.693 86.0491Z" fill="#FFE3CA"/>
<path d="M138.855 79.0006C138.855 79.0006 138.294 85.3786 133.36 85.2768L133.351 82.0823L138.855 79.0006Z" fill="#FCD2B1"/>
<path d="M137.789 86.289C137.789 86.289 137.973 85.996 140.376 86.7951C140.376 86.7951 139.774 88.625 137.086 89.1232C135.978 89.3284 134.911 88.9837 133.871 88.5482C133.179 88.2568 132.209 87.334 132.033 87.0692C132.033 87.0692 133.55 86.242 134.479 86.1292C135.408 86.0164 137.789 86.289 137.789 86.289Z" fill="#FFE3CA"/>
<path d="M134.293 84.1803C131.433 84.1803 129.093 82.4569 129.093 79.5962V74.6783C129.093 72.568 131.397 70.3448 132.641 70.3448L137.229 71.6311C137.828 71.6331 138.402 71.8722 138.826 72.296C139.25 72.7198 139.489 73.294 139.491 73.8934V78.7924C139.491 81.6517 136.704 84.1803 134.293 84.1803Z" fill="#FFE3CA"/>
<path d="M137.692 71.3707C137.692 71.3707 135.793 76.4985 138.855 78.0386L141.786 73.3683L137.692 71.3707Z" fill="#0B4870"/>
<path d="M141.786 78.0387C141.786 78.4072 141.677 78.7676 141.473 79.0742C141.268 79.3808 140.977 79.6198 140.637 79.7609C140.296 79.9021 139.922 79.9392 139.56 79.8673C139.199 79.7955 138.867 79.6181 138.606 79.3574C138.345 79.0968 138.168 78.7648 138.096 78.4033C138.024 78.0418 138.061 77.6671 138.203 77.3267C138.344 76.9862 138.583 76.6953 138.889 76.4907C139.196 76.2862 139.556 76.1772 139.925 76.1775C140.418 76.1775 140.892 76.3736 141.241 76.7226C141.59 77.0716 141.786 77.5451 141.786 78.0387Z" fill="#FFE3CA"/>
<path d="M139.459 67.2252C138.4 69.3011 138.892 71.6731 140.556 72.5254C142.22 73.3776 144.435 72.3859 145.496 70.3101C146.557 68.2342 146.063 65.8622 144.399 65.0099C142.735 64.1577 140.52 65.1494 139.459 67.2252Z" fill="#0B4870"/>
<path d="M139.445 72.2245C139.445 72.2245 132.082 76.3746 127.492 73.047C127.268 72.8947 127.078 72.699 126.932 72.4715C126.786 72.2441 126.688 71.9895 126.642 71.7231C126.547 71.0495 126.833 70.2583 128.746 70.3413C132.026 70.4823 134.274 71.1247 135.797 70.3413C137.319 69.558 139.445 72.2245 139.445 72.2245Z" fill="#0B4870"/>
<path d="M134.293 70.5656C134.293 70.5656 131.289 68.1419 129.679 69.248C128.068 70.3541 131.686 71.6294 131.686 71.6294L134.293 70.5656Z" fill="#0B4870"/>
<path d="M6.0408 132.485C6.0408 132.804 6.29917 133.062 6.61787 133.062H150.484C150.803 133.062 151.061 132.804 151.061 132.485C151.061 132.167 150.803 131.908 150.484 131.908H6.61796C6.29917 131.908 6.0408 132.167 6.0408 132.485Z" fill="#0E538B"/>
</svg>
