<svg width="550" height="477" viewBox="0 0 550 477" fill="none" xmlns="http://www.w3.org/2000/svg">
<path opacity="0.37" d="M108.188 373.54C109.118 375.841 110.147 378.143 111.273 380.347C128.023 413.21 162.012 433.927 198.255 437.649C227.248 440.588 255.459 431.135 279.702 415.708C303.896 400.329 323.29 378.682 350.178 367.418C388.085 351.598 430.352 339.109 460.08 305.61C493.874 267.556 506.901 209.862 490.984 161.18C475.508 113.673 424.132 98.2947 384.216 77.382C312.467 39.7194 213.094 14.6927 138.406 58.918C48.927 111.861 65.187 232.048 93.5441 315.454C100.009 334.457 100.793 354.929 108.188 373.54Z" fill="#CCE9FF"/>
<path d="M178.909 300.86C176.558 294.248 173.865 286.803 176.852 279.163C180.868 268.878 172.346 263.589 164.853 258.838C158.388 254.822 152.315 251.002 154.372 244.684C156.625 237.827 156.478 232.538 153.931 229.061C151.776 226.122 147.956 224.555 142.863 224.604C138.798 224.653 135.174 219.657 131.305 214.417C126.75 208.246 122.097 201.879 116.22 203.299C115.191 203.544 114.359 204.132 113.869 205.063C111.812 208.932 115.045 218.139 118.522 227.934C122.244 238.513 126.505 250.463 123.713 255.557C120.677 261.14 126.162 266.234 131.99 271.67C138.161 277.4 145.165 283.914 143.304 292.093C141.541 299.733 141.149 302.574 142.226 304.239C143.059 305.561 144.773 305.855 147.369 306.345C149.132 306.688 151.385 307.079 154.127 307.961C165.931 311.634 169.359 319.274 169.408 319.372L169.555 319.715L169.898 319.666C175.579 318.785 178.909 317.168 180.476 314.573C180.574 314.426 180.623 314.279 180.721 314.132C182.386 310.655 180.77 306.1 178.909 300.86Z" fill="#FFCA12"/>
<path d="M148.74 286.265C150.699 289.301 152.119 291.946 151.972 295.668C151.874 299.145 151.336 302.574 151.042 306.002C150.993 306.737 150.944 307.422 150.895 308.108C149.915 307.275 148.985 306.443 148.005 305.61C147.565 305.561 147.124 305.561 146.634 305.561C148.005 306.688 149.426 307.912 150.797 309.136C150.65 311.536 150.601 313.936 150.601 316.336C150.601 317.756 150.552 319.274 150.65 320.695C149.377 319.911 148.054 319.128 146.83 318.344C143.01 315.993 139.435 313.789 136.692 312.614C134.586 311.732 132.235 310.949 129.982 310.214C124.105 308.304 118.081 306.345 116.073 302.182C115.045 300.027 115.142 297.431 116.367 294.297C119.452 286.216 116.563 284.844 111.714 282.494C108.188 280.779 103.388 278.477 98.5886 272.649C96.4826 270.103 94.6216 267.899 92.9564 265.989C88.0098 260.16 85.2671 256.977 85.61 255.116C85.7079 254.675 85.9528 254.283 86.4426 253.892C86.6874 253.696 86.9813 253.5 87.3731 253.304C89.2342 252.275 91.0953 253.059 93.2012 253.941C96.0419 255.116 99.5192 256.634 104.368 254.136C108.188 252.177 112.449 250.365 114.996 251.835C116.759 252.814 117.787 255.361 118.13 259.524C118.228 260.846 118.669 261.777 119.403 262.315C120.481 263.099 122.146 263.001 124.056 262.609C125.378 264.421 127.093 265.303 129.15 266.038C132.039 267.066 134.194 267.997 136.3 270.347C140.806 275.441 145.165 280.632 148.74 286.265Z" fill="#1A71FF"/>
<path d="M133.117 294.346C130.178 292.387 127.631 287.636 125.183 283.032C121.852 276.763 118.375 270.299 113.624 270.445C105.984 270.641 99.1763 261.63 99.0784 261.581L98.4417 262.071C98.7355 262.462 105.592 271.474 113.624 271.278C117.885 271.18 121.264 277.4 124.448 283.473C126.946 288.126 129.541 292.974 132.627 295.08C134.488 296.305 137.916 298.803 141.981 301.986C141.981 301.643 141.981 301.3 141.981 300.958C138.406 297.97 135.223 295.717 133.117 294.346Z" fill="white"/>
<path d="M391.22 355.027C391.22 355.027 395.628 344.056 387.596 328.482C379.515 312.908 373.001 315.307 392.444 303.308C411.888 291.309 392.542 253.598 409.096 248.798C425.65 243.998 440 182.925 452.587 190.713C465.174 198.5 448.375 228.424 457.387 237.436C466.349 246.447 467.574 257.859 449.012 267.115C430.45 276.371 462.186 311.732 437.013 322.507C411.839 333.282 419.087 375.548 391.22 355.027Z" fill="#FFCA12"/>
<path d="M398.909 366.634C398.86 366.487 396.167 352.48 404.737 334.359C413.455 315.895 417.618 295.717 415.904 280.338C414.973 272.013 420.312 268.78 425.454 265.646C430.548 262.56 435.788 259.328 435.494 251.149C435.249 243.753 438.384 226.416 438.482 225.681L439.608 225.877C439.559 226.073 436.376 243.851 436.621 251.1C436.914 259.964 431.38 263.344 426.042 266.576C420.948 269.662 416.198 272.6 417.03 280.191C418.793 295.717 414.581 316.14 405.766 334.8C397.391 352.578 399.987 366.242 400.036 366.389L398.909 366.634Z" fill="white"/>
<path d="M182.533 319.127C167.449 315.356 167.253 307.226 167.057 299.39C166.91 292.974 166.763 286.901 158.584 283.179C147.76 278.232 147.516 269.074 147.271 260.993C147.075 254.969 146.928 249.287 142.422 246.202C131.598 238.807 122.44 220.881 122.342 220.686L123.175 220.245C123.272 220.441 132.284 238.121 142.961 245.418C147.858 248.749 148.054 254.675 148.201 260.944C148.446 269.123 148.691 277.645 158.976 282.297C167.645 286.264 167.841 292.925 167.988 299.341C168.183 307.177 168.379 314.621 182.778 318.197L182.533 319.127Z" fill="white"/>
<path d="M162.208 311.879H409.978V133.019C409.978 130.472 407.921 128.366 405.325 128.366H166.861C164.314 128.366 162.208 130.423 162.208 133.019V311.879Z" fill="#F7F7F7"/>
<path d="M170.96 278.533H400.755V137.335L170.96 137.335L170.96 278.533Z" fill="#0B4870" stroke="white" stroke-width="0.5" stroke-miterlimit="10"/>
<path d="M409.978 285.383H286.118H162.306L135.174 386.715H286.95H437.061L409.978 285.383Z" fill="#F2F2F2"/>
<path d="M171.661 303.161H186.892C187.529 303.161 188.019 303.651 187.872 304.19L186.402 310.801C186.305 311.193 185.913 311.487 185.423 311.487H169.947C169.31 311.487 168.82 310.997 168.967 310.41L170.681 303.798C170.779 303.455 171.171 303.161 171.661 303.161Z" fill="#0B4870" stroke="white" stroke-width="0.5" stroke-miterlimit="10"/>
<path d="M193.847 303.161H205.356L203.838 311.536H192.084L193.847 303.161Z" fill="#0B4870" stroke="white" stroke-width="0.5" stroke-miterlimit="10"/>
<path d="M211.086 303.161H222.596L221.42 311.536H209.666L211.086 303.161Z" fill="#0B4870" stroke="white" stroke-width="0.5" stroke-miterlimit="10"/>
<path d="M228.375 303.161H239.884L239.003 311.536H227.248L228.375 303.161Z" fill="#0B4870" stroke="white" stroke-width="0.5" stroke-miterlimit="10"/>
<path d="M245.614 303.161H257.124L256.585 311.536H244.831L245.614 303.161Z" fill="#0B4870" stroke="white" stroke-width="0.5" stroke-miterlimit="10"/>
<path d="M262.854 303.161H274.363L274.167 311.536H262.413L262.854 303.161Z" fill="#0B4870" stroke="white" stroke-width="0.5" stroke-miterlimit="10"/>
<path d="M400.966 303.161H383.678L385.539 311.536H403.121L400.966 303.161Z" fill="#0B4870" stroke="white" stroke-width="0.5" stroke-miterlimit="10"/>
<path d="M377.947 303.161H366.438L367.956 311.536H379.711L377.947 303.161Z" fill="#0B4870" stroke="white" stroke-width="0.5" stroke-miterlimit="10"/>
<path d="M360.708 303.161H349.199L350.374 311.536H362.128L360.708 303.161Z" fill="#0B4870" stroke="white" stroke-width="0.5" stroke-miterlimit="10"/>
<path d="M343.419 303.161H331.91L332.792 311.536H344.546L343.419 303.161Z" fill="#0B4870" stroke="white" stroke-width="0.5" stroke-miterlimit="10"/>
<path d="M326.18 303.161H314.671L315.209 311.536H326.964L326.18 303.161Z" fill="#0B4870" stroke="white" stroke-width="0.5" stroke-miterlimit="10"/>
<path d="M308.94 303.161H297.431L297.627 311.536H309.381L308.94 303.161Z" fill="#0B4870" stroke="white" stroke-width="0.5" stroke-miterlimit="10"/>
<path d="M280.142 303.161H291.652L291.799 311.536H280.142V303.161Z" fill="#0B4870" stroke="white" stroke-width="0.5" stroke-miterlimit="10"/>
<path d="M166.616 317.756H190.614L189.243 326.376H164.755L166.616 317.756Z" fill="#0B4870" stroke="white" stroke-width="0.5" stroke-miterlimit="10"/>
<path d="M404.688 317.756H375.009L376.674 326.376H406.99L404.688 317.756Z" fill="#0B4870" stroke="white" stroke-width="0.5" stroke-miterlimit="10"/>
<path d="M369.034 317.756H357.182L358.504 326.376H370.65L369.034 317.756Z" fill="#0B4870" stroke="white" stroke-width="0.5" stroke-miterlimit="10"/>
<path d="M351.207 317.756H339.354L340.334 326.376H352.48L351.207 317.756Z" fill="#0B4870" stroke="white" stroke-width="0.5" stroke-miterlimit="10"/>
<path d="M333.379 317.756H321.527L322.213 326.376H334.31L333.379 317.756Z" fill="#0B4870" stroke="white" stroke-width="0.5" stroke-miterlimit="10"/>
<path d="M315.552 317.756H303.7L304.043 326.376H316.14L315.552 317.756Z" fill="#0B4870" stroke="white" stroke-width="0.5" stroke-miterlimit="10"/>
<path d="M162.992 333.086H187.578L185.766 341.656H160.739L162.992 333.086Z" fill="#0B4870" stroke="white" stroke-width="0.5" stroke-miterlimit="10"/>
<path d="M193.7 333.086H205.993L204.573 341.656H192.035L193.7 333.086Z" fill="#0B4870" stroke="white" stroke-width="0.5" stroke-miterlimit="10"/>
<path d="M212.164 333.086H224.457H304.288L304.63 341.656H210.793L212.164 333.086Z" fill="#0B4870" stroke="white" stroke-width="0.5" stroke-miterlimit="10"/>
<path d="M310.459 333.086H322.752L323.437 341.656H310.899L310.459 333.086Z" fill="#0B4870" stroke="white" stroke-width="0.5" stroke-miterlimit="10"/>
<path d="M328.874 333.086H341.167L342.195 341.656H329.657L328.874 333.086Z" fill="#0B4870" stroke="white" stroke-width="0.5" stroke-miterlimit="10"/>
<path d="M347.337 333.086H359.63L360.953 341.656H348.464L347.337 333.086Z" fill="#0B4870" stroke="white" stroke-width="0.5" stroke-miterlimit="10"/>
<path d="M365.752 333.086H378.045L379.711 341.656H367.222L365.752 333.086Z" fill="#0B4870" stroke="white" stroke-width="0.5" stroke-miterlimit="10"/>
<path d="M384.167 333.086H408.753L411.006 341.656H385.98L384.167 333.086Z" fill="#0B4870" stroke="white" stroke-width="0.5" stroke-miterlimit="10"/>
<path d="M297.774 317.756H285.971V326.376H297.97L297.774 317.756Z" fill="#0B4870" stroke="white" stroke-width="0.5" stroke-miterlimit="10"/>
<path d="M279.947 317.756H268.045L267.703 326.376H279.849L279.947 317.756Z" fill="#0B4870" stroke="white" stroke-width="0.5" stroke-miterlimit="10"/>
<path d="M262.119 317.756H250.218L249.533 326.376H261.679L262.119 317.756Z" fill="#0B4870" stroke="white" stroke-width="0.5" stroke-miterlimit="10"/>
<path d="M244.292 317.756H232.391L231.362 326.376H243.508L244.292 317.756Z" fill="#0B4870" stroke="white" stroke-width="0.5" stroke-miterlimit="10"/>
<path d="M226.465 317.756H214.564L213.192 326.376H225.338L226.465 317.756Z" fill="#0B4870" stroke="white" stroke-width="0.5" stroke-miterlimit="10"/>
<path d="M208.638 317.756H196.736L195.071 326.376H207.168L208.638 317.756Z" fill="#0B4870" stroke="white" stroke-width="0.5" stroke-miterlimit="10"/>
<path d="M172.199 297.921L174.159 290.477H179.742L177.93 297.921H172.199Z" fill="#0B4870" stroke="white" stroke-width="0.5" stroke-miterlimit="10"/>
<path d="M185.325 290.477H196.492L194.973 297.921H183.562L185.325 290.477Z" fill="#0B4870" stroke="white" stroke-width="0.5" stroke-miterlimit="10"/>
<path d="M202.124 290.477H213.29L212.017 297.921H200.655L202.124 290.477Z" fill="#0B4870" stroke="white" stroke-width="0.5" stroke-miterlimit="10"/>
<path d="M218.874 290.477H230.04L229.061 297.921H217.698L218.874 290.477Z" fill="#0B4870" stroke="white" stroke-width="0.5" stroke-miterlimit="10"/>
<path d="M235.623 290.477H246.79L246.104 297.921H234.742L235.623 290.477Z" fill="#0B4870" stroke="white" stroke-width="0.5" stroke-miterlimit="10"/>
<path d="M252.373 290.477H263.54L263.148 297.921H251.785L252.373 290.477Z" fill="#0B4870" stroke="white" stroke-width="0.5" stroke-miterlimit="10"/>
<path d="M269.123 290.477H280.289L280.191 297.921H268.829L269.123 290.477Z" fill="#0B4870" stroke="white" stroke-width="0.5" stroke-miterlimit="10"/>
<path d="M285.873 290.477H297.039L297.235 297.921H285.873V290.477Z" fill="#0B4870" stroke="white" stroke-width="0.5" stroke-miterlimit="10"/>
<path d="M302.622 290.477H313.789L314.279 297.921H302.916L302.622 290.477Z" fill="#0B4870" stroke="white" stroke-width="0.5" stroke-miterlimit="10"/>
<path d="M319.372 290.477H330.588L331.322 297.921H319.96L319.372 290.477Z" fill="#0B4870" stroke="white" stroke-width="0.5" stroke-miterlimit="10"/>
<path d="M336.171 290.477H347.337L348.415 297.921H337.053L336.171 290.477Z" fill="#0B4870" stroke="white" stroke-width="0.5" stroke-miterlimit="10"/>
<path d="M352.921 290.477H364.087L365.459 297.921H354.096L352.921 290.477Z" fill="#0B4870" stroke="white" stroke-width="0.5" stroke-miterlimit="10"/>
<path d="M369.671 290.477H380.837L382.502 297.921H371.14L369.671 290.477Z" fill="#0B4870" stroke="white" stroke-width="0.5" stroke-miterlimit="10"/>
<path d="M386.42 290.477H397.587L399.546 297.921H388.183L386.42 290.477Z" fill="#0B4870" stroke="white" stroke-width="0.5" stroke-miterlimit="10"/>
<path d="M429.176 394.599H143.059C138.7 394.599 135.174 391.073 135.174 386.714H437.061C437.061 391.073 433.535 394.599 429.176 394.599Z" fill="#D3D3D3"/>
<path d="M321.233 353.95C320.939 352.186 319.372 350.864 317.609 350.864H286.167H254.675C252.863 350.864 251.345 352.186 251.051 353.95L247.133 377.703C246.741 379.956 248.504 382.013 250.757 382.013H286.118H321.478C323.78 382.013 325.494 379.956 325.102 377.703L321.233 353.95Z" fill="#D3D3D3"/>
<path d="M212.066 149.328H186.451V151.973H212.066V149.328Z" fill="#F7F7F7"/>
<path d="M237.729 169.065H219.265V171.71H237.729V169.065Z" fill="#F7F7F7"/>
<path d="M252.863 169.065H240.619V171.71H252.863V169.065Z" fill="#F7F7F7"/>
<path d="M198.989 218.727H186.745V221.372H198.989V218.727Z" fill="#F7F7F7"/>
<path d="M284.942 169.065H255.312V171.71H284.942V169.065Z" fill="#F7F7F7"/>
<path d="M205.797 208.785H186.745V211.429H205.797V208.785Z" fill="#F7F7F7"/>
<path d="M224.898 228.571H213.29V231.216H224.898V228.571Z" fill="#F7F7F7"/>
<path d="M209.764 228.571H186.745V231.216H209.764V228.571Z" fill="#F7F7F7"/>
<path d="M199.43 238.464H186.745V241.109H199.43V238.464Z" fill="#F7F7F7"/>
<path d="M235.232 149.328H217.061V151.973H235.232V149.328Z" fill="#F7F7F7"/>
<path d="M235.232 178.958H217.061V181.603H235.232V178.958Z" fill="#F7F7F7"/>
<path d="M215.739 188.803H207.952V191.448H215.739V188.803Z" fill="#F7F7F7"/>
<path d="M217.649 198.843H200.214V201.488H217.649V198.843Z" fill="#F7F7F7"/>
<path d="M244.39 198.843H220.294V201.488H244.39V198.843Z" fill="#F7F7F7"/>
<path d="M204.915 188.901H186.745V191.545H204.915V188.901Z" fill="#F7F7F7"/>
<path d="M197.52 198.843H186.745V201.488H197.52V198.843Z" fill="#F7F7F7"/>
<path d="M229.599 188.901H219.412V191.545H229.599V188.901Z" fill="#F7F7F7"/>
<path d="M197.275 248.309H187.088V250.953H197.275V248.309Z" fill="#F7F7F7"/>
<path d="M204.866 169.065H186.696V171.71H204.866V169.065Z" fill="#F7F7F7"/>
<path d="M220.931 218.727H202.76V221.372H220.931V218.727Z" fill="#F7F7F7"/>
<path d="M221.175 238.464H203.005V241.109H221.175V238.464Z" fill="#F7F7F7"/>
<path d="M253.451 238.464H235.28V241.109H253.451V238.464Z" fill="#F7F7F7"/>
<path d="M212.605 178.958H186.696V181.603H212.605V178.958Z" fill="#F7F7F7"/>
<path d="M326.278 149.328H308.108V151.973H326.278V149.328Z" fill="#F7F7F7"/>
<path d="M261.532 248.309H243.362V250.953H261.532V248.309Z" fill="#F7F7F7"/>
<path d="M344.056 149.328H331.91V151.973H344.056V149.328Z" fill="#F7F7F7"/>
<path d="M385.245 159.221H373.099V161.866H385.245V159.221Z" fill="#F7F7F7"/>
<path d="M263.295 149.328H240.129V151.973H263.295V149.328Z" fill="#F7F7F7"/>
<path d="M353.508 159.221H330.343V161.866H353.508V159.221Z" fill="#F7F7F7"/>
<path d="M325.102 169.065H301.937V171.71H325.102V169.065Z" fill="#F7F7F7"/>
<path d="M294.982 178.958H271.817V181.603H294.982V178.958Z" fill="#F7F7F7"/>
<path d="M344.448 169.065H327.992V171.71H344.448V169.065Z" fill="#F7F7F7"/>
<path d="M303.553 149.328H280.387V151.973H303.553V149.328Z" fill="#F7F7F7"/>
<path d="M267.556 178.958H253.989V181.603H267.556V178.958Z" fill="#F7F7F7"/>
<path d="M256.928 218.874H243.362V221.519H256.928V218.874Z" fill="#F7F7F7"/>
<path d="M276.028 149.328H267.556V151.973H276.028V149.328Z" fill="#F7F7F7"/>
<path d="M248.602 178.958H240.129V181.603H248.602V178.958Z" fill="#F7F7F7"/>
<path d="M367.565 159.221H359.092V161.866H367.565V159.221Z" fill="#F7F7F7"/>
<path d="M199.724 159.221H186.451V161.866H199.724V159.221Z" fill="#F7F7F7"/>
<path d="M232.342 208.834H221.861V211.478H232.342V208.834Z" fill="#F7F7F7"/>
<path d="M207.266 159.221H203.005V161.866H207.266V159.221Z" fill="#F7F7F7"/>
<path d="M326.278 159.221H290.868V161.866H326.278V159.221Z" fill="#F7F7F7"/>
<path d="M292.338 238.464H256.928V241.109H292.338V238.464Z" fill="#F7F7F7"/>
<path d="M214.76 159.221H210.401V161.866H214.76V159.221Z" fill="#F7F7F7"/>
<path d="M287.587 159.221H276.028V161.866H287.587V159.221Z" fill="#F7F7F7"/>
<path d="M299.194 169.065H287.636V171.71H299.194V169.065Z" fill="#F7F7F7"/>
<path d="M239.639 248.309H228.081V250.953H239.639V248.309Z" fill="#F7F7F7"/>
<path d="M272.992 159.221H248.357V161.866H272.992V159.221Z" fill="#F7F7F7"/>
<path d="M239.786 218.874H225.387V221.519H239.786V218.874Z" fill="#F7F7F7"/>
<path d="M231.705 238.464H224.506V241.109H231.705V238.464Z" fill="#F7F7F7"/>
<path d="M244.831 159.221H236.358V161.866H244.831V159.221Z" fill="#F7F7F7"/>
<path d="M216.327 169.065H207.854V171.71H216.327V169.065Z" fill="#F7F7F7"/>
<path d="M217.992 208.834H209.519V211.478H217.992V208.834Z" fill="#F7F7F7"/>
<path d="M233.175 159.221H218.384V161.866H233.175V159.221Z" fill="#F7F7F7"/>
<path d="M342.391 179.056C342.391 179.056 346.701 186.354 348.513 187.529C350.962 189.145 349.443 190.761 348.268 190.81C347.093 190.81 341.118 191.251 339.795 189.733C338.473 188.215 337.836 183.758 336.612 182.582C335.387 181.407 334.114 176.754 337.199 175.628C339.893 174.599 342.391 179.056 342.391 179.056Z" fill="#FFB27D"/>
<path d="M340.481 175.873C340.481 175.873 345.427 184.443 346.26 185.668C347.093 186.941 344.644 186.941 343.126 186.353C341.607 185.766 337.787 179.644 337.248 178.517C336.612 177.195 337.15 175.677 337.15 175.677L340.481 175.873Z" fill="#FFE3CA"/>
<path d="M335.485 180.428L336.661 189.194L337.248 189.243L337.053 182.926L335.485 180.428Z" fill="#FFB27D"/>
<path d="M299.635 179.056C299.635 179.056 303.945 186.353 305.757 187.529C308.206 189.145 306.687 190.761 305.512 190.81C304.337 190.81 298.362 191.251 297.039 189.733C295.717 188.214 295.08 183.758 293.856 182.582C292.631 181.407 291.309 176.607 294.443 175.628C297.186 174.746 299.635 179.056 299.635 179.056Z" fill="#FFB27D"/>
<path d="M298.019 175.873C298.019 175.873 302.671 184.394 303.553 185.668C304.386 186.941 301.937 186.941 300.419 186.353C298.9 185.766 295.08 179.644 294.541 178.517C293.905 177.195 294.443 175.677 294.443 175.677L298.019 175.873Z" fill="#FFE3CA"/>
<path d="M292.778 180.428L293.905 189.194L294.541 189.243L294.345 182.926L292.778 180.428Z" fill="#FFB27D"/>
<path d="M280.534 112.596L319.519 130.374C319.519 130.374 323.878 131.794 324.368 136.643C325.886 151.728 337.15 175.628 337.15 175.628C340.775 177.391 340.481 175.873 340.481 175.873C338.179 168.526 335.436 138.357 334.408 126.26C334.212 123.713 334.065 121.95 334.016 121.363C334.016 120.971 333.575 120.481 332.841 119.893C327.502 115.534 305.463 106.572 305.463 106.572C289.056 106.131 280.534 112.596 280.534 112.596Z" fill="#FFE3CA"/>
<path d="M273.188 120.236C274.412 130.766 289.448 129.591 289.448 129.591H307.667C307.667 129.591 302.867 140.267 301.006 149.23C299.047 158.78 294.394 175.628 294.394 175.628C294.394 175.628 294.688 176.216 298.019 175.873C298.019 175.873 312.32 147.369 317.805 140.169C318.98 138.651 322.36 130.227 322.948 125.232C323.143 123.567 323.045 122.244 322.409 121.705C321.772 121.167 320.303 120.187 318.393 118.963C312.663 115.339 302.769 109.804 297.235 108.58C289.84 106.915 278.134 103.78 278.134 103.78C278.134 103.78 271.964 109.706 273.188 120.236Z" fill="#FFE3CA"/>
<path d="M285.579 39.034C285.579 39.034 282.836 33.8425 284.159 28.3572C285.481 22.8229 290.623 17.3376 298.117 19.8844C305.61 22.4311 311.683 28.2103 307.177 34.969C302.671 41.6787 311.242 44.7642 309.038 47.9476C306.834 51.131 307.667 54.5104 308.598 55.245C309.528 55.9796 312.516 58.6243 312.173 61.8078C311.83 64.9422 297.627 52.6493 297.627 52.6493C297.627 52.6493 289.938 37.0259 285.579 39.034Z" fill="#0E538C"/>
<path d="M308.451 105.25C308.451 105.25 307.324 110.735 278.183 103.829C278.183 103.829 287.93 100.597 308.451 105.25Z" fill="#EB4747"/>
<path d="M277.841 105.348C277.4 106.229 276.959 107.062 276.469 107.943C287.097 108.237 297.774 108.58 308.402 108.874C306.736 103.242 307.275 95.6013 307.569 89.8222C307.912 82.7207 311.83 77.8231 311.438 70.6726C313.544 71.0154 313.887 71.0644 315.993 71.4072C312.76 62.1997 311.683 57.645 301.643 54.1187C298.362 52.9433 296.256 52.7474 292.729 53.0412C281.122 54.0208 277.645 54.1187 271.915 64.6485C280.828 66.0688 279.359 69.2523 282.053 78.1659C283.375 82.4758 284.746 87.3244 284.061 91.8792C283.375 96.336 277.841 101.283 277.841 105.348Z" fill="white"/>
<path d="M296.354 56.3225C291.603 55.441 292.631 52.7963 292.631 52.7963C292.631 52.7963 292.827 51.327 292.925 49.4169C292.925 48.9272 292.974 48.4374 292.974 47.8987C292.974 47.1151 292.925 46.3314 292.827 45.5478C292.435 42.3644 301.447 44.2745 301.447 44.2745C301.447 44.2745 300.908 50.7393 302.182 52.6493C303.406 54.6084 301.104 57.2531 296.354 56.3225Z" fill="#FFE3CA"/>
<path d="M287.293 52.7964C287.293 52.7964 296.892 63.865 300.419 66.4117C300.419 66.4117 304.483 62.7385 301.986 53.0413C301.986 53.0413 297.382 50.6904 287.293 52.7964Z" fill="#FFE3CA"/>
<path d="M287.587 26.1533C287.587 26.1533 282.591 35.7526 287.538 44.8131C292.484 53.8737 302.182 40.8461 302.769 39.3278C303.406 37.8096 306.736 29.1408 300.125 26.5451C293.513 23.9004 289.007 23.5575 287.587 26.1533Z" fill="#FFE3CA"/>
<path d="M297.186 45.7925C297.186 45.7925 296.305 47.7025 292.925 49.4167C292.925 48.9269 292.974 48.4372 292.974 47.8984C292.974 47.8984 295.276 47.6536 297.186 45.7925Z" fill="#FCD2B1"/>
<path d="M246.888 96.7278C246.888 96.7278 244.537 97.7563 243.41 97.3155C242.284 96.8257 240.57 96.7278 240.031 96.7278C239.297 96.7278 236.995 95.8952 237.044 96.8257C237.093 97.7073 240.766 98.344 241.5 98.6378C242.235 98.9317 239.248 100.548 238.954 101.283C238.66 102.017 242.088 106.817 243.998 105.445C245.908 104.074 246.937 101.332 247.329 101.136C247.72 100.94 248.749 100.205 248.749 100.205L246.888 96.7278Z" fill="#FFE3CA"/>
<path d="M239.346 100.842C239.346 100.842 233.811 105.446 233.713 106.082C233.615 106.719 233.909 107.013 234.448 106.572C234.987 106.18 239.933 102.262 239.933 102.262C239.933 102.262 234.399 108.825 234.203 109.315C234.105 109.608 234.644 110.196 234.938 110C235.232 109.804 241.158 103.633 241.158 103.633C241.158 103.633 235.966 109.755 235.966 110.245C235.917 110.637 236.554 111.078 236.995 110.637C237.435 110.196 242.578 104.809 242.578 104.809C242.578 104.809 239.101 109.511 239.346 109.951C239.492 110.196 239.933 110.735 240.766 109.511C241.598 108.286 243.949 105.543 243.949 105.543L239.346 100.842Z" fill="#FFE3CA"/>
<path d="M305.757 129.542H289.448C289.448 129.542 274.412 130.766 273.188 120.187C271.964 109.657 278.134 103.78 278.134 103.78C278.134 103.78 286.069 105.886 293.023 107.551C296.5 106.817 300.663 106.327 305.561 106.474C305.561 106.474 334.947 116.171 334.065 121.314C334.065 121.363 321.772 114.8 305.757 129.542Z" fill="#0E538C"/>
<path d="M295.129 111.322L326.278 110.833L310.557 118.816L295.129 111.322Z" fill="#F2F2F2"/>
<path d="M304.826 107.306C304.826 107.306 297.823 110 289.252 107.551L288.86 104.368L306.541 105.347L304.826 107.306Z" fill="white"/>
<path d="M310.557 118.816L295.129 112.841V111.323L311.781 117.298L310.557 118.816Z" fill="#D3D3D3"/>
<path d="M304.679 108.825C304.581 109.951 305.757 110.784 306.834 110.343L308.646 109.559C309.185 109.315 309.528 108.776 309.43 108.188C308.695 103.486 307.079 85.1695 309.43 81.986C310.312 80.8106 310.85 79.7821 311.144 78.9005C312.711 82.9166 314.622 88.108 315.405 90.8997L330.098 110.49L335.044 111.763C328.874 96.9237 323.927 89.0875 323.927 89.0875C322.947 86.4918 320.205 78.6557 317.756 71.7011C316.189 67.2932 314.817 63.2282 314.034 61.0733C313.642 59.9468 312.907 59.0163 311.879 58.4286C309.577 57.0573 305.806 54.9023 302.378 53.2371H302.329C302.231 53.1882 302.133 53.1392 301.986 53.0902C308.549 62.9344 306.002 90.8997 304.679 108.825C304.679 108.776 304.679 108.776 304.679 108.825Z" fill="#FFB27D"/>
<path d="M280.387 53.8739C278.281 54.2167 273.09 59.2612 270.347 64.3547C267.213 70.1828 263.98 76.7946 261.581 78.9495C257.173 82.9656 244.782 97.1196 244.194 96.7768C243.949 96.6299 247.573 100.989 248.063 101.185C248.308 101.283 268.388 83.8471 270.347 81.2024C272.159 78.7047 277.057 68.1259 278.526 68.3707C278.624 68.6156 280.436 72.4847 282.102 78.1169C282.151 78.2149 282.151 78.3129 282.199 78.4108C283.375 82.3289 283.277 86.6388 282.64 91.4384C282.15 95.0626 279.457 100.989 277.841 103.878C277.645 104.221 277.694 104.907 277.89 105.397C278.037 105.69 278.183 105.935 278.428 106.033L284.354 108.237L285.726 108.727C286.705 109.119 287.783 108.923 288.566 108.335C289.203 107.894 289.693 107.16 289.791 106.278C291.113 96.1891 292.778 85.8551 294.101 81.986C299.929 64.9424 291.848 52.1107 291.848 52.1107C291.848 52.1107 282.248 53.1882 280.387 53.8739Z" fill="#FFB27D"/>
<path d="M310.556 118.816L319.813 93.5441L349.639 94.0338L340.824 117.346L310.556 118.816Z" fill="#FFB27D"/>
<path d="M329.363 104.71C328.433 106.523 328.727 108.531 330 109.118C331.273 109.755 332.988 108.775 333.918 106.963C334.849 105.151 334.555 103.143 333.281 102.556C332.008 101.919 330.245 102.898 329.363 104.71Z" fill="#F2F0F0"/>
<path d="M311.242 56.9594C309.038 53.629 307.471 50.9843 307.275 46.2336C307.128 43.0992 306.443 38.8383 304.288 36.7323C306.54 30.8552 303.896 29.0921 302.818 27.182C301.496 24.7822 291.701 19.003 287.832 25.076C283.963 31.1001 285.334 37.418 285.334 37.418C285.726 34.0876 289.154 29.5818 289.154 29.5818C289.693 33.0591 296.892 38.7403 300.027 41.0422C299.978 41.0912 299.929 41.1891 299.929 41.2381C298.166 43.7848 300.37 46.3316 300.761 49.0253C301.153 51.7189 293.366 58.9674 302.035 62.5916C310.703 66.2648 313.446 60.2408 311.242 56.9594Z" fill="#0E538C"/>
<path d="M153.589 342.244C153.589 342.244 153.393 344.301 143.793 344.301C134.194 344.301 120.236 341.803 120.236 341.803L142.52 339.648C142.52 339.648 151.091 339.207 153.589 342.244Z" fill="#0E538C"/>
<path d="M129.15 342.978C123.713 342.978 121.411 345.77 119.256 346.652C117.102 347.533 114.947 348.856 114.947 348.807C116.171 346.407 117.885 346.358 118.767 345.574C119.648 344.791 119.403 345.182 117.493 345.035C116.416 344.937 114.457 346.946 113.085 348.072C111.861 349.002 111.126 349.1 111.126 349.1C111.126 349.1 112.547 347.092 114.31 345.476C116.465 343.517 119.158 341.901 119.795 341.607C120.971 341.117 124.595 341.019 127.142 341.362C130.08 341.754 133.068 342.978 129.15 342.978Z" fill="#0E538C"/>
<path d="M120.138 341.705C120.138 341.705 115.975 342.782 115.24 343.37C114.751 343.762 112.596 346.064 112.596 346.064C112.596 346.064 114.163 345.819 115.045 344.937C115.975 344.007 120.138 341.705 120.138 341.705Z" fill="#0E538C"/>
<path d="M145.703 338.032C145.703 338.032 156.184 338.718 155.45 345.182C155.058 348.856 152.658 350.129 149.475 349.835C143.597 349.345 136.937 348.464 136.937 348.464L133.949 338.424L145.703 338.032Z" fill="#0E538C"/>
<path d="M147.907 338.913L158.192 305.757C158.192 305.757 159.711 300.908 162.208 301.79C165.784 303.112 164.02 307.079 163.727 309.43C163.09 314.23 163.531 316.336 160.2 327.894C158.143 335.044 156.38 343.272 154.617 347.974C153.393 351.206 151.287 346.554 148.103 345.28C142.128 342.881 147.907 338.913 147.907 338.913Z" fill="#0E538C"/>
<path d="M148.691 287.734C150.699 293.513 156.919 296.5 162.649 294.394C168.33 292.288 171.367 285.873 169.359 280.094C167.351 274.314 161.131 271.327 155.401 273.433C149.719 275.539 146.683 281.955 148.691 287.734Z" fill="#0E538C"/>
<path d="M137.427 288.272C140.561 292.974 146.83 294.15 151.385 290.917L150.748 285.383C155.303 282.101 156.429 275.637 153.295 270.935L151.14 267.752C148.005 263.05 141.736 261.874 137.182 265.107L135.125 266.576C130.57 269.857 129.443 276.322 132.578 281.024L137.427 288.272Z" fill="#0E538C"/>
<path d="M133.313 272.845C133.851 273.629 134.439 274.363 135.125 275.098C139.63 279.996 145.655 281.857 149.475 279.849C151.238 282.249 153.246 284.159 155.058 285.628C157.164 287.342 162.551 288.028 162.551 288.028C165.686 291.456 153.931 311.487 153.099 311.389C151.385 311.242 149.181 300.174 150.797 296.158C151.532 294.346 152.707 292.191 152.364 291.211C151.14 287.832 149.426 288.42 149.426 288.42C149.426 288.42 147.173 291.064 145.41 290.966C143.598 290.819 140.463 287.979 140.316 287.93C139.777 287.489 139.288 286.95 138.847 286.314L134.145 279.261C132.921 277.302 132.627 274.951 133.313 272.845Z" fill="#FFE3CA"/>
<path d="M169.261 357.231C169.261 357.231 165.441 361.834 164.265 362.324C162.698 363.01 157.898 361.54 157.898 361.54C157.898 361.54 156.625 340.432 155.156 332.204C153.687 323.976 151.532 321.821 151.434 319.225C151.287 315.062 147.809 313.397 148.397 310.165C148.985 306.932 150.013 295.374 150.356 296.892C153.344 310.018 157.017 299.096 157.849 297.382C158.29 296.451 169.261 357.231 169.261 357.231Z" fill="#F2F0F0"/>
<path d="M151.874 292.974C151.874 292.974 147.222 298.068 147.565 300.076C147.858 302.084 145.557 308.353 147.858 317.071C150.454 327.013 151.825 333.771 152.315 340.285C152.805 346.799 150.601 352.774 151.483 360.757C152.168 367.026 153.589 367.369 153.589 367.369C153.589 367.369 156.38 368.055 158.339 365.606C160.298 363.206 157.36 341.852 156.38 336.563C155.401 331.225 152.266 318.785 151.434 315.112C150.405 310.606 150.601 306.002 150.65 304.68C150.895 300.027 151.483 297.137 151.972 295.374C152.021 295.129 152.266 292.387 151.874 292.974Z" fill="#0E538C"/>
<path d="M160.004 298.949C162.551 306.296 170.485 310.067 177.734 307.373C184.982 304.68 188.802 296.55 186.256 289.203C183.709 281.857 175.775 278.086 168.526 280.779C161.278 283.424 157.458 291.603 160.004 298.949Z" fill="#0E538C"/>
<path d="M135.076 425.209L137.671 445.926L126.407 451.264L120.187 452.636L131.256 444.065L127.631 425.356L135.076 425.209Z" fill="#FCBAA2"/>
<path d="M138.406 449.061L135.957 449.697L134.292 448.179L125.281 452.685L117.297 454.595C117.297 454.595 117.199 453.958 117.444 453.616C118.424 452.293 124.056 449.404 124.056 449.404C124.056 449.404 124.154 451.314 124.938 451.363C125.721 451.412 132.627 447.787 134.243 446.808C136.986 445.094 137.525 443.967 137.72 444.114C138.308 444.408 138.406 449.061 138.406 449.061Z" fill="#0E538C"/>
<path d="M107.894 396.411L98.9314 414.043L86.5895 413.455L80.4185 411.643L94.0828 409.341L101.527 394.256L107.894 396.411Z" fill="#FCBAA2"/>
<path d="M98.1968 417.177L95.748 416.589L94.9644 414.434L83.8468 414.288L77.2351 412.72C77.2351 412.72 78.0187 411.839 78.5085 411.594C79.9777 410.957 85.2182 410.663 85.2182 410.663C85.2182 410.663 84.6794 412.182 85.3651 412.573C86.0508 413.014 93.691 413.259 95.5521 413.112C98.7845 412.867 99.7151 412.182 99.813 412.377C100.156 413.063 98.1968 417.177 98.1968 417.177Z" fill="#0E538C"/>
<path d="M173.277 343.664L166.616 346.652L166.665 355.81L120.775 348.317C120.775 348.317 116.416 346.897 113.624 354.096C109.657 364.283 99.5681 395.971 99.5681 395.971L105.935 402.876L125.966 367.075C125.966 367.075 167.008 387.008 180.525 382.698C185.717 381.033 189.684 371.532 188.949 361.932C188.362 354.39 186.892 347.484 186.892 347.484L173.277 343.664Z" fill="#FFB27D"/>
<path d="M167.449 382.502L134.586 380.053L137.427 432.556L127.729 432.898L120.579 371.385C120.579 371.385 122.489 362.226 128.758 363.597C135.076 365.018 150.258 377.066 167.449 382.502Z" fill="#FFB27D"/>
<path d="M189.586 395.677C189.586 395.677 172.346 376.331 167.89 365.41C162.551 352.333 162.992 335.926 162.012 330.49C160.2 320.499 157.996 301.104 157.605 298.705C157.164 296.305 158.682 293.611 158.682 293.611C158.682 293.611 157.556 286.363 160.788 287.146C165.441 288.273 170.045 290.819 171.661 291.603C174.697 292.974 180.917 329.51 181.26 331.274C182.533 337.64 187.186 343.42 190.516 349.346C198.353 363.402 200.361 380.005 200.361 380.005C200.361 380.005 199.381 392.151 189.586 395.677Z" fill="#1A71FF"/>
<path d="M171.808 345.084C171.808 345.084 171.661 347.435 160.69 346.897C149.719 346.309 133.655 342.636 133.655 342.636L159.074 341.46C159.074 341.46 168.82 341.509 171.808 345.084Z" fill="#FFE3CA"/>
<path d="M142.275 343.909C137.035 343.811 134.782 346.505 132.725 347.337C130.668 348.17 128.562 349.394 128.562 349.394C129.737 347.092 131.402 347.043 132.284 346.309C133.117 345.574 132.921 345.966 131.06 345.77C129.982 345.672 128.121 347.582 126.799 348.66C125.623 349.59 124.889 349.639 124.889 349.639C124.889 349.639 126.26 347.68 127.974 346.113C130.08 344.252 132.627 342.685 133.264 342.44C134.39 341.999 137.867 341.95 140.365 342.342C143.157 342.734 146.046 344.007 142.275 343.909Z" fill="#FFE3CA"/>
<path d="M133.508 342.489C133.508 342.489 129.492 343.468 128.807 344.007C128.317 344.399 126.26 346.603 126.26 346.603C126.26 346.603 127.729 346.358 128.611 345.525C129.492 344.742 133.508 342.489 133.508 342.489Z" fill="#FFE3CA"/>
<path d="M163.041 342.489L179.301 333.918C179.301 333.918 179.35 344.301 179.448 348.268C179.546 352.235 181.211 357.818 178.077 358.651C174.942 359.484 173.326 359.043 176.558 360.953C179.791 362.814 179.056 364.773 177.832 366.389C176.607 368.005 181.946 384.461 180.672 385.392C175.628 379.025 170.191 371.14 167.841 365.41C164.853 357.965 163.678 349.444 163.041 342.489Z" fill="#0E538C"/>
<path d="M168.281 338.326L167.645 305.219C167.645 305.219 167.694 294.885 167.89 291.848C168.085 288.714 173.424 292.387 173.424 292.387C173.424 292.387 180.917 302.525 181.064 326.964C181.162 343.322 180.28 351.844 172.738 351.158C165.735 350.521 157.752 349.444 157.752 349.444L154.274 340.383L168.281 338.326Z" fill="#1A71FF"/>
<path d="M166.616 355.81L110.637 348.807L110.784 347.631L166.763 354.635L166.616 355.81Z" fill="#D3D3D3"/>
<path d="M142.079 351.501C141.981 352.431 141.247 353.117 140.463 353.019L111.763 349.444C110.98 349.346 110 348.611 109.314 346.162L98.2458 317.511C98.3927 316.336 99.3232 315.748 100.107 316.042L129.443 320.646C130.227 320.94 130.766 321.625 131.06 322.899L142.079 351.501Z" fill="#D3D3D3"/>
<path d="M138.455 352.284L138.749 352.333L166.763 355.86C165.686 356.3 163.972 356.447 162.061 356.202L138.602 353.264L138.308 353.215L114.849 350.276C112.939 350.032 111.322 349.444 110.343 348.807L138.455 352.284Z" fill="#D3D3D3"/>
<path d="M168.281 338.326L167.645 305.218C167.645 305.218 168.134 302.427 169.114 299.929C169.359 303.553 171.024 329.657 171.22 333.086C171.465 336.808 174.501 337.2 175.138 338.424C175.824 339.6 175.236 339.844 172.983 339.404C170.779 338.914 171.563 339.306 172.053 340.481C172.542 341.706 171.318 341.363 167.008 339.796C163.874 338.669 157.85 339.796 154.813 340.481L168.281 338.326Z" fill="#0E538C"/>
<path d="M361.834 257.075C356.447 258.495 346.505 263.491 344.399 272.062C341.264 284.942 347.533 303.798 337.64 322.311C334.457 328.188 392.346 336.122 392.346 336.122L403.513 271.082C403.513 271.082 389.555 256.977 386.714 255.998C380.788 254.038 372.609 254.234 361.834 257.075Z" fill="#CCE9FF"/>
<path d="M403.562 271.131C405.57 276.322 410.663 307.226 404.982 314.524C404.345 315.356 407.921 316.679 407.284 320.499C407.186 321.136 406.109 324.221 406.109 324.221L401.505 325.445L391.465 313.838C391.465 313.838 395.53 307.52 400.868 283.571C402.435 276.518 403.121 269.956 403.562 271.131Z" fill="#1A71FF"/>
<path d="M365.557 308.059C365.557 308.059 370.405 320.842 382.11 324.27C384.118 324.858 385.392 327.111 384.412 327.845C383.139 328.776 381.474 328.972 378.535 328.972C372.413 328.972 364.087 327.013 358.357 321.234C349.835 312.712 347.142 308.794 348.023 304.533C348.807 300.174 365.557 308.059 365.557 308.059Z" fill="#FCD2B1"/>
<path d="M346.064 267.752C343.566 271.964 342.146 278.722 342.195 288.42C342.195 295.913 348.464 308.206 349.394 311.977C349.541 312.614 349.933 315.307 349.933 315.307L356.839 322.36L370.699 312.614L366.487 305.904L365.214 306.051C365.214 306.051 364.43 302.329 364.626 300.908C364.822 299.488 360.806 280.143 358.798 267.752C357.671 260.552 348.513 263.589 346.064 267.752Z" fill="#1A71FF"/>
<path d="M358.504 305.757L362.569 304.484L364.234 304.043C364.332 305.218 365.312 306.002 365.312 306.002L362.128 306.394L358.455 307.569L354.145 310.655L358.504 305.757Z" fill="#0E538C"/>
<path d="M381.229 324.221L388.281 322.213C388.281 322.213 390.289 325.005 389.898 325.69C389.506 326.376 389.898 330.49 389.898 330.49L386.469 333.527L383.678 332.547C383.678 332.547 383.482 331.274 384.412 331.176C385.392 331.029 383.776 330.343 383.286 330.049C382.796 329.706 378.731 327.551 381.229 324.221Z" fill="#FCD2B1"/>
<path d="M370.356 256.438C369.573 258.74 370.748 261.336 373.001 262.119L377.017 263.589C379.27 264.421 381.719 263.148 382.502 260.846L386.077 250.267C386.861 247.965 385.686 245.37 383.433 244.537L379.417 243.068C377.164 242.235 374.715 243.508 373.931 245.81L370.356 256.438Z" fill="#FF957E"/>
<path d="M387.89 265.744C387.498 267.262 385.931 268.193 384.461 267.752L372.364 264.275C370.895 263.834 370.013 262.267 370.405 260.699L375.352 242.137C375.744 240.619 377.311 239.689 378.78 240.129L390.877 243.558C392.346 243.999 393.228 245.566 392.836 247.133L387.89 265.744Z" fill="#FCD2B1"/>
<path d="M394.158 245.272C394.256 245.174 393.032 243.802 393.669 241.109C394.501 237.485 391.808 236.015 389.8 235.966C388.624 235.917 384.657 237.827 382.551 238.464C380.445 239.101 380.641 238.268 376.821 237.582C374.274 237.093 373.687 238.513 372.805 240.472C371.923 242.48 371.825 250.12 371.825 250.12C372.168 250.61 372.707 251.002 373.05 250.61C373.393 250.218 374.764 244.096 375.89 242.284C376.968 240.472 381.376 243.362 383.776 244.782C386.126 246.202 388.232 246.447 392.004 245.663C392.444 246.153 392.836 246.692 392.836 246.937C392.836 247.427 391.759 250.904 391.759 250.904C391.759 250.904 393.865 249.582 394.452 248.553C394.746 248.21 394.844 246.545 394.158 245.272Z" fill="#FFB27D"/>
<path d="M374.225 256.83C374.078 257.32 373.589 257.662 373.099 257.516L370.503 256.781C370.013 256.634 369.719 256.095 369.866 255.605L371.189 250.659C371.336 250.169 371.825 249.826 372.315 249.973L374.911 250.708C375.401 250.855 375.695 251.393 375.548 251.883L374.225 256.83Z" fill="#FCD2B1"/>
<path d="M372.609 252.128C372.609 252.128 370.65 259.426 370.013 261.875C369.426 264.078 368.985 269.172 380.984 272.6C388.085 274.608 389.261 269.123 389.751 267.36C390.093 265.988 389.702 261.532 389.163 260.552C389.163 260.503 388.379 263.589 388.379 263.589C388.379 263.589 387.694 260.209 384.314 259.279C378.878 257.712 376.723 260.699 374.372 259.915C372.511 259.279 371.972 255.753 372.609 252.128Z" fill="#FFB27D"/>
<path d="M380.788 263.344L384.51 264.421C385 264.568 385.539 264.274 385.637 263.735L385.784 263.197L380.249 261.63L380.102 262.168C380.004 262.707 380.298 263.197 380.788 263.344Z" fill="#FCD2B1"/>
<path d="M439.804 337.543C438.09 342.489 407.921 360.659 397.783 359.582L367.271 361.1C341.362 357.819 329.069 316.091 329.069 316.091C330.098 305.61 355.663 320.793 364.773 325.495C379.172 332.939 388.33 333.331 388.33 333.331C397.979 334.359 409.145 326.621 421.34 326.376C434.711 326.033 442.547 329.755 439.804 337.543Z" fill="#0B4870"/>
<path d="M373.491 332.547C373.491 332.498 373.491 332.498 373.491 332.547V331.175L425.944 330.196V331.518V331.567L425.797 331.812C425.16 332.987 423.936 333.183 422.565 333.232L376.919 334.114C375.548 334.163 374.323 333.967 373.638 332.841L373.491 332.547Z" fill="#D3D3D3"/>
<path d="M386.126 332.498C386.126 332.498 386.126 332.547 386.126 332.498L385.979 332.743C385.784 333.036 385.539 333.281 385.245 333.428L377.262 333.575C375.939 333.624 374.764 333.477 374.078 332.547L373.931 332.351C373.931 332.351 373.931 332.351 373.882 332.302V331.665L386.028 331.42L386.126 332.498Z" fill="#D3D3D3"/>
<path d="M393.228 332.008L419.43 331.518V330.588L393.179 331.126L393.228 332.008Z" fill="#D3D3D3"/>
<path d="M386.42 330.881L392.738 304.043C392.885 303.357 393.571 302.769 394.256 302.72L431.086 302.035C431.772 302.035 432.164 302.573 432.017 303.308L425.699 330.147L386.42 330.881Z" fill="#D3D3D3"/>
<path d="M362.667 368.006C366.291 368.642 369.083 364.283 369.083 364.283L378.486 356.643L376.478 351.452L358.161 359.973C358.161 359.973 358.994 367.369 362.667 368.006Z" fill="#FCD2B1"/>
<path d="M369.034 363.99C369.034 363.99 369.034 364.43 368.348 366.438C367.663 368.446 366.781 369.132 365.899 369.426C362.373 370.503 359.875 369.965 351.451 371.63C343.028 373.295 340.481 372.022 338.032 368.006C335.583 363.99 338.13 360.806 342.244 360.512C348.17 360.072 351.5 360.757 354.586 360.267C357.818 359.778 358.014 358.994 359.924 357.77C361.687 356.643 363.353 363.402 361.687 364.969C360.169 366.341 367.809 366.536 369.034 363.99Z" fill="#FFB27D"/>
<path d="M367.271 367.859C363.793 368.936 361.247 368.397 352.823 370.063C344.399 371.728 341.852 370.454 339.403 366.438C338.277 364.577 338.228 362.912 338.865 361.639C337.004 362.961 336.367 365.263 338.032 368.006C340.481 372.022 343.028 373.295 351.451 371.63C359.875 369.965 362.422 370.503 365.899 369.426C366.585 369.23 367.271 368.74 367.858 367.614C367.662 367.712 367.467 367.81 367.271 367.859Z" fill="white"/>
<path d="M369.034 364.136C369.034 364.038 369.034 364.038 369.034 364.038C369.034 364.087 368.985 364.136 368.936 364.185C368.985 364.136 369.034 364.136 369.034 364.136Z" fill="#E9D6B8"/>
<path d="M350.864 367.124C350.619 367.222 350.374 366.683 350.276 365.948C350.129 364.43 349.786 362.961 349.296 361.443C349.052 360.708 349.052 360.071 349.345 359.973C349.639 359.875 350.129 360.414 350.325 361.149C350.815 362.618 351.109 364.136 351.256 365.606C351.353 366.34 351.109 367.026 350.864 367.124Z" fill="white"/>
<path d="M353.459 366.634C353.166 366.683 352.921 366.193 352.823 365.508C352.676 364.088 352.333 362.667 351.843 361.296C351.598 360.61 351.598 360.023 351.941 359.974C352.235 359.925 352.725 360.463 352.97 361.149C353.41 362.52 353.753 363.941 353.9 365.312C353.949 365.998 353.753 366.585 353.459 366.634Z" fill="white"/>
<path d="M356.202 366.536C355.908 366.585 355.614 366.046 355.516 365.312C355.272 363.842 354.929 362.422 354.39 360.953C354.145 360.218 354.145 359.63 354.439 359.63C354.782 359.63 355.272 360.169 355.516 360.904C356.055 362.324 356.398 363.793 356.594 365.214C356.692 365.899 356.496 366.487 356.202 366.536Z" fill="white"/>
<path d="M363.304 355.517C363.304 355.517 427.805 328.041 431.478 327.992C443.918 327.894 441.078 340.922 434.76 347.093C427.315 354.341 370.699 367.614 370.699 367.614L363.304 355.517Z" fill="#0E538C"/>
<path d="M388.869 360.316L371.238 342.979L378.78 335.29L397.979 356.251L388.869 360.316Z" fill="#FCD2B1"/>
<path d="M392.493 346.701C392.493 346.701 347.68 304.141 344.693 302.868C334.457 298.558 328.139 310.263 328.482 314.328C328.972 319.568 374.47 362.178 374.47 362.178L392.493 346.701Z" fill="#0E538C"/>
<path d="M419.038 361.639C420.067 362.618 420.263 365.606 420.263 365.606C420.263 365.606 405.325 371.483 400.085 371.581C398.713 371.63 396.264 371.042 393.914 370.357C393.522 370.259 392.591 369.181 392.199 369.083C391.465 368.887 391.318 369.573 390.73 369.377C389.163 368.838 387.987 368.397 387.939 368.3C384.755 361.345 385.833 357.917 385.833 357.917C385.833 357.917 392.689 359.974 391.514 358.357C389.016 354.929 396.215 351.452 397.783 353.264C404.248 360.561 416.002 358.749 419.038 361.639Z" fill="#FFB27D"/>
<path d="M419.871 363.108C415.267 365.018 405.619 368.887 403.709 369.034C395.824 369.622 390.338 366.732 386.665 365.018C387.008 365.998 387.4 367.124 387.939 368.299C387.988 368.397 389.114 368.838 390.73 369.377C391.367 369.573 391.514 368.838 392.199 369.083C392.591 369.181 393.473 370.259 393.914 370.356C396.264 371.042 398.713 371.581 400.085 371.581C405.325 371.483 420.263 365.606 420.263 365.606C420.263 365.606 420.263 364.234 419.871 363.108Z" fill="white"/>
<path d="M409.341 358.602C409.488 358.896 408.9 359.19 408.068 359.386C406.354 359.729 404.688 360.267 403.023 360.953C402.191 361.296 401.456 361.394 401.358 361.1C401.26 360.806 401.799 360.267 402.631 359.925C404.248 359.239 405.962 358.749 407.627 358.406C408.41 358.161 409.194 358.308 409.341 358.602Z" fill="white"/>
<path d="M405.962 357.378C406.109 357.672 405.521 358.064 404.688 358.308C403.023 358.798 401.407 359.484 399.791 360.317C399.007 360.708 398.272 360.855 398.175 360.561C398.077 360.268 398.615 359.631 399.399 359.239C400.966 358.455 402.582 357.77 404.248 357.329C405.08 356.986 405.864 357.084 405.962 357.378Z" fill="white"/>
<path d="M402.729 356.3C402.827 356.594 402.289 357.035 401.505 357.329C399.889 357.965 398.321 358.749 396.803 359.68C396.069 360.169 395.383 360.316 395.285 359.973C395.187 359.68 395.677 358.994 396.46 358.504C397.979 357.574 399.546 356.79 401.113 356.202C401.897 355.957 402.631 356.006 402.729 356.3Z" fill="white"/>
</svg>
