<svg width="250" height="188" viewBox="0 0 250 188" fill="none" xmlns="http://www.w3.org/2000/svg">
<path d="M136.168 148.366C140.05 143.142 143.168 143.096 143.168 143.096C143.168 143.096 144.583 133.917 143.454 130.012C142.325 126.107 137.22 129.532 137.22 129.532C137.22 129.532 143.988 116.264 141.212 114.774C136.041 111.998 127.896 126.071 127.896 126.071C127.896 126.071 129.804 119.876 126.147 119.899C120.632 119.934 120.155 134.137 120.155 134.137C120.155 134.137 119.068 131.339 115.666 132.942C112.001 134.668 111.008 145.067 110.8 153.102H130.119C132.882 151.41 135.14 149.75 136.168 148.366Z" fill="#2993F2"/>
<path d="M128.572 124.939C128.572 124.939 128.799 117.881 125.142 117.904C119.627 117.938 120.155 134.137 120.155 134.137C120.155 134.137 117.852 129.554 114.45 131.157C110.715 132.916 110.272 144.409 110.418 153.102H116.836L141.212 114.774C136.041 111.998 128.572 124.939 128.572 124.939Z" fill="#0E538B"/>
<path d="M158.6 152.643C158.6 152.643 176.204 154.67 180.469 153.177C184.733 151.683 181.909 149.295 181.909 149.295C181.909 149.295 190.928 148.143 191.798 145.459C192.668 142.775 188.4 142.758 188.4 142.758C188.4 142.758 197.453 137.763 196.437 135.826C194.544 132.219 184.386 137.141 184.386 137.141C184.386 137.141 187.893 134.322 185.782 132.912C182.598 130.787 176.798 138.767 176.798 138.767C176.798 138.767 177.262 136.735 174.682 136.333C170.054 135.612 158.6 152.643 158.6 152.643Z" fill="#2993F2"/>
<path d="M174.677 134.834C177.257 135.236 176.798 138.767 176.798 138.767C176.798 138.767 182.796 129.249 185.98 131.374C188.091 132.783 185.215 136.753 185.215 136.753C185.215 136.753 194.544 132.219 196.436 135.826L160.285 151.515C161.613 149.519 170.354 134.16 174.677 134.834Z" fill="#0E538B"/>
<path d="M158.491 152.9C158.491 152.9 174.51 141.754 176.815 136.854C179.12 131.953 174.706 132.362 174.706 132.362C174.706 132.362 181.296 123.684 179.732 120.686C178.168 117.688 174.569 121.322 174.569 121.322C174.569 121.322 177.902 109.387 175.393 108.63C170.719 107.218 166.147 122.33 166.147 122.33C166.147 122.33 164.401 113.97 161.423 114.591C156.932 115.528 161.413 127.889 161.413 127.889C161.413 127.889 160.088 123.862 157.578 125.73C153.074 129.081 158.491 152.9 158.491 152.9Z" fill="#2993F2"/>
<path d="M153.196 125.923C156.024 124.585 156.592 121.77 156.592 121.77C156.592 121.77 156.611 114.78 161.103 113.843C164.081 113.222 166.166 118.837 166.166 118.837C166.166 118.837 170.719 107.218 175.393 108.629L158.442 152.713C157.851 149.902 149.827 127.516 153.196 125.923Z" fill="#0E538B"/>
<path d="M153.552 152.934H121.248C120.218 152.934 119.383 152.099 119.383 151.069C119.383 150.038 120.218 149.203 121.248 149.203H153.552C154.582 149.203 155.417 150.038 155.417 151.069C155.417 152.099 154.582 152.934 153.552 152.934Z" fill="#D3D3D3"/>
<path d="M159.202 149.314H126.898C125.868 149.314 125.033 148.479 125.033 147.449C125.033 146.419 125.868 145.584 126.898 145.584H159.202C160.232 145.584 161.067 146.419 161.067 147.449C161.067 148.479 160.232 149.314 159.202 149.314Z" fill="#AAAAAA"/>
<path d="M154.682 145.885H122.378C121.348 145.885 120.513 145.05 120.513 144.02C120.513 142.99 121.348 142.154 122.378 142.154H154.682C155.712 142.154 156.547 142.99 156.547 144.02C156.547 145.05 155.712 145.885 154.682 145.885Z" fill="#D3D3D3"/>
<path d="M150.915 142.17H118.611C117.581 142.17 116.746 141.335 116.746 140.305C116.746 139.275 117.581 138.44 118.611 138.44H150.915C151.945 138.44 152.78 139.275 152.78 140.305C152.78 141.335 151.945 142.17 150.915 142.17Z" fill="#AAAAAA"/>
<path d="M173.797 137.868C173.797 146.788 166.566 154.019 157.646 154.019C148.726 154.019 141.495 146.788 141.495 137.868C141.495 128.948 148.726 121.717 157.646 121.717C166.566 121.717 173.797 128.948 173.797 137.868Z" fill="#FFCE88"/>
<path d="M171.199 137.868C171.199 145.353 165.131 151.421 157.646 151.421C150.161 151.421 144.093 145.353 144.093 137.868C144.093 130.382 150.161 124.315 157.646 124.315C165.131 124.315 171.199 130.383 171.199 137.868Z" fill="#E28112"/>
<g clip-path="url(#clip0)">
<path d="M159.274 128.651L150.822 133.032L151.693 134.711L154.673 133.166C155.768 132.599 157.065 132.817 157.919 133.614L152.563 136.39L153.434 138.07L158.789 135.294C158.949 136.45 158.379 137.636 157.285 138.204L154.304 139.749L155.175 141.428L162.647 143.798L163.219 141.995L157.549 140.197L158.155 139.883C160.182 138.832 161.13 136.508 160.528 134.392L161.886 133.688L161.015 132.009L159.658 132.713C159.21 132.158 158.65 131.724 158.03 131.426L160.145 130.33L159.274 128.651Z" fill="white"/>
</g>
<path d="M99.3972 152.278C99.3972 152.278 74.2985 139.903 69.9821 133.448C65.6658 126.994 72.0108 126.628 72.0108 126.628C72.0108 126.628 60.8104 115.735 62.3862 111.149C63.962 106.563 69.8423 110.945 69.8423 110.945C69.8423 110.945 62.5622 94.7373 65.958 93.1257C72.283 90.1239 81.1559 107.373 81.1559 107.373C81.1559 107.373 79.2491 99.8797 83.6046 100.123C90.1729 100.49 89.9016 117.441 89.9016 117.441C89.9016 117.441 90.6434 110.942 94.6024 113.053C101.706 116.841 99.3972 152.278 99.3972 152.278Z" fill="#0E538B"/>
<path d="M96.0316 110.431C92.9401 108.715 89.8611 113.73 89.8611 113.73C89.8611 113.73 90.173 100.491 83.6045 100.123C79.2491 99.8799 81.156 107.373 81.156 107.373C81.156 107.373 72.2829 90.1241 65.958 93.1258L99.4261 152.003C99.6625 147.891 102.156 113.829 96.0316 110.431Z" fill="#2993F2"/>
<path d="M98.7486 152.431C98.7486 152.431 78.2212 154.981 72.9062 152.709C67.5912 150.437 71.4003 147.631 71.4003 147.631C71.4003 147.631 59.9878 145.387 59.1072 141.887C58.2268 138.386 63.675 138.73 63.675 138.73C63.675 138.73 52.5483 131.579 54.0115 129.194C56.7368 124.751 69.2803 131.905 69.2803 131.905C69.2803 131.905 65.046 128.006 67.8616 126.388C72.1079 123.948 78.8262 134.63 78.8262 134.63C78.8262 134.63 78.4088 131.997 81.736 131.706C87.7056 131.182 98.7486 152.431 98.7486 152.431Z" fill="#0E538B"/>
<path d="M81.8707 129.792C78.5435 130.084 78.8261 134.63 78.8261 134.63C78.8261 134.63 71.9863 121.967 67.74 124.407C64.9244 126.025 68.2557 131.339 68.2557 131.339C68.2557 131.339 56.7368 124.751 54.0114 129.194L98.8108 152.318C97.2877 149.657 87.4469 129.303 81.8707 129.792Z" fill="#2993F2"/>
<path d="M56.0408 153.486C56.0408 153.804 56.2992 154.063 56.6179 154.063H200.484C200.803 154.063 201.061 153.804 201.061 153.486C201.061 153.167 200.803 152.909 200.484 152.909H56.6179C56.2992 152.909 56.0408 153.167 56.0408 153.486Z" fill="#0E538B"/>
<path d="M126.241 152.913H88.2977C86.7861 152.913 85.5606 151.687 85.5606 150.175C85.5606 148.664 86.7861 147.438 88.2977 147.438H126.241C127.752 147.438 128.978 148.664 128.978 150.175C128.978 151.687 127.752 152.913 126.241 152.913Z" fill="#FFCE88"/>
<path d="M131.944 147.495H96.2242C94.7126 147.495 93.4872 146.269 93.4872 144.757C93.4872 143.246 94.7126 142.02 96.2242 142.02H131.944C133.455 142.02 134.681 143.246 134.681 144.757C134.681 146.269 133.455 147.495 131.944 147.495Z" fill="#FFB27D"/>
<path d="M126.855 142.018H92.6868C91.2096 142.018 90.012 140.821 90.012 139.343V139.217C90.012 137.74 91.2096 136.542 92.6868 136.542H126.855C128.333 136.542 129.53 137.74 129.53 139.217V139.343C129.53 140.821 128.333 142.018 126.855 142.018Z" fill="#FFCE88"/>
<path d="M126.821 136.557H92.493C91.0411 136.557 89.8642 135.38 89.8642 133.928V133.711C89.8642 132.26 91.0411 131.083 92.493 131.083H126.821C128.273 131.083 129.45 132.259 129.45 133.711V133.928C129.45 135.38 128.273 136.557 126.821 136.557Z" fill="#FFB27D"/>
<path d="M127.952 131.405H93.3089C91.7972 131.405 90.5718 130.179 90.5718 128.668C90.5718 127.156 91.7972 125.93 93.3089 125.93H127.952C129.464 125.93 130.689 127.156 130.689 128.668C130.689 130.179 129.464 131.405 127.952 131.405Z" fill="#FFCE88"/>
<path d="M126.457 126H91.8137C90.3021 126 89.0766 124.774 89.0766 123.263C89.0766 121.751 90.3021 120.526 91.8137 120.526H126.457C127.968 120.526 129.194 121.751 129.194 123.263C129.194 124.774 127.968 126 126.457 126Z" fill="#FFB27D"/>
<path d="M128.192 115.424H95.0093C93.5275 115.424 92.3262 114.223 92.3262 112.741V112.633C92.3262 111.151 93.5275 109.95 95.0093 109.95H128.192C129.674 109.95 130.875 111.151 130.875 112.633V112.741C130.875 114.223 129.674 115.424 128.192 115.424Z" fill="#FFB27D"/>
<path d="M131.165 120.688H99.2867C97.8321 120.688 96.6528 119.508 96.6528 118.054V117.847C96.6528 116.393 97.8321 115.213 99.2867 115.213H131.165C132.62 115.213 133.799 116.393 133.799 117.847V118.054C133.799 119.508 132.62 120.688 131.165 120.688Z" fill="#FFCE88"/>
<path d="M94.2764 125.813C100.801 131.831 101.212 141.998 95.1947 148.523C89.1773 155.047 79.0099 155.459 72.4853 149.441C65.9607 143.424 65.5495 133.256 71.5669 126.732C77.5844 120.207 87.7518 119.796 94.2764 125.813Z" fill="#FFCE88"/>
<path d="M92.5237 127.714C97.9987 132.764 98.3437 141.296 93.2943 146.771C88.2448 152.246 79.7131 152.591 74.238 147.541C68.763 142.492 68.418 133.96 73.4674 128.485C78.5168 123.01 87.0486 122.665 92.5237 127.714Z" fill="#E28112"/>
<path d="M144.742 75.5881L146.547 74.6741L148.324 75.6433C148.526 75.7537 148.767 75.5841 148.732 75.3564L148.42 73.3568L149.891 71.9667C150.059 71.8084 149.972 71.5267 149.744 71.49L147.746 71.1682L146.879 69.3399C146.78 69.1316 146.485 69.1271 146.38 69.3322L145.456 71.1329L143.45 71.393C143.221 71.4226 143.126 71.7015 143.288 71.865L144.715 73.2996L144.343 75.2887C144.3 75.5153 144.536 75.6921 144.742 75.5881Z" fill="#FFB27D"/>
<path d="M146.845 83.3769L148.842 84.0353C148.842 84.0353 152.007 83.0097 152.318 82.3646C152.63 81.7195 152.718 80.1541 153.169 80.1115C153.619 80.0688 154.489 80.2152 154.697 81.2865C154.847 82.0642 153.708 84.3117 153.886 84.5509C153.998 84.7006 155.134 85.1119 155.969 85.3989C156.518 85.5876 156.915 86.0709 156.999 86.654L156.999 86.6557C157.056 87.0498 156.833 87.4337 156.464 87.5762L155.89 87.798L156.073 88.3911C156.209 88.8325 155.968 89.307 155.532 89.4532L155.087 89.6021L155.229 89.9634C155.412 90.4285 155.155 90.9564 154.677 91.0954L154.289 91.2082L154.305 91.3119C154.371 91.7436 154.101 92.159 153.682 92.2688L153.296 92.3699L147.979 90.6152C147.481 90.4508 147.023 90.1846 146.632 89.8326L144.866 88.9007C144.676 88.8006 144.589 88.5739 144.661 88.3676L146.297 83.6536C146.376 83.426 146.62 83.3027 146.845 83.3769Z" fill="#FFCE88"/>
<path d="M82.8392 76.9429C82.8134 76.8694 82.1882 75.8001 81.3809 74.6388C77.6266 69.23 72.0595 64.0168 65.5308 64.2126L65.5262 64.1729C68.4779 63.8491 71.37 64.6352 73.9089 66.0362C78.0973 68.2941 82.1783 72.5966 84.411 75.904L82.8392 76.9429Z" fill="#FFBE55"/>
<path d="M125.774 70.1942C125.774 70.1942 125.965 69.8071 125.954 68.9131C125.939 67.8075 125.718 66.1382 125.674 65.9907C125.594 65.7239 129.17 64.6029 129.17 64.6029C129.17 64.6029 134.908 64.3093 135.762 63.6688C136.616 63.0283 137.334 62.7646 136.936 63.4287C136.216 64.6296 134.534 66.3911 134.161 66.6313C133.787 66.8714 129.33 67.9924 129.25 67.9924C129.17 67.9924 129.196 70.7946 129.196 70.7946L125.774 70.1942Z" fill="#F7A491"/>
<path d="M129.497 68.9998C129.497 68.9998 125.781 68.3683 125.714 68.7395C124.212 76.9597 123.958 79.6767 123.792 79.7619C123.226 80.0527 115.14 72.9558 113.804 72.4913C113.164 72.2691 112.469 72.3062 111.802 72.3258C110.213 72.3727 110.749 72.3347 109.911 72.3759L109.912 72.3777C109.866 72.3807 109.841 72.3826 109.841 72.3826L109.849 73.8777C111.64 75.4892 115.74 99.8971 116.086 99.8809C116.471 99.8629 124.575 101.902 124.433 101.22C124.409 101.109 118.938 96.6317 117.387 90.1704C116.866 88.0014 116.609 85.6658 116.326 83.6217C118.127 84.5246 125.159 87.9855 126.274 87.5283C129.741 86.1058 129.497 68.9998 129.497 68.9998Z" fill="#D3D3D3"/>
<path d="M143.453 112.337C143.453 112.337 150.993 118.243 151.244 119.29C151.606 120.799 158.511 118.816 156.846 118.509C156.463 118.438 155.237 118.127 155.136 118.074C154.597 117.785 147.888 109.701 147.888 109.701L143.453 112.337Z" fill="#F7A491"/>
<path d="M160.083 118.509L155.269 118.117C155.269 118.117 153.893 119.256 151.249 119.309C151.249 119.309 150.826 120.517 151.027 121.929C151.062 122.173 151.103 122.909 151.348 122.893C152.238 122.832 154.607 122.243 157.307 121.703C157.307 121.703 160.936 120.934 163.032 119.68C165.127 118.427 160.083 118.509 160.083 118.509Z" fill="#1E0F00"/>
<path d="M109.669 97.5224C109.669 97.5224 115.19 98.4503 121.297 97.0218C128.363 95.3687 136.176 93.8404 138.465 95.1714C140.308 96.2426 151.815 113.63 151.815 113.63L147.371 116.873L134.701 102.685C134.701 102.685 118.537 108.649 114.906 107.988C106.638 106.483 106.52 99.8797 109.669 97.5224Z" fill="#AEE0FF"/>
<path d="M115.705 94.0141L121.23 100.579L110.981 103.702L109.669 97.5225L115.705 94.0141Z" fill="#AEE0FF"/>
<path d="M126.933 124.003C126.933 124.003 126.597 133.122 126.389 134.666C126.181 136.203 130.258 140.835 129.737 139.224C129.618 138.853 129.309 137.627 129.308 137.512C129.306 136.901 130.82 126.498 130.82 126.498L126.933 124.003Z" fill="#F7A491"/>
<path d="M131.276 142.073L129.334 137.651C129.334 137.651 127.678 136.981 126.374 134.679C126.374 134.679 125.111 134.881 123.963 135.729C123.766 135.875 122.417 136.861 122.511 137.089C122.857 137.926 124.693 139.72 126.701 141.679C126.701 141.679 129.547 143.975 131.646 145.223C133.745 146.472 131.276 142.073 131.276 142.073Z" fill="#1E0F00"/>
<path d="M135.882 106.023C133.951 103.449 118.369 101.004 118.369 101.004L114.024 92.6525L104.416 98.5775C104.416 98.5775 105.376 106.223 106.097 108.265C107.058 110.988 113.515 111.126 117.459 111.086C121.087 111.049 127.715 111.788 127.715 111.788L125.473 131.565C125.473 131.565 129.88 132.567 131.118 132.405C131.258 132.387 138.284 109.226 135.882 106.023Z" fill="#CCE9FF"/>
<path d="M109.894 72.396L104.473 72.6931C104.473 72.6931 104.349 72.7368 104.311 72.7437C103.87 72.8255 104.271 88.6223 104.665 94.5224C105.059 100.422 105.857 102.901 105.857 102.901C105.857 102.901 113.209 101.596 115.465 100.72C116.401 100.356 118.668 97.5231 118.668 97.5231C118.668 97.5231 116.353 94.4105 115.186 89.3545C114.287 85.4551 113.178 78.5426 112.543 77.0997C111.085 73.7861 109.894 72.396 109.894 72.396Z" fill="white"/>
<path d="M104.628 67.9125L104.474 72.6986C104.474 72.6986 107.983 78.7447 109.784 77.9023C111.296 77.1952 109.954 72.5961 109.954 72.5961C109.954 72.5961 109.692 71.5415 109.329 70.33C109.076 69.4835 108.865 68.5665 108.88 67.8935C108.918 66.2579 104.628 67.9125 104.628 67.9125Z" fill="#F7A491"/>
<path d="M108.82 56.9963C108.82 56.9963 110.608 59.6919 110.741 61.9604C110.875 64.229 110.394 65.7768 110.394 65.7768L104.656 58.9179L108.82 56.9963Z" fill="#1E0F00"/>
<path d="M111.335 61.4966C111.416 62.2909 111.108 62.973 110.646 63.0201C110.184 63.0672 109.744 62.4615 109.664 61.6672C109.583 60.8728 109.891 60.1907 110.353 60.1436C110.815 60.0965 111.255 60.7022 111.335 61.4966Z" fill="#F48C7F"/>
<path d="M102.8 60.0171C102.668 59.9891 102.681 66.5923 104.595 68.1463C106.509 69.7002 109.84 69.8366 110.813 68.2714C111.889 66.5402 110.865 59.5823 108.019 58.1044C105.172 56.6267 102.8 60.0171 102.8 60.0171Z" fill="#F7A491"/>
<path d="M102.314 55.9225C100.853 57.2036 100.146 58.1394 99.1572 60.417C97.9416 63.2176 100.353 66.1191 102.376 67.2721C104.398 68.4252 104.57 69.8406 104.57 69.8406L104.65 68.9598C104.736 68.2759 104.529 67.8856 104.336 67.472C104.164 67.104 103.611 65.8431 103.395 65.5103C102.826 64.6327 102.714 64.4426 102.995 63.6087C103.211 62.9666 102.961 61.5512 103.295 60.4928L106.017 59.9057C106.017 59.9057 107.721 59.4962 108.581 58.5038C111.051 55.6543 106.168 52.4769 102.314 55.9225Z" fill="#1E0F00"/>
<path d="M103.642 64.3313C103.978 65.0559 103.908 65.8014 103.487 65.9965C103.066 66.1914 102.453 65.7621 102.117 65.0374C101.782 64.3128 101.852 63.5673 102.273 63.3723C102.694 63.1774 103.307 63.6068 103.642 64.3313Z" fill="#F7A491"/>
<path d="M66.9793 66.6974L66.5377 63.6555L68.7932 61.5671C69.0501 61.3293 68.9227 60.9001 68.5777 60.8409L65.5481 60.3209L64.2591 57.5305C64.1122 57.2126 63.6647 57.2012 63.5018 57.511L62.0711 60.2316L59.0188 60.5953C58.6712 60.6368 58.522 61.0588 58.7663 61.3095L60.9116 63.5109L60.3143 66.5262C60.2462 66.8696 60.6016 67.1419 60.9156 66.9871L63.6722 65.627L66.3552 67.1268C66.6608 67.2977 67.0296 67.0439 66.9793 66.6974Z" fill="#FFB27D"/>
<path d="M85.0932 46.1158C85.4026 47.3869 85.9605 49.3958 85.9605 49.3958C85.9163 49.948 85.7532 52.2464 85.5592 55.0633L89.6996 53.4063C89.6996 53.4063 89.65 48.8163 89.8348 48.5355C89.991 48.2979 90.2535 48.5944 91.5225 46.7783C91.8889 46.254 91.9575 45.3174 91.9575 45.3174C91.9575 45.3174 92.033 44.1645 91.774 44.0573C91.5152 43.9498 91.2182 44.122 91.1245 44.3212C91.0307 44.5205 91.055 44.9844 90.9612 45.1836C90.8675 45.3829 90.2685 45.6229 90.0163 45.6104C89.7642 45.5981 90.0478 42.2002 90.0478 42.2002C90.0478 42.2002 90.1886 41.2368 90.26 40.9215C90.3209 40.6527 90.5656 39.8645 90.5656 39.8645C90.5656 39.8645 90.8529 38.721 90.4977 38.6337C90.2884 38.5822 89.7551 39.5113 89.3895 40.4972C88.9958 41.5592 88.7725 42.6853 88.66 42.6701C88.3956 42.6345 88.5356 40.7717 88.5356 40.7717C88.5356 40.7717 88.7991 39.9183 88.7925 39.5156C89.0412 39.0222 89.2063 38.1068 88.7683 38.0311C88.6875 38.0172 88.1101 39.1799 88.1101 39.1799C88.1101 39.1799 87.8833 39.9986 87.7509 40.3812C87.5177 41.0561 87.4824 42.1218 87.3607 42.5917C87.2594 42.9826 87.1679 42.822 87.1262 42.8383C87.094 42.851 87.1505 42.3118 87.215 41.5706C87.2476 41.1973 87.2046 40.7668 87.3091 40.3416C87.4057 39.948 87.4612 39.3845 87.4863 39.0441C87.5572 38.0805 86.9506 38.1792 86.7409 39.0601C86.6609 39.3958 86.5769 39.762 86.4931 40.1333C86.1673 41.5778 86.1765 42.9693 86.0208 42.981C85.8186 42.996 85.9517 40.4623 85.9517 40.4623C85.9517 40.4623 85.6414 39.0598 85.3332 40.3614C84.9757 41.8718 85.013 43.1033 85.0178 43.1576C85.0504 43.5264 84.7838 44.8448 85.0932 46.1158Z" fill="#F8A492"/>
<path d="M104.466 72.701C104.466 72.701 99.0994 72.4481 97.7129 71.8209C96.8723 71.4405 89.9668 65.8762 89.9668 65.8762L90.0443 50.9781L85.1878 50.6088C85.1878 50.6088 82.6697 67.076 83.5418 68.8786C84.4426 70.7401 94.5506 78.4032 96.572 81.7285C97.7366 83.6443 100.165 109.698 100.533 109.933C103.148 111.294 111.225 112.654 111.035 111.828C105.777 89.0093 104.466 72.701 104.466 72.701Z" fill="#D3D3D3"/>
<path d="M144.614 50.0758C144.614 58.9959 137.383 66.2271 128.463 66.2271C119.543 66.2271 112.311 58.9959 112.311 50.0758C112.311 41.1557 119.543 33.9245 128.463 33.9245C137.383 33.9245 144.614 41.1557 144.614 50.0758Z" fill="#FFCE88"/>
<path d="M142.016 50.0758C142.016 57.561 135.948 63.6289 128.463 63.6289C120.978 63.6289 114.91 57.561 114.91 50.0758C114.91 42.5907 120.978 36.5227 128.463 36.5227C135.948 36.5227 142.016 42.5907 142.016 50.0758Z" fill="#E28112"/>
<g clip-path="url(#clip1)">
<path d="M136.389 46.4178L128.165 41.6233L127.212 43.2573L130.113 44.9481C131.178 45.569 131.688 46.7816 131.471 47.9292L126.26 44.8913L125.307 46.5253L130.518 49.5632C129.627 50.3176 128.32 50.471 127.255 49.8501L124.355 48.1594L123.402 49.7934L125.399 57.3738L127.228 56.8919L125.713 51.1405L126.303 51.4842C128.275 52.6342 130.745 52.1907 132.211 50.5496L133.532 51.3198L134.484 49.6858L133.163 48.9156C133.392 48.2405 133.459 47.5356 133.379 46.852L135.437 48.0518L136.389 46.4178Z" fill="white"/>
</g>
<path d="M128.049 66.311C128.049 66.311 129.543 65.6705 129.944 65.537C130.344 65.4036 131.625 65.1633 131.625 65.1633C131.625 65.1633 133.613 63.1217 134.12 63.0683C134.628 63.0149 132.959 65.2968 132.959 65.2968L132.266 65.9641C132.266 65.9641 133.386 65.0032 133.6 64.8698C133.813 64.7363 135.495 62.3077 135.922 62.4678C136.349 62.6279 135.201 64.336 134.641 65.2435C134.08 66.1508 131.518 66.7113 131.518 66.7113L128.049 66.311Z" fill="#F7A491"/>
<path d="M145.911 72.9046C145.908 73.3049 136.832 73.4152 134.95 81.4634L133.74 81.0659C136.436 72.8845 145.423 73.214 145.862 72.913C145.868 72.9086 145.871 72.9039 145.871 72.9046H145.911Z" fill="#FFBE55"/>
<g clip-path="url(#clip2)">
<path d="M90.1585 132.62L81.0142 129.972L80.4881 131.789L83.7128 132.723C84.897 133.065 85.6871 134.117 85.7559 135.283L79.9619 133.605L79.4358 135.422L85.2297 137.1C84.5486 138.049 83.3186 138.516 82.1344 138.173L78.9096 137.239L78.3835 139.056L82.1658 145.922L83.8224 145.009L80.9527 139.8L81.6082 139.989C83.8015 140.625 86.0894 139.593 87.111 137.645L88.58 138.07L89.1062 136.254L87.6371 135.828C87.6947 135.118 87.5884 134.418 87.3439 133.774L89.6323 134.437L90.1585 132.62Z" fill="white"/>
</g>
<defs>
<clipPath id="clip0">
<rect width="15" height="15" fill="white" transform="translate(148.39 134.293) rotate(-27.4003)"/>
</clipPath>
<clipPath id="clip1">
<rect width="15" height="15" fill="white" transform="translate(125.798 40.2434) rotate(30.2398)"/>
</clipPath>
<clipPath id="clip2">
<rect width="15" height="15" fill="white" transform="translate(78.3824 129.21) rotate(16.1516)"/>
</clipPath>
</defs>
</svg>
