<svg width="540" height="540" viewBox="0 0 540 540" fill="none" xmlns="http://www.w3.org/2000/svg">
<path d="M346.25 107.2C359.3 107.35 372.35 110.15 384.15 115.7C392.55 119.65 400.15 124.8 406.25 131.35C418.45 144.45 423.25 163.6 414.95 178C408 190 392.75 198.6 392.55 212.45C392.35 228.55 412.75 239.3 430.55 242.6C448.35 245.95 468.35 246.55 481.7 258.05C493.2 267.95 496.25 283.75 492.45 297C488.65 310.25 478.95 321.25 468.15 330.7C441.15 354.3 406.5 369.85 370.95 382.05C295.9 407.9 214.45 420.5 132.4 419C111.9 418.6 89.05 416.4 74.7 402.6C60.2 388.7 59.75 366.6 69.25 350.7C78.75 334.8 96.15 324.05 114.4 316.25C132.65 308.45 152.15 303 169.9 294.4C183.3 287.9 197 275.55 191.35 262.25C187.3 252.8 175.45 248.25 165 244.4C150.25 239 135.55 232.65 123.5 223.15C111.45 213.65 102.2 200.4 101.25 186.35C100.4 173.25 106.9 160.75 116.5 151.4C126.1 142 138.6 135.4 151.4 129.75C201.9 107.4 311.05 106.75 346.25 107.2Z" fill="#F7F7F7"/>
<path d="M514.55 502.3H31.45C28.85 502.3 26.7 500.15 26.7 497.55V479.45C26.7 476.85 28.85 474.7 31.45 474.7H514.55C517.15 474.7 519.3 476.85 519.3 479.45V497.55C519.3 500.15 517.15 502.3 514.55 502.3Z" fill="#F2F2F2"/>
<path d="M356.55 481.05H198.95C185.7 481.05 175 470.3 175 457.1V132.95C175 119.7 185.75 109 198.95 109H356.55C369.8 109 380.5 119.75 380.5 132.95V457.1C380.5 470.3 369.8 481.05 356.55 481.05Z" fill="#B6E7FF"/>
<path d="M354.55 469.7H200.95C192.9 469.7 186.35 463.15 186.35 455.1V135.6C186.35 127.55 192.9 121 200.95 121H354.6C362.65 121 369.2 127.55 369.2 135.6V455.1C369.2 463.15 362.65 469.7 354.55 469.7Z" fill="white"/>
<path d="M219.3 119.6L228.85 131.8C232.65 136.65 238.3 139.45 244.2 139.45H310.6C316.5 139.45 322.15 136.65 325.95 131.8L335.5 119.6H219.3Z" fill="#B6E7FF"/>
<path d="M327.866 169.55H274.517C273.791 169.55 273.2 167.98 273.2 166.05C273.2 164.121 273.791 162.55 274.517 162.55H327.883C328.609 162.55 329.2 164.121 329.2 166.05C329.183 167.98 328.592 169.55 327.866 169.55Z" fill="#F2F2F2"/>
<path d="M344.461 186.55H274.917C273.97 186.55 273.2 184.755 273.2 182.55C273.2 180.345 273.97 178.55 274.917 178.55H344.483C345.43 178.55 346.2 180.345 346.2 182.55C346.178 184.755 345.408 186.55 344.461 186.55Z" fill="#F2F2F2"/>
<path d="M349.05 375.8H278.9C276.75 375.8 275 374.05 275 371.9C275 369.75 276.75 368 278.9 368H349.05C351.2 368 352.95 369.75 352.95 371.9C352.95 374.05 351.2 375.8 349.05 375.8Z" fill="#F2F2F2"/>
<path d="M349.05 392.1H278.9C276.75 392.1 275 390.35 275 388.2C275 386.05 276.75 384.3 278.9 384.3H349.05C351.2 384.3 352.95 386.05 352.95 388.2C352.95 390.35 351.2 392.1 349.05 392.1Z" fill="#F2F2F2"/>
<path d="M241.9 460.65H210.7C208.55 460.65 206.8 458.9 206.8 456.75C206.8 454.6 208.55 452.85 210.7 452.85H241.9C244.05 452.85 245.8 454.6 245.8 456.75C245.8 458.9 244.05 460.65 241.9 460.65Z" fill="#F2F2F2"/>
<path d="M203 189.5C203 204.688 215.312 217 230.5 217C245.688 217 258 204.688 258 189.5C258 174.312 245.688 162 230.5 162C215.312 162 203 174.312 203 189.5Z" fill="#1A71FF"/>
<path d="M231 240H212C210.343 240 209 241.343 209 243C209 244.657 210.343 246 212 246H231C232.657 246 234 244.657 234 243C234 241.343 232.657 240 231 240Z" fill="#41AAF7"/>
<path d="M247 256H211C209.343 256 208 257.343 208 259C208 260.657 209.343 262 211 262H247C248.657 262 250 260.657 250 259C250 257.343 248.657 256 247 256Z" fill="#41AAF7"/>
<path d="M247 273H211C209.343 273 208 274.343 208 276C208 277.657 209.343 279 211 279H247C248.657 279 250 277.657 250 276C250 274.343 248.657 273 247 273Z" fill="#41AAF7"/>
<path d="M230 294H211C209.343 294 208 295.343 208 297C208 298.657 209.343 300 211 300H230C231.657 300 233 298.657 233 297C233 295.343 231.657 294 230 294Z" fill="#41AAF7"/>
<path d="M246 310H210C208.343 310 207 311.343 207 313C207 314.657 208.343 316 210 316H246C247.657 316 249 314.657 249 313C249 311.343 247.657 310 246 310Z" fill="#41AAF7"/>
<path d="M246 327H210C208.343 327 207 328.343 207 330C207 331.657 208.343 333 210 333H246C247.657 333 249 331.657 249 330C249 328.343 247.657 327 246 327Z" fill="#41AAF7"/>
<path d="M232 354H213C211.343 354 210 355.343 210 357C210 358.657 211.343 360 213 360H232C233.657 360 235 358.657 235 357C235 355.343 233.657 354 232 354Z" fill="#41AAF7"/>
<path d="M248 370H212C210.343 370 209 371.343 209 373C209 374.657 210.343 376 212 376H248C249.657 376 251 374.657 251 373C251 371.343 249.657 370 248 370Z" fill="#41AAF7"/>
<path d="M248 387H212C210.343 387 209 388.343 209 390C209 391.657 210.343 393 212 393H248C249.657 393 251 391.657 251 390C251 388.343 249.657 387 248 387Z" fill="#41AAF7"/>
<path d="M328 255H279C276.791 255 275 256.791 275 259V282C275 284.209 276.791 286 279 286H328C330.209 286 332 284.209 332 282V259C332 256.791 330.209 255 328 255Z" fill="#41AAF7"/>
<path d="M343 240H278C276.343 240 275 241.343 275 243C275 244.657 276.343 246 278 246H343C344.657 246 346 244.657 346 243C346 241.343 344.657 240 343 240Z" fill="#B6E7FF"/>
<path d="M329 295H278C276.343 295 275 296.343 275 298C275 299.657 276.343 301 278 301H329C330.657 301 332 299.657 332 298C332 296.343 330.657 295 329 295Z" fill="#F2F2F2"/>
<path d="M354 310H278C276.343 310 275 311.343 275 313C275 314.657 276.343 316 278 316H354C355.657 316 357 314.657 357 313C357 311.343 355.657 310 354 310Z" fill="#F2F2F2"/>
<path d="M354 325H278C276.343 325 275 326.343 275 328C275 329.657 276.343 331 278 331H354C355.657 331 357 329.657 357 328C357 326.343 355.657 325 354 325Z" fill="#F2F2F2"/>
<path d="M354 340H278C276.343 340 275 341.343 275 343C275 344.657 276.343 346 278 346H354C355.657 346 357 344.657 357 343C357 341.343 355.657 340 354 340Z" fill="#F2F2F2"/>
<path d="M358 409H211C208.791 409 207 410.791 207 413V438C207 440.209 208.791 442 211 442H358C360.209 442 362 440.209 362 438V413C362 410.791 360.209 409 358 409Z" fill="#B6E7FF"/>
<path d="M197.25 254.45V249.85C197.25 249.85 195.6 245.25 193.9 241.9C195.15 242.3 197.25 245.25 197.25 245.25C197.25 245.25 198.1 238.15 197.25 236.45C202.7 241.05 202.7 242.75 202.7 242.75L200.6 250.3L201 256.15L197.25 254.45Z" fill="#FFE3CA"/>
<path d="M118.55 362L116.05 366.6C116.05 366.6 111.05 369.95 111.05 371.6C111.05 373.25 111.05 375.35 111.05 375.35L114.8 379.95C114.8 379.95 118.15 370.75 118.55 371.15C118.95 373.25 118.95 375.75 119.8 376.15C120.2 373.65 118.95 367.35 120.65 365.25C122.35 363.25 118.55 362 118.55 362Z" fill="#FFE3CA"/>
<path d="M125.871 462.005L118.344 461.414L117.069 477.663L124.596 478.254L125.871 462.005Z" fill="#FFE3CA"/>
<path d="M117.1 477.7C113.9 480.8 111.65 483.15 111.5 484.8C114.25 487.1 123.3 489.5 127.65 487.35C128.55 481.55 124.6 478.3 124.6 478.3L117.1 477.7Z" fill="#0D4972"/>
<path d="M170.05 461.6H162.5V477.9H170.05V461.6Z" fill="#FFE3CA"/>
<path d="M165.25 344.25C170.25 359.75 189.5 422.95 173.2 468.55C166.3 473.35 158.75 468.75 158.75 468.75C158.75 468.75 141.8 401.6 146.4 374.4C151 347.2 151.65 344.25 151.65 344.25H165.25Z" fill="#FFB27D"/>
<path d="M156.65 282.3H150.6V295.25H156.65V282.3Z" fill="#FFE3CA"/>
<path d="M163.95 279.1C163.95 285.25 161.6 290.25 156.6 290.25C151.65 290.25 145.95 285.25 145.95 279.1C145.95 272.95 150 267.95 154.95 267.95C159.9 267.95 163.95 272.95 163.95 279.1Z" fill="#FFE3CA"/>
<path d="M162.1 268.1C160.75 273.45 159.75 285.75 152.45 290.1C147.8 292.45 134.15 280.1 140.8 269.1C147.45 258.15 161.45 265.1 162.1 268.1Z" fill="#0E538C"/>
<path d="M150.6 295.25C143.05 296.1 132.2 301.55 132.2 301.55C132.2 301.55 119.65 349.25 117.15 363.9C120.9 366.4 122.15 367.65 122.15 367.65L136.4 320.8L141.85 344.25H165.3L170.75 314.1C170.75 314.1 205.9 296.95 202.95 254.65C196.25 251.7 196.25 251.7 196.25 251.7C196.25 251.7 197.9 296.5 165.3 295.65C165.25 295.7 154.75 293.6 150.6 295.25Z" fill="#1A71FF"/>
<path d="M141.85 344.25C127.2 369.8 108.8 434.65 115.5 470.2C122.4 475.85 128.05 470.2 128.05 470.2C128.05 470.2 153.15 415.4 152.75 376.05C154.4 352.6 152.75 344.25 152.75 344.25H141.85Z" fill="#FFB27D"/>
<path d="M162.5 477.95C159.55 481.3 157.5 483.8 157.5 485.5C160.45 487.6 169.65 489.25 173.8 486.75C174.2 480.9 170.05 477.95 170.05 477.95H162.5Z" fill="#0D4972"/>
<path d="M149.25 264.85C146.55 257.45 137 253.5 129.9 256.9C122.8 260.25 119.75 270.15 123.75 276.9C124.75 278.6 126.2 280.25 126.15 282.25C126.1 285.15 123.05 286.95 120.4 288.25C117.1 289.9 113.75 291.75 111.55 294.65C109.3 297.55 108.45 301.85 110.4 304.95C111.6 306.9 113.7 308.1 115.85 309C120.35 310.85 125.5 311.55 130.05 309.8C134.6 308.05 138.2 303.5 137.85 298.65C137.5 294.05 133.95 289.95 134.65 285.4C135.15 282.25 137.6 279.8 140.15 277.9C142.7 276 145.55 274.4 147.5 271.85C149.4 269.3 150.15 265.45 148.05 263.05" fill="#0E538C"/>
<path d="M26.7 144H131.35C143.85 144 154.05 155.3 154.05 169.1C154.05 181.7 145.55 192.2 134.55 193.95L134.25 205L123.3 194.25H26.7C14.2 194.25 4 182.95 4 169.15C4 155.25 14.2 144 26.7 144Z" fill="#E28112"/>
<path d="M105.95 177.75C110.313 177.75 113.85 174.213 113.85 169.85C113.85 165.487 110.313 161.95 105.95 161.95C101.587 161.95 98.05 165.487 98.05 169.85C98.05 174.213 101.587 177.75 105.95 177.75Z" fill="white"/>
<path d="M79 177.75C83.3631 177.75 86.9 174.213 86.9 169.85C86.9 165.487 83.3631 161.95 79 161.95C74.637 161.95 71.1 165.487 71.1 169.85C71.1 174.213 74.637 177.75 79 177.75Z" fill="white"/>
<path d="M52.05 177.75C56.4131 177.75 59.95 174.213 59.95 169.85C59.95 165.487 56.4131 161.95 52.05 161.95C47.687 161.95 44.15 165.487 44.15 169.85C44.15 174.213 47.687 177.75 52.05 177.75Z" fill="white"/>
<path d="M480.05 487.55C490 487.55 494.15 479.6 495.8 471.2C497.65 461.7 496.3 451.6 496.3 451.6H463.75C463.75 451.6 463.7 452 463.65 452.65C463.05 458.65 461.1 487.55 480.05 487.55Z" fill="#B6E7FF"/>
<path d="M463.8 451.6C463.8 452.3 471.1 452.9 480.05 452.9C489.05 452.9 496.3 452.3 496.3 451.6C496.3 450.9 489 450.3 480.05 450.3C471.05 450.3 463.8 450.9 463.8 451.6Z" fill="#85DDFF"/>
<path d="M436 361.4C436 361.4 453.15 387.5 463.45 403.45C473.75 419.4 476.45 422.7 477.65 427.85C478.9 433 480 452 480 452H480.75C480.75 452 480.5 435.9 479.55 430.45C478.65 425.2 479.6 423.3 480.35 417.8C481.1 412.3 482.05 403.45 476.5 397.35C470.9 391.2 472.4 385.2 470.45 381.15C468.5 377.1 453.3 372.2 451.35 368.05C449.35 363.85 440.8 361.25 436 361.4Z" fill="#FFCA12"/>
<path d="M436 361.4C436 361.4 441.4 367.55 445.05 369.6C448.75 371.7 450.45 369.85 453.25 374.85C456.05 379.85 456.2 382.1 458.75 384.65C461.35 387.2 464.4 387.35 464.65 393C464.9 398.65 463.4 403.4 463.4 403.4C463.4 403.4 437.1 362.75 436 361.4Z" fill="#41AAF7"/>
<path d="M478.65 451.95H477.9C477.9 451.95 477.65 446.75 475.6 444.2C474.25 442.55 468.6 440.7 462.95 438.5C459.85 437.25 456.8 435.95 454.45 434.45C447.9 430.3 441.7 416.95 441.15 414.55C440.95 413.7 440.9 413.2 440.9 412.85C440.9 412.2 441.25 412.1 441.8 411.45C442.05 411.15 442.85 411.25 443.85 411.55C446.65 412.4 449.05 414.35 450.5 416.9C451.85 419.25 454.05 422.2 456.7 422.9C461.3 424.15 460.9 424.9 462.6 429.6C464.3 434.3 468.6 435.05 473.95 440.6C479.35 446.1 478.65 451.95 478.65 451.95Z" fill="#2A94F4"/>
<path d="M462.95 438.5C459.85 437.25 456.8 435.95 454.45 434.45C447.9 430.3 441.7 416.95 441.15 414.55C440.95 413.7 440.9 413.2 440.9 412.85C440.9 413 441.2 415.1 444.6 416.55C448.15 418 448.8 418 449.3 420.25C449.75 422.5 450.15 424.85 452 425.3C453.85 425.75 455 423.7 456.45 427.05C457.9 430.45 458.6 431.6 459.95 432.05C461.3 432.5 462.3 431.8 462.6 434.45C462.8 436.05 462.9 437.55 462.95 438.5Z" fill="#41AAF7"/>
<path d="M484.3 451.95H485.2C485.2 451.95 487 419.65 489.45 416.65C491.05 414.7 496.25 411.25 502.9 408.6C506.55 407.15 510.2 405.55 512.95 403.8C520.7 398.9 528.05 383.05 528.7 380.25C528.9 379.25 529 378.65 529 378.25C529 377.5 528.6 377.4 527.95 376.6C527.65 376.25 526.7 376.35 525.55 376.7C522.2 377.7 519.4 380 517.65 383C516.05 385.8 513.45 389.3 510.3 390.1C504.85 391.55 505.3 392.45 503.3 398C501.3 403.55 496.2 404.45 489.85 411C483.45 417.65 484.3 451.95 484.3 451.95Z" fill="#2A94F4"/>
<path d="M502.9 408.6C506.55 407.15 510.2 405.55 512.95 403.8C520.7 398.9 528.05 383.05 528.7 380.25C528.9 379.25 529 378.65 529 378.25C529 378.45 528.6 380.95 524.6 382.6C520.4 384.3 519.6 384.3 519.05 386.95C518.5 389.6 518.05 392.4 515.85 392.95C513.65 393.5 512.3 391.05 510.6 395.05C508.85 399.05 508.05 400.4 506.45 400.95C504.85 401.5 503.65 400.7 503.3 403.75C503.05 405.7 502.95 407.5 502.9 408.6Z" fill="#41AAF7"/>
<path d="M480.05 487.55C490 487.55 494.15 479.6 495.8 471.2C486.05 467.5 473.8 461.6 463.65 452.7C463.05 458.65 461.1 487.55 480.05 487.55Z" fill="#CCE9FF"/>
<path d="M61.6 483.45C54.55 483.45 51.6 477.8 50.4 471.85C49.1 465.1 50.05 457.95 50.05 457.95H73.15C73.15 457.95 73.2 458.2 73.25 458.7C73.7 462.95 75.05 483.45 61.6 483.45Z" fill="#B6E7FF"/>
<path d="M73.15 457.95C73.15 458.45 68 458.85 61.6 458.85C55.25 458.85 50.05 458.45 50.05 457.95C50.05 457.45 55.2 457.05 61.6 457.05C68 457.05 73.15 457.45 73.15 457.95Z" fill="#85DDFF"/>
<path d="M32.9 393.95C32.9 393.95 45.05 412.45 52.4 423.75C59.7 435.05 61.6 437.4 62.5 441.05C63.35 444.7 64.15 458.2 64.15 458.2H65.1C65.1 458.2 65.7 446.8 64.6 443.05C63.45 439.3 63.9 437.85 64.45 433.9C64.95 430 65.65 423.75 61.7 419.4C57.75 415.05 58.8 410.8 57.4 407.9C56 405.05 45.25 401.55 43.85 398.6C42.35 395.7 36.3 393.9 32.9 393.95Z" fill="#FFCA12"/>
<path d="M32.9 393.95C32.9 393.95 36.75 398.3 39.35 399.8C41.95 401.3 43.2 399.95 45.2 403.55C47.2 407.1 47.3 408.7 49.1 410.5C50.95 412.35 53.1 412.4 53.3 416.4C53.45 420.4 52.45 423.8 52.45 423.8C52.45 423.8 33.65 394.95 32.9 393.95Z" fill="#41AAF7"/>
<path d="M61.25 458.25H60.4C60.4 458.25 60.15 452.35 57.8 449.45C56.3 447.6 49.85 445.5 43.5 443C40 441.6 36.5 440.1 33.9 438.45C26.5 433.75 19.45 418.65 18.85 415.95C18.65 415 18.55 414.45 18.55 414.05C18.55 413.3 18.95 413.2 19.55 412.5C19.85 412.15 20.75 412.25 21.85 412.6C25.05 413.55 27.75 415.75 29.4 418.65C30.95 421.3 33.4 424.65 36.4 425.45C41.6 426.85 41.2 427.7 43.1 433C45 438.3 49.85 439.15 55.95 445.45C62 451.6 61.25 458.25 61.25 458.25Z" fill="#2A94F4"/>
<path d="M43.45 443C39.95 441.6 36.45 440.1 33.85 438.45C26.45 433.75 19.4 418.65 18.8 415.95C18.6 415 18.5 414.45 18.5 414.05C18.5 414.25 18.85 416.6 22.7 418.2C26.7 419.85 27.5 419.85 28 422.35C28.5 424.85 28.95 427.55 31.05 428.1C33.15 428.6 34.45 426.25 36.1 430.1C37.75 433.9 38.55 435.25 40.05 435.75C41.55 436.25 42.7 435.5 43.05 438.45C43.3 440.2 43.4 441.9 43.45 443Z" fill="#41AAF7"/>
<path d="M61.6 483.45C54.55 483.45 51.6 477.8 50.4 471.85C57.3 469.25 66 465.05 73.2 458.7C73.7 462.95 75.05 483.45 61.6 483.45Z" fill="#CCE9FF"/>
<path d="M318 198H279C276.791 198 275 199.791 275 202V210C275 212.209 276.791 214 279 214H318C320.209 214 322 212.209 322 210V202C322 199.791 320.209 198 318 198Z" fill="#2A94F4"/>
</svg>
