<svg width="150" height="150" viewBox="0 0 150 150" fill="none" xmlns="http://www.w3.org/2000/svg">
<path d="M42.8167 26.8901C39.2417 28.454 35.6875 30.3596 33.1861 33.3554C30.6847 36.3512 29.4319 40.6554 30.9319 44.2582C32.9361 49.0707 39.2861 51.8693 39.3153 57.0818C39.3361 60.8151 35.8903 63.6665 32.4125 65.0235C28.9347 66.3804 25.0847 66.8693 21.9208 68.854C17.1472 71.8471 14.9097 77.6415 13.993 83.2012C13.0417 88.9735 13.4278 95.5457 17.5125 99.7332C22.5889 104.939 30.9847 104.351 38.1708 103.242C47.7611 101.761 57.3083 100.021 66.8541 98.2804C87.7805 94.4665 108.707 90.6512 129.633 86.8374C131.878 86.4276 134.211 85.9804 136.035 84.611C139.656 81.8887 139.961 76.2707 137.857 72.2596C135.753 68.2485 131.86 65.5235 127.993 63.1651C124.126 60.8068 120.043 58.5762 117.147 55.0943C114.251 51.6124 112.811 46.4568 115.003 42.4929C116.86 39.1346 120.849 37.3401 122.587 33.9193C124.879 29.4123 122.242 23.6568 118.085 20.779C113.926 17.9012 61.7069 18.6304 42.8167 26.8901Z" fill="#F7F7F7"/>
<path d="M139.436 142.723H13.3417C12.4972 142.723 11.8055 142.032 11.8055 141.187V133.201C11.8055 132.357 12.4972 131.665 13.3417 131.665H139.437C140.282 131.665 140.974 132.357 140.974 133.201V141.187C140.972 142.032 140.281 142.723 139.436 142.723Z" fill="#F2F2F2"/>
<path d="M90.2777 108.611H62.5V127.361H90.2777V108.611Z" fill="#2A94F4"/>
<path d="M30.2292 54.0279H122.55C124.44 54.0279 125.974 55.5599 125.974 57.4515V112.828C125.974 114.718 124.442 116.252 122.55 116.252H30.2292C28.3389 116.252 26.8055 114.72 26.8055 112.828V57.4515C26.8055 55.5599 28.3375 54.0279 30.2292 54.0279Z" fill="#CCE9FF"/>
<path d="M123.285 56.6667H29.4916V113.611H123.285V56.6667Z" fill="white"/>
<path d="M55 126.528H95C97.8375 126.528 100.139 128.829 100.139 131.667H49.8611C49.8611 128.829 52.1625 126.528 55 126.528Z" fill="#CCE9FF"/>
<path d="M48.6111 61.389H32.9167V77.0835H48.6111V61.389Z" fill="#CCE9FF"/>
<path d="M120.139 80.8333H60.1389C59.4486 80.8333 58.8889 80.2736 58.8889 79.5833C58.8889 78.893 59.4486 78.3333 60.1389 78.3333H120.139C120.829 78.3333 121.389 78.893 121.389 79.5833C121.389 80.2736 120.829 80.8333 120.139 80.8333Z" fill="#F7F7F7"/>
<path d="M78.1944 84.7222H60.1389C59.4486 84.7222 58.8889 84.1625 58.8889 83.4722C58.8889 82.7819 59.4486 82.2222 60.1389 82.2222H78.1944C78.8847 82.2222 79.4444 82.7819 79.4444 83.4722C79.4444 84.1625 78.8847 84.7222 78.1944 84.7222Z" fill="#F7F7F7"/>
<path d="M57.6389 78.3333H49.8611V86.1111H57.6389V78.3333Z" fill="#CCE9FF"/>
<path d="M121.389 61.389H49.8611V77.0835H121.389V61.389Z" fill="#F7F7F7"/>
<path d="M48.6111 78.3333H32.9167V111.25H48.6111V78.3333Z" fill="#F2F2F2"/>
<path d="M118.779 97.3611H52.4708C51.0292 97.3611 49.8611 96.193 49.8611 94.7513V91.775C49.8611 90.3333 51.0292 89.1652 52.4708 89.1652H118.781C120.222 89.1652 121.39 90.3333 121.39 91.775V94.7513C121.389 96.193 120.221 97.3611 118.779 97.3611Z" stroke="#CCE9FF" stroke-miterlimit="10"/>
<path d="M97.4694 111.181H52.6C51.125 111.181 49.9305 109.985 49.9305 108.511V101.629C49.9305 100.154 51.1264 98.96 52.6 98.96H97.4681C98.9431 98.96 100.137 100.156 100.137 101.629V108.511C100.139 109.985 98.9431 111.181 97.4694 111.181Z" fill="#CCE9FF"/>
<path d="M119.854 111.25H103.479C102.556 111.25 101.806 110.502 101.806 109.577V100.702C101.806 99.778 102.554 99.028 103.479 99.028H119.854C120.778 99.028 121.528 99.7766 121.528 100.702V109.577C121.528 110.502 120.779 111.25 119.854 111.25Z" fill="#CCE9FF"/>
<path d="M53.6806 53.4724C56.4803 53.4724 58.75 51.2028 58.75 48.403C58.75 45.6032 56.4803 43.3336 53.6806 43.3336C50.8808 43.3336 48.6111 45.6032 48.6111 48.403C48.6111 51.2028 50.8808 53.4724 53.6806 53.4724Z" fill="#E28112"/>
<path d="M51.5611 47.7458H52.9875V46.1361C52.9875 45.7708 53.2847 45.4736 53.65 45.4736H53.7111C54.0764 45.4736 54.3736 45.7708 54.3736 46.1361V47.7458H55.8C56.1653 47.7458 56.4625 48.043 56.4625 48.4083C56.4625 48.7736 56.1653 49.0708 55.8 49.0708H54.3736V50.6708C54.3736 51.0361 54.0764 51.3333 53.7111 51.3333H53.65C53.2847 51.3333 52.9875 51.0361 52.9875 50.6708V49.0708H51.5611C51.1958 49.0708 50.8986 48.7736 50.8986 48.4083C50.8986 48.0417 51.1945 47.7458 51.5611 47.7458Z" fill="white"/>
<path d="M55.1389 58.611L55.4167 56.6665C55.4167 56.6665 55.8333 55.5554 55.8333 55.1388C55.8333 54.7221 55.6944 54.1665 55.4167 54.1665C55.2778 52.4999 55.1389 51.3888 55.1389 51.3888C55.1389 51.3888 54.8611 51.3888 54.7222 51.6665C54.5833 51.9443 54.7222 52.9165 54.7222 52.9165C54.7222 52.9165 53.0555 54.0277 53.0555 54.4443C53.0555 54.861 53.8889 57.2221 53.8889 57.2221L53.75 59.1665L55.1389 58.611Z" fill="#FFE3CA"/>
<path d="M81.6819 94.6443L82.5222 96.1846C82.5222 96.1846 84.2027 97.3054 84.2027 97.8652C84.2027 98.4249 84.2027 99.1249 84.2027 99.1249L82.943 100.665C82.943 100.665 81.8236 97.5846 81.6833 97.7249C81.543 98.4249 81.543 99.2651 81.2639 99.4054C81.1236 98.5651 81.5444 96.4652 80.9833 95.7652C80.4222 95.0638 81.6819 94.6443 81.6819 94.6443Z" fill="#FFE3CA"/>
<path d="M79.6645 133.549L82.1775 133.351L81.7499 127.907L79.2369 128.105L79.6645 133.549Z" fill="#FFE3CA"/>
<path d="M82.1806 133.343C83.2458 134.383 84.0083 135.165 84.0528 135.723C83.1305 136.498 80.1028 137.297 78.6417 136.569C78.3486 134.626 79.668 133.539 79.668 133.539L82.1806 133.343Z" fill="#0D4972"/>
<path d="M64.4599 133.429L66.9808 133.429L66.9808 127.968L64.4599 127.968L64.4599 133.429Z" fill="#FFE3CA"/>
<path d="M66.0708 88.693C64.3903 93.8735 57.95 115.017 63.4111 130.278C65.7208 131.887 68.2417 130.347 68.2417 130.347C68.2417 130.347 73.9125 107.875 72.3722 98.7735C70.8319 89.6722 70.6222 88.693 70.6222 88.693H66.0708Z" fill="#0B4870"/>
<path d="M68.9407 72.3113L70.9713 72.3113L70.9713 67.9711L68.9407 67.9711L68.9407 72.3113Z" fill="#FFE3CA"/>
<path d="M66.5083 66.9079C66.5083 68.969 67.2986 70.6412 68.9597 70.6412C70.6208 70.6412 72.525 68.9704 72.525 66.9079C72.525 64.8468 71.1778 63.1746 69.5167 63.1746C67.8556 63.1746 66.5083 64.8468 66.5083 66.9079Z" fill="#FFE3CA"/>
<path d="M67.1208 63.2304C67.5667 65.0137 67.9014 69.136 70.3528 70.5846C71.9125 71.3651 76.4819 67.2415 74.2528 63.5637C72.0236 59.886 67.343 62.2276 67.1208 63.2304Z" fill="#0E538C"/>
<path d="M70.9708 72.3109C73.4916 72.5915 77.1319 74.4109 77.1319 74.4109C77.1319 74.4109 81.3319 90.3734 82.1722 95.2734C80.9125 96.1137 80.4916 96.5331 80.4916 96.5331L75.7305 80.8512L73.9097 88.6915H66.0694L64.2486 78.6109C64.2486 78.6109 52.4875 72.8707 53.4666 58.729C55.7069 57.7484 55.7069 57.7484 55.7069 57.7484C55.7069 57.7484 55.1472 72.7304 66.068 72.4498C66.0708 72.4512 69.5708 71.7512 70.9708 72.3109Z" fill="#FFB27D"/>
<path d="M73.8944 88.693C78.7944 97.2347 84.9555 118.936 82.7153 130.839C80.4055 132.729 78.5153 130.839 78.5153 130.839C78.5153 130.839 70.1139 112.497 70.2542 99.3347C69.6944 91.4944 70.2528 88.693 70.2528 88.693H73.8944Z" fill="#0B4870"/>
<path d="M66.9805 133.429C67.9611 134.55 68.6611 135.389 68.6611 135.95C67.6805 136.65 64.6 137.209 63.2 136.369C63.0597 134.409 64.4597 133.429 64.4597 133.429H66.9805Z" fill="#0D4972"/>
<path d="M74.3055 63.6111C75.1389 65.2777 76.9444 70.2777 79.4444 69.5833C75.8333 72.9166 68.75 72.6388 66.9444 71.9444C68.0555 68.6111 67.7917 65.5666 67.7917 65.5666L74.3055 63.6111Z" fill="#0E538C"/>
<path d="M67.6389 62.6388C67.2222 62.9165 66.1111 64.3054 66.25 64.5832C66.3889 64.861 68.8889 66.111 68.8889 66.111L67.6389 62.6388Z" fill="#0E538C"/>
<path d="M20.5528 127.751C19.6097 123.353 16.7028 119.414 12.7778 117.215C14.8778 121.181 17.3917 124.928 20.2653 128.374L20.5528 127.751Z" fill="#1A87D8"/>
<path d="M21.6055 129.404C17.8653 124.175 15.9903 117.64 16.3889 111.225C18.8125 117.147 20.643 123.313 21.8444 129.597L21.6055 129.404Z" fill="#FFCA12"/>
<path d="M20.5347 129.583C20.4208 126.367 20.3069 123.125 20.8125 119.946C21.3167 116.767 22.4861 113.615 24.6486 111.23C24.9778 117.817 23.3847 124.487 20.1139 130.212L20.5347 129.583Z" fill="#1A87D8"/>
<path d="M20.6889 129.869C18.5834 123.786 18.9278 116.893 21.6306 111.051C23.3195 117.156 21.825 123.635 20.3292 129.789L20.6889 129.869Z" fill="#B0E1FF"/>
<path d="M20.9681 127.617C21.55 122.281 25.1098 117.37 30 115.157C28.0153 120.481 24.625 125.274 20.2639 128.916L20.9681 127.617Z" fill="#FFCA12"/>
<path d="M26.0055 126.682L25.4 137.045C25.4 137.543 24.9916 137.953 24.4916 137.953H17.3055C16.8069 137.953 16.3972 137.545 16.3972 137.045L16.2597 134.701L15.7916 126.681C15.7916 126.182 16.2 125.772 16.7 125.772H25.0958C25.4236 125.772 25.7125 125.949 25.8722 126.21V126.211C25.9569 126.35 26.0055 126.511 26.0055 126.682Z" fill="#CCE9FF"/>
<path d="M26.0055 126.682L25.4 137.044C25.4 137.543 24.9917 137.953 24.4917 137.953H17.3055C16.8069 137.953 16.3972 137.544 16.3972 137.044L16.2597 134.701C19.6111 133.743 23.068 129.598 25.8722 126.212C25.9569 126.35 26.0055 126.511 26.0055 126.682Z" fill="#CCE9FF"/>
<path d="M131.311 123.876C130.01 117.807 125.999 112.371 120.583 109.337C123.481 114.81 126.949 119.979 130.914 124.735L131.311 123.876Z" fill="#1A87D8"/>
<path d="M132.762 126.157C127.603 118.942 125.015 109.925 125.564 101.071C128.908 109.243 131.435 117.75 133.092 126.422L132.762 126.157Z" fill="#FFCA12"/>
<path d="M131.288 126.404C131.129 121.965 130.974 117.493 131.669 113.107C132.365 108.721 133.979 104.372 136.962 101.082C137.417 110.169 135.218 119.374 130.706 127.275L131.288 126.404Z" fill="#1A87D8"/>
<path d="M131.499 126.8C128.593 118.407 129.069 108.896 132.799 100.833C135.129 109.256 133.067 118.196 131.003 126.687L131.499 126.8Z" fill="#B0E1FF"/>
<path d="M131.883 123.691C132.686 116.329 137.599 109.551 144.347 106.498C141.61 113.844 136.929 120.458 130.913 125.483L131.883 123.691Z" fill="#FFCA12"/>
<path d="M138.836 122.401L138.001 136.701C138.001 137.39 137.438 137.954 136.749 137.954H126.833C126.144 137.954 125.581 137.39 125.581 136.701L125.392 133.469L124.746 122.402C124.746 121.714 125.31 121.15 125.999 121.15H137.585C138.036 121.15 138.435 121.393 138.656 121.754V121.755C138.769 121.943 138.836 122.165 138.836 122.401Z" fill="#CCE9FF"/>
<path d="M138.836 122.401L138.001 136.701C138.001 137.39 137.437 137.954 136.749 137.954H126.833C126.144 137.954 125.581 137.39 125.581 136.701L125.392 133.469C130.015 132.147 134.786 126.429 138.656 121.755C138.769 121.943 138.836 122.165 138.836 122.401Z" fill="#CCE9FF"/>
<path d="M4.04077 143.485C4.04077 143.804 4.29914 144.062 4.61784 144.062H148.484C148.803 144.062 149.061 143.804 149.061 143.485C149.061 143.167 148.803 142.908 148.484 142.908H4.61793C4.29914 142.908 4.04077 143.167 4.04077 143.485Z" fill="#0E538B"/>
</svg>
